<svg xmlns="http://www.w3.org/2000/svg" viewBox="0 0 400 400"><g fill-rule="evenodd" clip-rule="evenodd"><path fill="#fef2f0" d="M94.284 119.384l-11.567-6.227 19.852-9.876 11.636 5.637-1.948.95-2.935 6.436z"/><path fill="#1e7150" d="M301.487 112.723l12.897 2.323-5.26 7.92-7.383-2.499z"/><path fill="#7ac3a1" d="M303.233 99.7l.104-.248 1.193-2.85 1.983.423-.901 8.237-3.459 4.716.719 10.348 6.088 1.479 5.918-9.81-2.963-6.382.646-8.201 2.112.297 4.058 14.532-8.896 11.989-6.963-.032-2.363-3.005-.805-15.756z"/><path opacity=".1" fill="#34302d" d="M93.091 375.064L222.761 400l17.369-1.687 5.264-13.911 31.189 5.871 43.291-9.265-109.213-15.732z"/><path fill="#c0c72b" d="M150.723 364.343l-25.214 7.108v6.292l59.902-.028-.108-6.379z"/><path fill="#e1e048" d="M155.189 354.553l-7.924 3.498-21.756 13.4 59.794-.115-.144-14.452z"/><path fill="#377759" d="M156.487 344.531l1.873 18.181 26.799-5.828-7.057-31.99z"/><path fill="#3d8d69" d="M159.512 304.557l-11.022 6.993-1.225 46.501 11.095 4.661 19.742-37.818z"/><path fill="#c0c72b" d="M269.015 369.938l10.113 7.669.121 5.799-41.645-.065-.361-5.543 10.447-7.86z"/><path fill="#e1e048" d="M264.116 356.418l4.682 6.527 10.33 14.662-30.535-.111-11.35.302-.142-14.154z"/><path fill="#1e7150" d="M234.007 388.116l6.123 10.197 36.453-8.04-2.479-2.599z"/><path fill="#2d8862" d="M225.577 382.639l-12.262.131-1.857 2.317 28.672 13.226.992-3.422z"/><path fill="#2c9268" d="M245.489 376.011l-32.174 6.759 27.807 12.121 32.982-7.217z"/><path fill="#377759" d="M246.032 336.375l-12.635-8.454 3.704 35.723 15.738-.263z"/><path fill="#3d8d69" d="M236.81 296.283l21.039 10.141 10.949 56.521-15.959.436-19.442-35.46z"/><path fill="#56ad86" d="M174.712 251.417l-9.983 1.42-16.239 58.713 29.612 13.344 22.463-37.235z"/><path fill="#3d8d69" d="M160.415 306.901l.645.078 10.992 1.365-12.591 5.521-6.739-10.216z"/><path fill="#80c5a4" d="M159.408 302.764l-6.686.885 8.558 7.476 10.772-2.781z"/><path fill="#56ad86" d="M192.003 254.796l8.562 32.863 32.832 40.262 24.452-21.497-23.557-56.23z"/><path fill="#3d8d69" d="M235.796 290.723l7.883-4.636-10.91 12.839-15.315-4.68z"/><path fill="#80c5a4" d="M233.593 295.354l-16.139-1.108 13.33-6.06 12.895-2.099z"/><path fill="#3d8d69" d="M222.259 238.859l9.654 3.38 6.643 20.249-37.991 25.171-38.178-24.042 4.691-21.378 42.358-4.786z"/><path fill="#377759" d="M195.749 210.279L168.69 230.08l-1.612 12.159h64.835l-.996-11.284z"/><path fill="#c9b66a" d="M189.897 231.47l3.446-1.044 7.886.112 2.883 3.504-6.988 2.955z"/><path fill="#a6914f" d="M197.614 230.487l3.615.051 3.686 1.091-3.451 3.891-4.038 1.35z"/><path fill="#a6914f" d="M191.073 236.539l-1.297 4.152 7.492 1.548 8.465-1.406-2.252-4.383z"/><path fill="#c9b66a" d="M197.268 242.239l8.465-1.406-2.252-4.383-6.044.044z"/><path fill="#c9b66a" d="M198.961 236.01l2.954-2.146 3-2.235 3.377 4.84-2.559 4.364-3.386-1.83z"/><path fill="#a6914f" d="M208.292 236.469l-2.559 4.364-3.386-1.83-1.938-1.713.029-.819zM194.747 234.498l-3.259-2.094-1.591-.934-3.858 4.341 3.737 4.88 3.278-1.758z"/><path fill="#c9b66a" d="M186.039 235.811l7.015.479 1.01 1.584-1.01 1.059-3.278 1.758z"/><path d="M178.46 177.615c-.916-1.756-19.7 7.599-19.7 7.599l9.931 44.866 62.227.875 11.305-42.432-63.763-10.908z" fill="#496427"/><path fill="#749c46" d="M163.474 152.778l-4.714 32.436 83.462 3.309 7.269-34.046-21.906-1.928-47.108 12.253-15.241-10.684z"/><path fill="#fef2f0" d="M177.019 149.315l7.082 15.401 5.421 6.84 20.26.769 12.856-9.123 5.714-3.61-5.802-19.147-45.098-.704z"/><path fill="#a6914f" d="M244.079 117.659l13.115 19.539-5.215 35.698-17.685-22.175z"/><path fill="#fef2f0" d="M240.237 141.85l7.508 5.563 36.51 31.114 1.152 26.751-43.185-16.755-1.823-36.858z"/><path fill="#d4aba5" d="M302.12 161.999l-6.34-4.45-1.017-10.147 10.816.237 8.934 12.867z"/><path fill="#f3d8d4" d="M301.11 129.618l-.617-8.651-10.187 10.621 4.457 15.814z"/><path fill="#fef2f0" d="M168.154 148.546l-9.394 36.668-19.63.455-12.069-19.603z"/><path fill="#fff7b2" d="M159.769 139.314l-7.66-3.871-.373-12.742-4.175-9.34 3.312-5.443 3.376-7.997 26.268 8.842-3.458 26.047z"/><path fill="#c9b66a" d="M184.839 143.82l-1.703 37.676-31.027-46.053 17.519-6.347 9.108-4.456 16.476 11.718z"/><path fill="#f3d8d4" d="M100.08 133.08l-6.124 4.575 15.313 48.895 29.861-.881-28.318-49.422z"/><path fill="#4b4949" d="M136.967 108.903l3.998-6.018 9.908 5.033.863 14.783-8.394 6.794-10.409-8.765z"/><path fill="#6e6e6f" d="M127.925 111.332l3.026-8.306 10.014-.141 2.377 26.61-10.425.992-7.591-10.251z"/><path fill="#4b4949" d="M117.983 113.726l7.638-5.07 5.33-5.63 1.966 27.461-12.052-3.245z"/><path fill="#2d8862" d="M111.897 109.383l-15.038 7.792-14.142-4.018-4.211.533 1.441 14.924 6.426-.544 13.546 1.759 17.754-3.608 9.388.14-1.367-18.976z"/><path d="M187.932 125.809l8.288 37.863 31.914-14.783 14.049-31.256 6.943-23.152-10.979-44.851s-12.557 4.991-12.104 3.661c.458-1.331-38.111 72.518-38.111 72.518z" fill="#f3d8d4"/><path fill="#d4aba5" d="M194.492 126.644l3.55 7.97 19.935 4.279-21.757 24.779-22.764-39.704z"/><path d="M246.073 119.041l-18.732 7.744-7.426 57.504 14.48-18.292 22.799-28.799s-11.734-17.904-11.121-18.157z" fill="#c9b66a"/><path fill="#fff7b2" d="M240.31 72.157l-6.196 9.292-6.773 45.336 29.853 10.413-.763-52.6z"/><path fill="#a6914f" d="M251.548 57.514l-18.694-3.485 1.26 27.42 22.317 3.149z"/><path fill="#c9b66a" d="M236.995 43.153l-4.141 10.876 23.577 30.569 8.662-40.529z"/><path d="M145.648 44.28l-10.13 15.74 15.355 47.898 3.419-4.214 3.891-28.873s5.15-45.017 7.492-43.927c2.343 1.089-13.542 2.535-13.542 2.535l-6.485 10.841z" fill="#a6914f"/><path fill="#c9b66a" d="M208.653 40.313l-57.385-25.811-15.75 45.518 18.211-6.458 4.022-.482z"/><path fill="#e7d37d" d="M220.571 15.065L209.188 0l-57.92 14.502 23.306 31.643 25.249 1.725 25.502-21.823z"/><path fill="#fff7b2" d="M245.065 40.549l-3.17-17.177L209.188 0l-1.572 26.764z"/><path fill="#e7d37d" d="M207.46 45.758l.156-18.994 21.518-12.512 12.246-.332 23.713 30.149-32.239 9.96z"/><path fill="#fef2f0" d="M174.574 46.145l-20.845 7.417.563 50.142 15.336 25.392 28.414 5.518 24.033-24.364 10.779-56.221-25.238-27.265z"/><path fill="#f3d8d4" d="M169.198 62.157l12.609 4.648 4.103 5.335 1.113 2.05 3.372-1.858 5.725-4.777 12.533-1.625 4.147.453 8.549 2.589-17.58 8.008-12.372 16.399-5.946-5.63-6.833 3.878-6.533-18.49-13.403-11.542h8.78zM82.717 113.157l7.564 9.89 21.835-1.38-.219-12.284z"/><path fill="#fef2f0" d="M93.956 137.655l16.856-1.408 10.165-14.856-5.924-2.725-8.624 8.166-3.906 1.588z"/><path fill="#d4aba5" d="M106.429 126.832l-20.056 1.238 7.583 9.585z"/><path fill="#f3d8d4" d="M259.524 193.978l36.256-36.429 18.733 2.957-29.106 44.772z"/><path fill="#2d8862" d="M300.509 121.193l4.269 14.633-10.015 11.576-3.096 14.282.984 1.682 2.95 3.934 4.16-2.583 1.843-1.147 8.231-39.34z"/><path fill="#47aa7e" d="M292.651 163.366l-48.972 220.812 3.943 2.546 3.369-2.533 48.77-219.474z"/><path fill="#fef2f0" d="M300.493 120.967l13.387 8.879.633 30.66-19.75-13.104z"/><path fill="#47aa7e" d="M304.53 96.602l-8.595 11.709 4.558 12.656.039-11.491 3.242-5.553zM314.509 106.106l2.662 5.807-7.336 12.317 11.658-12.239-6.82-14.282z"/><path fill="#f2d6d2" d="M160.598 300.945l11.454 7.399-19.33-4.695zM217.454 294.246l11.816-9.149 14.409.99z"/><path d="M119.585 100.613c5.174-.264 9.861 6.566 10.471 15.256.609 8.69-3.092 15.95-8.267 16.215-5.173.265-9.861-6.566-10.47-15.256-.608-8.69 3.092-15.95 8.266-16.215z" fill="#1e7150"/><path d="M119.81 102.541c4.117-.233 7.846 5.762 8.33 13.388.485 7.627-2.46 13.997-6.576 14.229-4.116.232-7.846-5.762-8.329-13.388-.485-7.627 2.459-13.998 6.575-14.229z" fill="#6c993a"/><path d="M119.933 103.722c3.541-.212 6.749 5.269 7.166 12.243.417 6.974-2.117 12.799-5.657 13.012-3.542.212-6.749-5.269-7.167-12.244-.416-6.974 2.117-12.799 5.658-13.011z" fill="#4b8130"/><path d="M123.765 108.482h-6.004l-.186 1.331 6.284.203-.094-1.534zm-6.274 1.8l6.899.872-1.736 2.657-2.127-.241-3.036-3.288zm4.957 1.862l-1.899-.248 1.033.947.866-.699zm-2.153 2.263l2.569.822.89 1.698-.416 1.576-2.128.937-2.716-.383-.954-2.144.745-1.972 2.01-.534zm1.236 3.259l-.175-1.411-1.8.021.045 1.429 1.93-.039zm2.151 3.892h-4.744l.247 1.937-1.528-.039-.083-3.229 6.196-.201-.088 1.532z" fill="#dfdf3a"/><path fill="#3d8d69" d="M175.141 230.153l4.474.062v12.024h-4.474zM216.782 230.755l4.473.065v11.419h-4.473z"/><path fill="#4b8130" d="M193.054 233.371v5.562l9.293.07-.432-5.139z"/><path fill="#d4a8a2" d="M189.49 88.28l2.224 4.84-7.615 4.94-5.481-6.433z"/><path fill="#fff" d="M184.215 113.065l-6.01-1.417-7.395-10.312 30.828 4.393-14.107 8.283z"/><path fill="#a1c059" d="M171.9 101.587l-1.739.193 7.827 12.393 10.287 1.705 14.083-9.744-1.867-.518-10.228 5.909-11.577-1.462z"/><path fill="#6c993a" d="M202.358 106.134l-4.491-1.543-8.518-2.538-4.183.832-3.485-1.847-11.79.298.27.444 14.532 3.516z"/><path fill="#fef9f9" d="M190.395 72.332l1.319 20.788-13.096-1.493 7.292-19.487z"/><path fill="#a6914f" d="M181.589 63.197l-12.273-3.671-10.634 2.069 10.516.562 12.74 4.711zM197.932 64.368l14.788-.269 8.629 4.873-8.68-1.776-16.549.359z"/><path d="M176.226 73.785c0 1.765-1.431 3.196-3.195 3.196-1.765 0-3.195-1.431-3.195-3.196 0-1.765 1.431-3.195 3.195-3.195 1.764-.001 3.195 1.43 3.195 3.195zM206.964 76.332c0 1.765-1.43 3.196-3.195 3.196-1.764 0-3.195-1.431-3.195-3.196 0-1.765 1.432-3.195 3.195-3.195 1.765 0 3.195 1.43 3.195 3.195z" fill="#33302d"/></g></svg>