<svg xmlns="http://www.w3.org/2000/svg" viewBox="0 0 400 400"><g fill-rule="evenodd" clip-rule="evenodd"><path fill="#ffede8" d="M250.497 136.018l14.035 20.349-13.311 38.057-41.427-11.57-31.965-15.547 34.037-17.332z"/><path fill="#99c266" d="M230.262 237.219l20.959-42.795-38.297-22.957-44.373 64.734z"/><path fill="#6e874d" d="M177.829 167.309l-4.944 13.936-7.308 23.637 2.974 31.319 37.769-36.294 2.4-7.555 4.204-20.885z"/><path fill="#edcfc9" d="M136.347 145.987l15.692 62.687 13.139-3.67 16.148-4.879-33.653-62.069z"/><path fill="#f0d1cc" d="M184.551 175.001l-1.925 1.957 11.664 19.896 12.03 3.053 44.901-5.483-32.12-32.127z"/><path fill="#ffede8" d="M136.347 145.987l29.23 58.895 40.743-4.975-53.188-60.854-5.459-.997z"/><path fill="#d6c47d" d="M284.73 106.816l11.185 7.276-15.82 43.61-23.486 21.323 7.923-22.658-7.451-37.134z"/><path d="M175.645 120.623l-.899 21.275 29.218 12.624 7.901-4.547s-11.492-28.314-11.422-27.529c.079.785-24.798-1.823-24.798-1.823" fill="#9e8c57"/><path fill="#cfa39e" d="M219.101 162.295l24.076-29.237-41.84-7.575 3.29 12.17z"/><path fill="#c2b070" d="M169.959 104.747l4.79 37.152 13.032-3.409zM243.722 119.249l6.775 16.767 14.035 20.351 14.31-34.428-27.914-23.657z"/><path fill="#9e8c57" d="M243.914 108.273l9.66 5.271 25.268 8.395-8.671-47.954-40.295-5.507z"/><path d="M225.143 125.859l-3.259 10.935 14.774-1.08-17.554 26.581 31.393-26.28 3.076-22.471-7.251-41.864s-13.936-13.652-15.141-12.622c-1.204 1.03-6.038 66.801-6.038 66.801" fill="#f0d1cc"/><path fill="#c2b070" d="M274.655 70.836l7.727 14.105 13.533 29.151-17.073 7.847-10.458-21.725z"/><path fill="#d6c47d" d="M244.829 56.257l-6.127 14.026 29.682 29.931 13.998-15.273-2.36-50.179z"/><path fill="#c2b070" d="M183.665 3.107l40.815.94L249.102 1.5 222.58 26.425z"/><path fill="#e0cf80" d="M200.794 8.332l23.072 1.562L249.102 1.5l30.92 33.262-33.171 6.205-24.251-3.605 5.196 20.177-24.719-28.884-4.218-14.482z"/><path fill="#c2b070" d="M280.022 34.762l-41.32 35.521-10.906-12.744-5.196-20.177z"/><path fill="#d6c47d" d="M223.866 9.893L222.6 37.362l-32.438 6.464-4.924-15.088z"/><path fill="#e3d48c" d="M169.109 20.25l14.558-17.143 40.199 6.787-33.452 22.817-24.268 3.152z"/><path fill="#e0cf80" d="M155.815 48.493l-14.559 6.35 12.103-32.469 30.308-19.267-12.182 26.229z"/><path d="M155.508 62.165l-14.251-7.322 30.229-25.507 18.929 3.375s-2.923 17.096-3.764 18.02c-.841.926-31.143 11.434-31.143 11.434" fill="#c2b070"/><path fill="#9e8c57" d="M169.733 57.406l-5.109-4.974-23.368 2.411 28.19 43.581z"/><path fill="#ffede8" d="M163.133 52.584l1.831 50.2 22.817 35.706 34.103-1.695 15.113-28.135 1.7-38.377L222.6 37.362l-32.186-4.651z"/><path fill="#699c47" d="M198.857 112.969l2.614-.767 13.247-1.314 1.242.84-14.177 6.866-7.253-.968-9.904-6.578 1.711.018z"/><path fill="#f0d1cc" d="M180.474 68.468l-5.026.525-4.453 4.034 12.943 8.403 9.442 12.011 5.406-4.221 3.119 9.953 14.347-18.146 14.25-11.237-8.867-4.362-16.508 5.884-3.987 4.332-4.805 3.944-2.074-3.613-3.814-3.365z"/><path fill="#cfa19c" d="M192.784 96.383l-3.275 2.837 7.674 5.898 6.806-5.945z"/><path fill="#c2b070" d="M169.864 71.918l5.348-4.419 15.678 2.568-.443 2.543-14.767-2.024-4.685 2.441zM204.786 68.95l17.297-5.011 9.062 4.46-.643 1.393-9.587-2.895-15.788 4.413z"/><path fill="#fff5f2" d="M194.261 75.975l.263 11.687-5.015 11.558 7.094 1.159 7.386-1.206-4.43-11.735 1.581-11.794z"/><path fill="#4f7033" d="M184.626 111.048l-.688-1.601 3.585 1.08 10.933-.992 15.571 1.094 4.036-.984-2.103 2.083-18 2.815z"/><path d="M181.664 77.214c2.33-.446 4.58 1.08 5.025 3.41.445 2.328-1.081 4.578-3.41 5.023-2.327.445-4.577-1.081-5.023-3.41-.448-2.327 1.08-4.577 3.408-5.023" fill="#2b2b2b"/><path opacity=".1" fill="#2b2b2b" d="M102.086 383.061l96.334-10.564 92.365 13.054L185.464 400.5z"/><path fill="#cfa39e" d="M137.067 85.655l4.311-2.333 5.133 6.468 1.038 21.801-8.907-1.93z"/><path d="M215.443 76.81c2.331-.446 4.581 1.08 5.025 3.41.447 2.328-1.079 4.578-3.41 5.023-2.327.447-4.578-1.081-5.021-3.408-.448-2.33 1.078-4.58 3.406-5.025" fill="#2b2b2b"/><path fill="#cfa39e" d="M117.489 126.708l18.858 19.279-5.017-28.457-8.081-1.408z"/><path fill="#f0d1cc" d="M117.2 116.35l.289 10.358 5.447-5.032 7.132-4.683-6.504-6.423z"/><path fill="#f0d1cc" d="M122.936 121.676l13.411 24.311 16.785-6.934 3.753-23.209-14.802-6.741z"/><path fill="#ffede8" d="M123.564 110.57l20.392-8.398 2.124 15.531-4.702-34.381 6.289-4.61 9.218 37.132-10.805 1.859-23.144 3.973zM153.132 139.053l10.042-10.671 6.498-18.231-6.917.419-5.87 5.274z"/><path fill="#576b36" d="M202.357 257.649l41.756 6.197-8.134 50.289-21.232 4.92-13.748-7.146-11.084-.704-14.918 4.907-18.642-7.043 12.196-72.868z"/><path fill="#ffede8" d="M149.12 356.347l6.74-44.043 18.889 1.115 8.538 9.66-17.352 31.087-9.87 12.891z"/><path fill="#cfa39e" d="M155.86 312.304l.495-3.235 33.56 2.136-6.628 11.874z"/><path fill="#26614a" d="M167.221 383.442l3.076-18.066-6.871-2.637-3.822 11.894 2.907 8.809z"/><path fill="#308c69" d="M120.154 383.752l28.966-27.405 16.815-2.181 4.362 11.21-20.868 18.066z"/><path fill="#ffede8" d="M212.46 316.146l-6.889 9.712 9.921 30.257 6.347 11.865 9.538-10.62 4.125-38.769-7.621-1.591z"/><path fill="#cfa39e" d="M200.999 311.909l4.572 13.949 29.931-7.267.477-4.456z"/><path fill="#26614a" d="M233.086 389.518l3.19-24.516-4.508-11.316-9.929 14.298 8.292 21.611z"/><path fill="#308c69" d="M201.321 390.376l14.171-34.261 16.276-2.429-1.637 35.909z"/><path fill="#6e874a" d="M200.999 311.909l-32.448-75.708 61.711 1.018 13.851 26.627z"/><path fill="#f0d1cc" d="M187.542 101.815l-10.822 10.033 4.722-9.247z"/></g></svg>