<svg xmlns="http://www.w3.org/2000/svg" xmlns:xlink="http://www.w3.org/1999/xlink" viewBox="0 0 900 350"><path fill="#ECECEB" d="M444.5 174.5l-11.75-5.75L468 163l12.5-6.75 15.5 3.25 26.688 22.375z"/><path fill="#DDDDDC" d="M422.75 182l-4-8.25 14-5 43 1.75 46.938 11.375 2.813 2.375s-9.75 9-10.75 9.5S422.75 182 422.75 182z"/><path fill="#C4C4C2" d="M386.75 194.75l19-14.25 13-6.75 41 11 57.154 5.441-.654 10.559-100 2z"/><path fill="#38795E" d="M148.5 226.5l23-15.667 63.333-1L278.5 233l-21.5 4z"/><path fill="#3F8F6F" d="M290.167 215.667l-26.834-4.167L236.5 224l1.5 3.5 3-1.167L276.333 231l13.834-15.333"/><path fill="#54B08B" d="M148.5 219.333l24.167 9.5-6.834 8.167-28 .667-5.5-6.5z"/><path fill="#54B08B" d="M164.333 232l-15.5-1.833-16.5 1-23.5 10.333.5 2.833 18.667 2 5.333-3.833z"/><path fill="#5A753D" d="M121.917 218.833l.979 4.261-18.304 29.869-.752-8.738z"/><path fill="#738D57" d="M121.045 208.165l-8.874 1.991 10.725 12.938 9.064-10.855z"/><path fill="#ECECEB" d="M113.5 244.375l19-1.875 107.587-6.766 4.413 2.516L257 237l143.167-11.333L898.5 253.5l-160.667 96.667L104.11 327.25z"/><path opacity=".1" fill-rule="evenodd" clip-rule="evenodd" fill="#010101" d="M890.5 252.833L446 214.667l-188.667 22.166-12.833 1.417-21.24 2.09-39.177 1.243-12.416 4.25L132.5 242.5l-7.5 2.75 46.5 7.5 50.553-10.111 71.614 10.528 63.5-3.334 64.666 7L462 248.5l123.455 3.727-91.285 19.961-4.209 16.188-88.39 18.456 257.725 22.664L805.5 309.5l93-56z"/><path fill="#54B08B" d="M846.833 228.167L837 221.75l-18.5 4.417 12.667 17.666 24.333-8z"/><path fill="#74C7A5" d="M872 249.25l-5-9.5L852.5 226l-15.5-4.25 5.833 10.75z"/><path fill-rule="evenodd" clip-rule="evenodd" fill="#54B08B" d="M448.833 194.5l33.667-2 42.667 6.333L481 223z"/><path fill-rule="evenodd" clip-rule="evenodd" fill="#74C7A5" d="M474.167 212.5L473 205l49.5-3.167 2.333 19zM448.833 194.5l-58.083-9.25-.25 35.583 59.667-5z"/><path fill-rule="evenodd" clip-rule="evenodd" fill="#54B08B" d="M448.167 204.167L410.5 206.5l-37.667 17.667L428.5 225.5z"/><path fill-rule="evenodd" clip-rule="evenodd" fill="#37785E" d="M448.167 204.167L425 212l-28.833 20.167 91.333 6z"/><path fill-rule="evenodd" clip-rule="evenodd" fill="#3F8F6F" d="M471.167 211.5L473 205l-24.167-10.5-38.333 12L425 212l36.167 4.5z"/><path fill-rule="evenodd" clip-rule="evenodd" fill="#54B08B" d="M578.5 226l-66.048-11.768L473 205l-27 9.667 10.5 11.166 8 .667z"/><path fill="#738D57" d="M78.322 227.908l21.004-10.069 7.812 44.787L95.855 272l-5.035-21.699z"/><path fill="#5A753D" d="M118.248 247.35l-14.408-3.125-5.15 25.287 5.439 2.43 17.707-20.484z"/><path fill="#A0CF7F" d="M130.052 268.355L132.5 242.5l-28.66 1.725z"/><path fill="#9AC26D" d="M99.326 217.839l-31.493-11.006-10 31.167z"/><path fill-rule="evenodd" clip-rule="evenodd" fill="#54B08B" d="M296.5 220.833l-21.333-2.333L257 237l17.833 5.917z"/><path fill-rule="evenodd" clip-rule="evenodd" fill="#37785E" d="M417.167 233.5l-8.334 12.333L363.75 243l1.75-3.5 35.612-15.87z"/><path fill-rule="evenodd" clip-rule="evenodd" fill="#54B08B" d="M386.5 230l26.5-9 24.214 6.855L448.5 239.75l-39.667 6.083z"/><path fill="#3F8F6F" d="M824.833 235.5l18-3 28.5 24.583-41.833-.25z"/><path fill="#54B08B" d="M839.5 239.167l15.333 8.666 16.5 9.25 19.167-4.25-12-14.333-20-.667-15.667-5.333z"/><path fill="#9AC26D" d="M129.067 196.5l-16.896 13.656 19.789 2.083z"/><path fill="#3F8F6F" d="M171.833 237.667l-.166 8.166-28.084-2.375-11.083-.958 6.167-6.333L164.833 232z"/><path fill="#3F8F6F" d="M171.667 245.833l20.958-7.208-14.554-15.269L164.833 232z"/><path fill="#D0CECD" d="M506.5 181.833l16.188.042 3.145 1.125-10.548 9.782-37.535-6.282z"/><g fill-rule="evenodd" clip-rule="evenodd"><path fill="#DDDDDC" d="M711.971 26.167l-74.471 10L714.949 48.5l62.981 15.333L845.167 21.5l-74.471 18z"/><path fill="#ECECEB" d="M845.167 21.5l-52.768 7.333-75.747-14.666-79.152 22 62.13-.667 71.917 8.333z"/><path fill="#DDDDDC" d="M387.695 36.025l74.471 7.383-77.45 9.105-62.981 11.32-84.736-25.347 91.971 7.383z"/><path fill="#ECECEB" d="M236.999 38.486l70.268-.492 75.747-10.828 79.152 16.242-62.13-.492-71.917 6.152z"/></g><g><path fill="#8F8F8F" d="M57.875 243.625l-22.25 1.25-8.125 67.292 40.333 6.333 15.542-73z"/><path fill="#A3A1A1" d="M69.125 240.375l2.042 4.792-3.334 73.333 16.5-2 16-34.667L95.5 242.75z"/><path fill="#8F8F8F" d="M106.162 268.613l-25.329 2.291-6.666 46.596 29.943 9.75 16.089-41.168z"/><path fill="#A3A1A1" d="M118.61 272.622l9.14 1.295 6.75 42.164-30.39 11.169-2.185-47.182z"/><path fill="#D0CECD" d="M115.667 266.667l-34.834 4.237 21.092 9.164 25.825-6.151zM95.5 242.75l-38.625-3.875-21.25 6 35.75 2z"/></g><g fill-rule="evenodd" clip-rule="evenodd"><path opacity=".1" fill="#010101" d="M274.238 284.677l74.501 10.457 76.136-11.764-79.403-7.842z"/><path fill="#737475" d="M358.867 275.881l-13.341 12.785-19.455-3.613 8.06-47.248 20.011.278z"/><path fill="#8F8F8F" d="M364.426 236.137l11.95 48.36-30.85 4.169-1.945-50.861z"/><path fill="#858686" d="M301.892 86.334l-20.081-12.16-13.132 8.824 5.976 159.809 12.993 4.795z"/><path fill="#A3A1A1" d="M281.811 74.174l120.691 8.338 11.464 152.375-126.318 12.715z"/><path fill="#ECECEB" d="M295.221 88.349l5.42 144.036 100.471-8.755-9.172-129.445z"/><path fill="#74C7A5" d="M361.09 219.6l-.555-9.032 5.558-.417-.556-6.809 11.951-.695.278 6.114 5.698-.417.833 9.172zM307.693 117.41l5.177-13.358 2.432 1.667 3.891-8.546 5.697 11.395 2.406-3.09 4.403 12.074z"/><path fill="#C4C4C2" d="M306.477 129.829h54.613l.278 3.891-54.752.695zM306.686 141.433l54.509-.764v3.856l-54.37 1.494zM306.894 153.036l54.822-.903-.104 3.648-54.579 1.841zM333.436 191.46l54.474-3.265.174 3.647-54.439 3.162zM332.811 182.914l54.474-3.266.174 3.648-54.439 3.162z"/><path fill="#737475" d="M355.393 254.342l3.474 32.378 5.698-.694-6.671-32.24z"/></g><g fill-rule="evenodd" clip-rule="evenodd"><path fill="#9B9FA0" d="M565.146 149.072l39.582 7.285-4.129 50.266-54.637-27.44z"/><path fill="#737475" d="M596.957 152.714l-1.295 3.279-1.498 23.19 17.727-1.335.122-27.562-3.279 1.457z"/><path fill="#9B9FA0" d="M660.498 154.01l11.656 68.316 37.882 2.59-3.238-75.439-41.12 5.18"/><path fill="#858686" d="M822.547 260.532l-5.828 16.755-11.17-2.428-4.128-17.97z"/><path fill="#737475" d="M702.589 151.743l1.942 4.857-3.318 60.06 13.193-5.18 3.481-61.194z"/><path fill="#C4C4C2" d="M672.235 146.401l45.652 3.885-13.356 6.314-35.291-4.047z"/><path fill="#737475" d="M718.13 258.346l52.937 7.285.729-22.098zM735.857 276.316l6.07 10.441 7.164-2.671 6.071-19.183-25.862-1.943z"/><path fill="#858686" d="M796.565 269.516c0 .729-7.528 22.583-7.528 22.583l-14.327-1.214-.971-19.669-28.169-4.128-3.643 19.669-11.17-1.943-5.099-6.071.971-24.04 31.082 6.071 34.725-1.457 4.129 10.199z"/><path fill="#858686" d="M820.119 249.847l-31.325 12.384-16.027-24.283 32.054-4.128z"/><path fill="#737475" d="M811.134 163.642l22.827-2.428-2.211 109.536-15.031 6.537.972-12.87-16.27 9.228-1.214 11.898-11.17 6.557-.243-29.869 26.711-13.113z"/><path fill="#9B9FA0" d="M822.79 167.77l-2.266 3.481-5.019 77.867-30.111-7.042 11.413-79.648z"/><path fill="#C4C4C2" d="M783.856 156.6l5.181.971 44.924 3.643-13.437 10.037-15.299-2.995-27.52 2.59zM578.502 147.898l34.539 2.774-17.379 5.321-20.398-.972z"/></g><g><g fill-rule="evenodd" clip-rule="evenodd"><path fill="#C3927D" d="M298.061 175.307l11.88-4.36 6.363 3.493-8.388 12.969-10.166-.957z"/><path fill="#575757" d="M305.103 194.047l36.038-67.989-3.9-1.725-36.6 67.201z"/><path fill="#F6CBB4" d="M311.431 170.103l10.435 1.518-7.088 16.651-11.615-1.716z"/><path opacity=".1" fill="#010101" d="M318.109 303.723l-90.177-8.376-78.907 7.738 79.084 8.927z"/><path fill="#575757" d="M204.957 296.41l-16.998 6.659-2.957-6.572 2.39-10.96 5.254-1.965 7.823 2.471zM269.484 287.622l-6.716 12.182-13.24-6.871-1.103-7.58 11.95-5.552z"/><path opacity=".2" fill="#010101" d="M260.855 280.214l-11.327 12.719-1.103-7.58 3.906-4.211zM187.392 285.537l6.875-1.965 6.202 2.471-14.496 6z"/><path fill="#7D7D7D" d="M260.809 297.845l-11.281-4.912.839 9.161 35.636.299-.199-9.858-16.32-4.913zM211.673 306.711l-.19-10.611-15.668-1.649-6.768 6.901-4.045-4.855-.457 10.214z"/><path fill="#54B08C" d="M251.654 220.248l15.781 47.8-11.45 10.423-13.075-1.249-5.858-17.735-11.058-7.201-15.517 24.936-10.008 6.35-16.463-7.588.165-47.772 8.631-23.53z"/><path fill="#408F70" d="M247.065 223.855l16.603 47.06-6.269 3.181-18.435-41.528zM235.472 243.44l15.193 33.042-7.755.74-16.916-24.936 1.264-19.903zM216.832 245.02l-12.307 33.478-6.547-.675 10.343-44.753zM202.067 224.292l-9.105 54.429-5.696-2.431 2.081-40.748z"/><path fill="#38795E" d="M267.435 268.048l-24.525 9.174 5.515 8.131 22.115-7.899zM210.477 277.222l-26.471-1.238-.03 9.369 20.852.947zM235.472 243.44l-9.478 8.846-9.162-7.266 10.426-17.209z"/><path fill="#FEE5D6" d="M306.847 179.187l9.469-10.153-1.688-3.338-16.567 9.611.562 6.334z"/><path fill="#738D57" d="M243.528 158.947l9.236 28.931-1.11 32.37-16.182 23.192-8.214-11.057-10.426 12.637-18.896-26.528-13.96-2.179 2.528-26.704 19.903-41.579z"/><path fill="#575757" d="M229.154 186.889L217.78 217.85l9.478 7.266 10.11-6.95z"/><path fill="#494849" d="M237.368 218.166l-19.588-.316 9.478 14.533zM239.123 175.891l-9.969 10.998-9.446-12.393 10.393-1.823z"/><path fill="#5B763E" d="M192.185 184.277v-19.752l-7.688-10.253-19.004 43.514 13.346-.68 7.664-4.232z"/><path fill="#408F70" d="M248.106 155.184l16.115 14.372-2.985 8.378-8.472 9.944-6.533-17.769z"/><path fill="#9AC26D" d="M264.221 169.556l13.803 12.598 7.208 12.18-18.901 5.401-13.567-11.857z"/><path fill="#738D57" d="M278.024 182.154l20.476-7.237.75 23.25-32.919 1.568z"/><path fill="#9AC26D" d="M230.101 172.673l-9.74-17.171-13.954-7.472-2.625 37.567zM248.931 158.184l-14.862 2.768-3.968 11.721 22.663 15.205z"/><path fill="#408F70" d="M206.407 148.03l-21.91 6.242 7.688 30.005z"/><path fill="#5B763E" d="M246.311 143.102l-9.169 9.742-3.211 13.252 15-7.912zM207.62 133.212l-1.213 14.818 13.693 16.021-3.028-15.6z"/><path fill="#36795E" d="M184.482 141.189l23.138-7.977.335-7.035-5.175-7.002-8.66 7.36z"/><path fill="#408F70" d="M279.236 81.367l-7.012 22.412.497 26.81 5.917-5.639 5.781-2.268 5.718-3.866-5.559-33.037-1.288-4.092z"/><path fill="#9AC26D" d="M275.609 102.648l8.81 20.034-11.698 7.907.649-8.369 4.051-2.829-2.453-5.774z"/><path fill="#FEE5D6" d="M279.236 81.367l-8.265 62.447-24.66-.712-15.08 12.532-3.225 6.15-2.337-3.685-22.889-38.924 27.311-32.859 30.697-20.19z"/><path fill="#C3937D" d="M254.887 70.008l24.514 11.494-9.64-11.165-9.334-6.798-5.215 2.304z"/><path fill="#F6CBB4" d="M254.755 112.533l-6.76-18.141-6.175-8.718 12.473-2.056 1.11 5.596zM260.868 89.449l2.448-5.174 11.379 3.837-14.446 16.897z"/><path fill="#C3937D" d="M259.939 112.789l-2.865 3.497-2.319-3.753z"/><path fill="#F6CBB4" d="M230.091 86.316l-3.988 55.383 10.918 6.844-3.09 17.553-3.83 6.577-10.001-8.622-12.48-30.839.335-7.035-5.175-7.002z"/><path fill="#FFF1E9" d="M260.868 89.449l-.929 23.34-5.184-.256.648-23.319z"/><path fill="#C3937D" d="M230.091 86.316l-8.826 20.384-10.327 8.83 12.494 3.008-15.812 14.674-4.84-14.037 9.676-14.01z"/><path fill="#408F70" d="M263.316 84.275l7.022-2.254 4.357 6.091zM254.293 83.618l-5.799-2.701-6.674 4.757z"/><path fill="#738D57" d="M270.341 123.803l-14.372 11.868-16.793-12.993z"/><path fill="#FFF" d="M266.563 124.629l-9.777 1.749-13.488-2.724 9.516 6.633 6.136.148z"/><path fill="#45622D" d="M270.341 123.803l-13.474-2.43-17.691 1.305 17.566 4.122z"/><path fill="#9AC26D" d="M219.801 98.697l3.631 19.841-24.931 5.785 5.268-7.78 13.602-2.583-2.437-10.851z"/><path fill="#C3937D" d="M246.311 143.102l-29.15-2.025 16.77 25.019z"/><path fill="#408F70" d="M230.091 86.316l-34.441 17.538-22.232 19.737 11.064 17.598zM226.995 80.003l-25.997-24.049-33.649 40.094zM167.349 96.048l-13.866 17.242 19.935 10.301-.77-16.533z"/><path fill="#74C7A6" d="M260.788 66.126l-.766-5.496-8.916-11.337-50.108 6.661 19.475 23.082z"/><path fill="#54B08C" d="M260.788 66.126l23.79 19.653 9.346-15.337-42.818-21.149zM260.788 66.126l-87.37 57.465-6.069-27.543z"/><path fill="#F6CBB4" d="M197.936 218.492l4.131 5.8-12.72 11.25-5.176-7.33 3.095-8.439z"/><path fill="#9AC26D" d="M165.493 197.786l15.008 33.017 17.435-12.311-11.433-25.618z"/><path fill="#2B2C2B" d="M271.799 97.447c.249 1.787-.998 3.438-2.786 3.687-1.787.249-3.438-.998-3.687-2.785-.249-1.787.998-3.438 2.785-3.687 1.788-.249 3.439.998 3.688 2.785zM250.181 95.674c.249 1.787-.998 3.438-2.786 3.687-1.787.249-3.438-.998-3.687-2.786-.249-1.787.998-3.438 2.786-3.687 1.787-.249 3.438.998 3.687 2.786z"/></g></g><g><defs><path id="a" d="M131.145 99.827L164.5 63.5l-34-50.5L51.5.333.167 45.167l24 72.666L114 118.5l8.75-9.625 25 3.625z"/></defs><use xlink:href="#a" overflow="visible" fill-rule="evenodd" clip-rule="evenodd" fill="#ECECEB"/><clipPath id="b"><use xlink:href="#a" overflow="visible"/></clipPath><path opacity=".1" clip-path="url(#b)" fill-rule="evenodd" clip-rule="evenodd" fill="#010101" d="M57.578 77.421l-9.374-3.125L16.75 83.75l57.075 17.417L135.167 85.5l-32.284-12.141z"/><path clip-path="url(#b)" fill-rule="evenodd" clip-rule="evenodd" fill="#99C26B" d="M81.324 18.836l.937-7.352 13.67 5.79-13.259 5.546z"/><path clip-path="url(#b)" fill-rule="evenodd" clip-rule="evenodd" fill="#37785E" d="M79.596 24.226l.615-1.582 1.084-11.248.966.088.411 11.336-3.164 1.523M59.446 61.805l-4.175-18.626 24.246.482 7.867 10.115 23.603 3.934-10.757 21.596z"/><path clip-path="url(#b)" fill-rule="evenodd" clip-rule="evenodd" fill="#3F8F6F" d="M34 84l21.271-40.821 7.708 8.349 17.232-28.884 1.048.095 1.784 2.112 5.305 46.908-12.414 21.596z"/><path clip-path="url(#b)" fill-rule="evenodd" clip-rule="evenodd" fill="#54B08B" d="M82.672 22.82l18.441 43.801 9.874-8.911 12.346 26.957-47.399 8.688 5.325-70.616z"/></g><g><path fill="#C3927D" d="M525.16 180.721l-8.256 9.47-1.619 2.591 13.598 12.87 15.38-7.123-10.685-15.865z"/><path fill="#ECECEB" d="M546.691 173.355l-11.656-9.349-18.131 26.185 13.031 2.348 21.612-6.557z"/><path fill="#37785E" d="M543.777 181.126l-13.842 11.413 5.586 27.683 57.551-.972 5.828-32.296z"/><path fill="#3F8F6F" d="M550.091 156.478l-15.056 7.528-5.1 28.533 61.437-1.133-.648-26.874-12.101-8.054z"/><path fill-rule="evenodd" clip-rule="evenodd" fill="#D0CECD" d="M638.805 165.989l-6.152-9.389-13.598 10.36-9.714 19.751 10.361.971z"/><g fill-rule="evenodd" clip-rule="evenodd"><path fill="#6F7273" d="M605.82 147.129l-5.949-4.937 7.441-31.859 2.224 4.253 1.388 28.103z"/><path fill="#4F5353" d="M599.871 142.192l11.595-1.619 2.477 6.42 25.145-4.113 7.042 15.055-16.229 8.702z"/><path fill="#5B763E" d="M627.797 179.588l-9.228 8.337 7.285 24.688 45.976 1.619 5.666-23.96z"/><path fill="#738D58" d="M639.21 155.628l-.405 10.361-8.337.567-6.799 3.642-5.1 17.727 57.308 4.776 2.186-31.002-8.985-1.578z"/><path fill="#4F5353" d="M684.515 130.504l-5.851 7.355-8.466 19.391-1.12 2.871 8.985 1.578z"/><path fill="#4F5353" d="M665.803 135.913l-7.696 14.693 5.886 10.471 5.085-.956 15.437-29.617-4.819-2.982-9.762.325z"/><path fill="#ECECEB" d="M641.638 168.134l-17.969 2.064 12.384-18.617 18.941 3.886 9.956-3.117 4.128 7.771-8.418 17.686z"/><path fill="#4F5353" d="M610.677 120.418l10.422-31.777-15.521 5.794-6.777 18.156 4.712 14.14z"/><path fill="#6F7273" d="M609.668 117.352l11.431-28.711-15.357-2.736-6.941 26.686 8.511-2.258zM677.571 90.506l-7.009 13.329-.533 18.906-.716 8.041 15.202-.278z"/><path fill="#6F7273" d="M658.299 97.606l-3.367 9.959 10.912 20.946 3.469 2.271 8.258-40.276-6.619-1.737z"/><path fill="#4F5353" d="M636.655 95.611l-4.849-3.838 8.272-17.022 18.167-1.574 19.326 17.329-22.639 17.059-19.729 1.804z"/><path fill="#6F7273" d="M618.24 85.388l10.995-11.123 29.01-1.088-23.53 19.158-8.218 2.031-7.539-1.769z"/><path fill="#C3927D" d="M658.63 151.63l-13.124-8.883-17.628 6.82 13.76 18.567 9.228-6.435z"/><path fill="#F5CBB3" d="M667.534 137.595l-2.584 14.755-14.084 9.349 5.685-10.614-4.733-.225-15.018-2.898 12.257-7.808 5.875-32.589 11.1 19.044z"/><path fill="#FEE5D6" d="M651.818 150.86l-42.258-.876-2.248-39.651 11.646-17.736 15.674-.236 20.3 15.204z"/><path fill="#C3927D" d="M625.651 133.116l-2.805-2.216 2.089-.728 2.854.877z"/><path fill="#F5CBB3" d="M635.709 118.048l-7.92 13.001-1.518-7.815 1.713-5.223 1.998-4.495 8.556-1.923 7 2.091zM622.119 113.533l1.541 4.245 1.178 5.138-1.992 7.984-6.67-13.277-5.792-4.076 4.692-2.508z"/><path fill="#4F5353" d="M660.336 111.838l-5.404-4.273 4.32 13.832 4.98 2.792-.175-9.301zM638.416 110.271l7.122 3.413-7.736-.772-7.82.604.772-1.886zM610.384 113.547l4.663-3.202 6.282 1.268.79 1.92-5.626-.547z"/><path fill="#FFF1E9" d="M622.846 130.9l.814-13.122 4.324.233-.195 13.038z"/><path fill="#74C7A5" d="M617.816 136.803l6.844 6.763 4.587-.203 7.418-6.526-9.544 2.082z"/><path fill="#3F8F6F" d="M626.62 137.126l-3.034.316-5.77-.639 8.931 3.585 9.918-3.551-6.686.811z"/><path fill="#C3927D" d="M667.534 137.595l-5.398-8.877 3.708-.207 4.512 1.429z"/><path fill="#FEE5D6" d="M670.356 129.94l-1.837-4.594-1.36-1.127-.028-2.45-3.074-6.881-1.921 13.83z"/><path fill="#C3927D" d="M667.131 121.769l-1.099 4.84 2.487-1.263z"/><path fill="#4F5353" d="M605.742 85.905l13.216 6.692 10.277-18.332z"/><path fill="#2B2B2B" d="M616.646 119.925c1.157.061 2.152-.833 2.213-1.99.062-1.157-.833-2.151-1.99-2.213-1.157-.062-2.152.832-2.213 1.989-.062 1.158.832 2.152 1.99 2.214zM635.557 120.929c1.157.062 2.152-.833 2.213-1.99.062-1.157-.833-2.151-1.99-2.213-1.157-.061-2.152.832-2.213 1.989-.062 1.158.832 2.153 1.99 2.214z"/><path fill="#FFF" d="M625.227 141.249l-4.727-3.365 4.888 1.299 3.684.122 3.935-1.083-3.202 3.104z"/><path fill="#ECECEB" d="M670.535 191.81l7.528-30.111 9.379 3.461-.556 36.04-2.995 3.966-14.651-4.533z"/></g><path fill-rule="evenodd" clip-rule="evenodd" fill="#C3927D" d="M813.585 194.014l6.347 7.618 1.746 3.649-15.234 20.154-15.234-24.756z"/><path fill-rule="evenodd" clip-rule="evenodd" fill="#99C26B" d="M759.234 295.655l-3.928 5.117v4.523l27.85.119.238-4.285z"/><path fill-rule="evenodd" clip-rule="evenodd" fill="#5B763E" d="M767.089 279.707l-5.356 7.974-6.427 13.091 28.088.357-1.904-12.02z"/><path fill-rule="evenodd" clip-rule="evenodd" fill="#3F8F6F" d="M750.665 227.815l-9.274 3.043-6.794 1.44-15.829 1.468-1.904 12.14 6.189 9.997 40.942-.714.714-17.376zM788.512 244.24l14.044-14.758-1.904 21.898-11.902 11.188z"/><path fill-rule="evenodd" clip-rule="evenodd" fill="#3F8F6F" d="M783.037 240.669l5.713 21.899-7.26 26.541-19.757-1.428-4.879-27.017z"/><path fill-rule="evenodd" clip-rule="evenodd" fill="#54B08B" d="M782.085 213.533l-20.356 35.119-4.875 12.012 31.896 1.904 14.024-33.814z"/><path fill-rule="evenodd" clip-rule="evenodd" fill="#F5CBB3" d="M691.218 170.009l-.827-7.446-7.446-11.858-11.601 9.82 3.879 15z"/><path fill-rule="evenodd" clip-rule="evenodd" fill="#C3927D" d="M699.216 170.975l-8.825-8.412-15.168 12.962 14.664 7.223 10.156 3.808z"/><path fill-rule="evenodd" clip-rule="evenodd" fill="#FEE5D6" d="M701.313 185.286l1.745-8.727-5.554-19.678-4.681 1.428 2.142 11.743-3.015 3.333 5.554 11.426zM743.286 187.905l-20.709-3.094-20.709 12.377 13.806 15.234 20.947-4.284z"/><path fill-rule="evenodd" clip-rule="evenodd" fill="#346951" d="M761.729 248.652l13.766-6.808-14.443-10.68-11.73 7.031z"/><path fill-rule="evenodd" clip-rule="evenodd" fill="#5B763E" d="M751.141 205.519l-6.665-34.514-21.899 13.806 14.044 23.327z"/><path fill-rule="evenodd" clip-rule="evenodd" fill="#738D58" d="M804.936 168.148l14.996 33.484-20.391 12.695-2.229-18.677zM787.77 160.2l2.373 23.287-2.221 40.849-14.748 7.97-12.122 1.255-11.73 4.634-7.931-7.337 3.085-59.853 9.372-1.933z"/><path fill-rule="evenodd" clip-rule="evenodd" fill="#5B763E" d="M795.104 165.857l9.832 2.291-2.162 60.606-27.279 13.09-14.443-8.283 3.804-35.811 5.213-22.083z"/><path fill-rule="evenodd" clip-rule="evenodd" fill="#A0CF7F" d="M789.405 157.792l5.699 8.065-1.615 22.392-20.556 2.537 9.537-22.685zM757.702 190.786l-9.38-3.913 2.59-17.282 4.857-5.828 7.298 7.897z"/><path fill-rule="evenodd" clip-rule="evenodd" fill="#FEE5D6" d="M728.242 96.037l-1.383 18.36-2.837 40.839 23.79 3.475 15.571 12.872-1.473 15.827 9.824 4.152 22.59-65.771-.81-7.596-8.878-21.313-36.614.418z"/><path fill-rule="evenodd" clip-rule="evenodd" fill="#F5CBB3" d="M784.636 96.882l-12.195 67.405-6.088-2.745-18.541-2.831 8.154 8.599 2.788 10.182-1.052 13.294 7.154 6.964 8.076-6.964 16.474-32.994 5.058-10.699-.14-5.605 4.203-2.541 6.771-13.156-11.784-7.596z"/><path fill-rule="evenodd" clip-rule="evenodd" fill="#C3927D" d="M780.427 162.596l-32.615-3.885 10.942 18.781zM798.527 138.947l-8.011-2.499 3.948 10.645zM794.324 133.283l1.873-6.489 4.261 1.108z"/><path fill-rule="evenodd" clip-rule="evenodd" fill="#4F5353" d="M771.782 98.416l12.854-1.534 7.406.422 11.678-2.955-35.8-16.459-4.959 12.586zM799.196 109.965l2.567 6.225 3.535 9.601-11.784-2.954-2.998 9.813-5.55-2.612 4.209-15.642z"/><path fill-rule="evenodd" clip-rule="evenodd" fill="#5C5C5C" d="M786.168 102.874l6.505-2.827 11.517 3.664.536 10.685-14.21-3.007z"/><path fill-rule="evenodd" clip-rule="evenodd" fill="#737475" d="M786.168 102.874l18.558 11.522.572 11.395-16.123-11.395z"/><path fill-rule="evenodd" clip-rule="evenodd" fill="#4F5353" d="M761.963 99.588l-3.419-11.435-9.065-8.302-13.556 5.002-14.624 13.295 17.78-6.118 10.206 9.072z"/><path fill-rule="evenodd" clip-rule="evenodd" fill="#494749" d="M749.285 101.102l-20.411-4.431-2.015 17.726-5.56-16.249 11.994-9.409 5.786.757z"/><path fill-rule="evenodd" clip-rule="evenodd" fill="#5C5C5C" d="M749.479 79.851l-10.4 9.645-17.78 8.652 12.888-16.671z"/><path fill-rule="evenodd" clip-rule="evenodd" fill="#737475" d="M749.479 79.851l12.484 19.737 9.819-1.172-3.862-20.526z"/><path fill-rule="evenodd" clip-rule="evenodd" fill="#5C5C5C" d="M803.72 94.349l.47 9.362-18.022-.837-1.532-5.992z"/><path fill-rule="evenodd" clip-rule="evenodd" fill="#C3927D" d="M736.542 139.625l23.003 2.488-13.576 7.618z"/><path fill-rule="evenodd" clip-rule="evenodd" fill="#FFF" d="M740.954 141.689l12.868 1.443-7.721 4.1z"/><path fill-rule="evenodd" clip-rule="evenodd" fill="#F5CBB3" d="M738.634 110.55l-7.183.566 14.141 19.684 6.335 4.073 18.214-19.854-8.089-2.319-7.749 1.64-1.018 4.582-4.752 5.6-3.092-6.204.038-4.939z"/><path fill-rule="evenodd" clip-rule="evenodd" fill="#2B2B2B" d="M741.837 120.686c0 1.666-1.351 3.017-3.017 3.017s-3.017-1.351-3.017-3.017 1.351-3.017 3.017-3.017 3.017 1.351 3.017 3.017zM761.477 122.545c0 1.666-1.351 3.017-3.017 3.017s-3.017-1.351-3.017-3.017 1.351-3.017 3.017-3.017 3.017 1.351 3.017 3.017z"/><path fill-rule="evenodd" clip-rule="evenodd" fill="#C3927D" d="M745.818 131.253l-2.715 2.64 4.45 3.394 4.374-2.414z"/><path fill-rule="evenodd" clip-rule="evenodd" fill="#FFF1E9" d="M745.441 118.318l-2.338 15.575 8.824.98 1.358-15.951z"/><path fill-rule="evenodd" clip-rule="evenodd" fill="#4F5353" d="M731.677 107.779l14.198 1.81-.396 3.79-14.028-2.263zM754.303 114.34l.339-3.903 15.838 1.301-.339 3.281z"/><path fill-rule="evenodd" clip-rule="evenodd" fill="#858686" d="M722.577 282.325l-4.447 11.232-10.927-.729-14.142-36.925 28.802-1.428z"/><path fill-rule="evenodd" clip-rule="evenodd" fill="#737475" d="M465.263 281.135l17.138 23.803 12.854-4.046 10.949-38.562-27.373-1.19zM614.827 241.304l38.006 74.107 15.71-5.712 2.478-16.628 46.138-15.055.971 15.541 13.113-4.614 3.077-64.143z"/><path fill-rule="evenodd" clip-rule="evenodd" fill="#858686" d="M454.868 238.765l3.918 64.343 23.615 1.83 2.935-15.59 142.819 11.475 2.541 12.684 22.137 1.904 1.834-57.062zM611.772 218.968l42.895 39.381 87.845-26.428.02-18.666z"/><path fill-rule="evenodd" clip-rule="evenodd" fill="#9B9FA0" d="M527.984 222.777l-90.77 5.078 1.905 17.773 215.548 12.721-.27-19.478z"/><path fill-rule="evenodd" clip-rule="evenodd" fill="#C4C4C2" d="M549.566 207.543l192.966 5.712-88.135 25.616-217.183-11.016z"/><path opacity=".1" fill-rule="evenodd" clip-rule="evenodd" fill="#010101" d="M549.566 207.543l192.966 5.712-18.615 5.412L683 216.25l-49.982 10.285-2.518-10.785-41.556-1.518L569.5 221z"/><path fill-rule="evenodd" clip-rule="evenodd" fill="#F5CBB3" d="M689.887 182.748l12.695 32.848 21.106-4.602-20.63-34.435zM791.21 225.673l.317 7.538 7.379 5.236 30.945-15.789-8.173-17.377zM790.575 232.497l-14.441-6.586-6.903 12.378 7.141 7.775 12.378-4.205z"/><path fill-rule="evenodd" clip-rule="evenodd" fill="#FEE5D6" d="M776.134 225.911l16.008-.952 6.764 13.488-10.156 3.412z"/><path fill-rule="evenodd" clip-rule="evenodd" fill="#F5CBB3" d="M646.252 210.346l22.988-9.713 13.679 4.047 4.128 6.961-30.758 6.476-7.852-2.752z"/><path fill-rule="evenodd" clip-rule="evenodd" fill="#C3927D" d="M686.85 201.205l.197 10.436-17.807-11.008z"/><path fill-rule="evenodd" clip-rule="evenodd" fill="#F5CBB3" d="M639.21 212.208l-8.742-2.428-8.499 10.684 11.049 6.071 12.991-6.071z"/><path fill-rule="evenodd" clip-rule="evenodd" fill="#FEE5D6" d="M646.252 210.346l-15.784-.566 15.541 10.684 10.28-2.347z"/><path fill-rule="evenodd" clip-rule="evenodd" fill="#ECECEB" d="M575.831 164.37l13.113 49.862 41.524-4.452-11.656-48.809z"/><path fill-rule="evenodd" clip-rule="evenodd" fill="#FEE5D6" d="M584.33 181.368l-5.692-6.268-1.674 13.634 7.882 9.633z"/><path fill-rule="evenodd" clip-rule="evenodd" fill="#F5CBB3" d="M578.654 175.055l14.054 5.585-2.55 12.87-5.312 4.857z"/><path fill="#F5CBB3" d="M550.156 154.509l18.309 8.809 10.158-6.84 2.064-19.791-6.306-45.533s-17.625-3.201-18.371-.757c-.75 2.442-5.914 64.195-5.914 64.195l.06-.083z"/><path fill="#C3927D" d="M549.467 145.403l12.381 9.593 5.825.053.792 8.269-9.923 6.64-23.368-21.291zM574.812 127.553l-3.21 1.996 9.085 7.017.688-4.816z"/><path fill="#4F5353" d="M574.314 104.715l-4.743 8.305-.533 5.68 7.713 1.503 6.85-3.003 1.457-10.259z"/><path fill="#858686" d="M572.09 92.465l-7.408 2.237 4.889 18.318 15.487-6.079.93-11.715z"/><path fill="#4F5353" d="M560.337 89.24l4.345 5.462 21.306.524-11.196-19.034z"/><path fill="#6F7273" d="M521.03 75.242l20.806-3.269 32.956 4.219-10.428 19.24zM527.713 89.951l-9.498-.656-5.532 5.618 8.355 18.136z"/><path fill="#4F5353" d="M523.834 98.917l2.667-4.576-8.286-5.046 2.815-14.053 43.652 19.46z"/><path fill="#FEE5D6" d="M519.925 99.924l.213 54.081 41.71.991 2.834-60.294-26.094 1.017-12.087-1.378z"/><path fill="#F5CBB3" d="M532.751 113.6l1.807 1.758 2.13 3.111 1.172 1.946 3.029-1.369 3.517-3.169 4.267-1.52 6.405-.542.7 1.561-5.373 5.539-7.975 10.403-3.896-4.327-1.305 2.84-8.306-10.072-4.227-5.944 2.696-1.848z"/><path fill="#C3927D" d="M535.794 129.127l-1.042 2.191 4.755 3.368 2.923-3.368z"/><path fill="#4F5353" d="M524.696 113.815l9.862 1.543-1.951-3.864-7.225-.122zM548.148 111.676l-3.742 4.201 11.372-.501-.345-2.85z"/><path fill="#FFF1E9" d="M535.643 116.902l-.891 14.416h7.678l.396-14.069z"/><path fill="#FEE5D6" d="M573.289 115.472l10.312 1.728-2.226 14.55-9.773-2.201z"/><path fill="#C3927D" d="M579.627 120.053l-4.236-.795-.681 6.08z"/><path fill="#2B2C2B" d="M529.692 116.017c1.277-.232 2.495.614 2.726 1.889.231 1.272-.612 2.492-1.889 2.724-1.272.231-2.49-.615-2.721-1.887-.232-1.275.612-2.495 1.884-2.726zM548.722 117.104c1.277-.232 2.495.611 2.726 1.886.231 1.275-.612 2.492-1.889 2.724-1.272.231-2.49-.612-2.721-1.887-.232-1.274.612-2.492 1.884-2.723z"/><path fill="#C3927D" d="M531.078 137.576l18.774.322-4.186 8.247-12.285-.099z"/><path fill="#FFF" d="M533.439 138.971l13.746.223-1.255 2.295-11.847-.272z"/><path fill="#F5CBB3" d="M515.285 192.782l-2.833 21.45 35.21 3.885 5.464-5.909-3.56-4.665zM575.831 212.694l-8.499-8.135-8.135 7.164.607 7.163 10.563 1.821z"/><path fill-rule="evenodd" clip-rule="evenodd" fill="#FEE5D6" d="M567.332 204.559l-17.766 2.984-1.904 10.574 12.142.769z"/></g></svg>