<svg xmlns="http://www.w3.org/2000/svg" viewBox="0 0 400 400"><path fill="#85511f" d="M192.237 29.75l-16.241 9.496 5.408 32.696z"/><path opacity=".1" fill="#33302d" d="M116.676 378.776l113.714-11.985 94.628 16.011-108.879 17.621z"/><path fill="#f3d9d4" d="M288.88 123.852l-23.23 36.971-60.066 58.267 1.129-56.07 3.484-7.912L268.223 51.03l5.159 37.373 4.316 2.893zM101.342 128.593l3.218 7.013 11.695-2.955 6.542-7.294-11.525-10.903z"/><path fill="#367759" d="M140.933 221.295l10.025-1.568-16.193-6.275z"/><path fill="#57ad86" d="M106.516 91.692l8.827-11.22 8.611-7.828h10.282l12.339 7.828-1.8 6.876h-20.093l-1.938 8.324-11.907 1.325z"/><path fill="#7fc5a4" d="M125.569 98.815l-2.031 5.817-5.385 2.292-11.637-15.232 10.625 1.379z"/><path fill="#3f8d6a" d="M127.14 107.267l8.783.882-11.14 10.02-4.728-2.83z"/><path fill="#367759" d="M135.923 108.149l-.667 11.771-3.356 1.723-2.519-7.61z"/><path fill="#7fc5a4" d="M135.256 119.92l3.409-1.751-3.25-1.051z"/><path fill="#5e7736" d="M188.404 280.528l19.58 21.074 30.18.66 30.67-66.68-13.271-18.21-13.53-34.926-26.638 18.7-7.902-13.686-.78-29.987-22.08 93.137z"/><path fill="#c0c72f" d="M180.692 172.675l-39.759-4.102 28.962 49.107z"/><path fill="#fef3f1" d="M284.318 96.226l-8.996 19.762 13.558 7.864 11.016-17.68z"/><path fill="#d5aba6" d="M281.01 111.851l4.463-10.327 8.152 4.648zM275.322 115.988l5.306 20.934 8.252-13.07z"/><path fill="#e1e046" d="M194.026 165.074l-13.334 7.601-10.626 43.834 7.541 30.727 17.309-12.069 15.281-40.323-1.742-14.811z"/><path fill="#5e7736" d="M194.026 165.074l5.69 14.236 6.997 1.81-3.656 5.066 12.338 14.96-8.682-43.673z"/><path fill="#e1e046" d="M274.75 174.25l11.595 17.727-24.163 21.475 6.652 22.13-8.452 31.438-52.889 14.211L217.5 255.5l-4.932-40.117 14.916-15.63 14.427-17.22z"/><path fill="#5e7736" d="M265.65 160.823l9.1 13.427-13.083 17.004-15.679-3.619-1.286 10.133-29.307 3.378z"/><path fill="#c0c72f" d="M212.568 215.383l-5.075 65.848 25.127-2.872 27.762-11.339 8.452-31.438z"/><path fill="#ede875" d="M224.651 211.549l-1.047 22.201 7.98 9.723 1.551 7.137 35.662-14.888.037-.14 17.511-43.605z"/><path fill="#798f4e" d="M174.698 197.404l37.87 17.979 2.827 12.657-5.282 19.196-40.218-29.556zM140.933 168.573l-18.136-43.216-18.237 10.249 11.695 56.371z"/><path fill="#fef3f1" d="M120.055 115.339l7.085-8.072-1.571-8.452-14.297 15.639z"/><path fill="#496427" d="M134.765 196.744l-18.51-4.767 24.678-23.404 5.963.615z"/><path fill="#5e7736" d="M188.404 280.528l21.371 35.206 13.829 23.054 28.361 6.772 12.432-13.526-4.015-65.014-24.457 13.751-28.432.459-9.064 2.437z"/><path fill="#5e7736" d="M209.776 315.735l-5.806 23.053-8.961 9.794-25.436-18.33-3.168-27.99 21.999-21.734z"/><path fill="#496427" d="M162.527 267.984l3.878 34.278 43.371 13.473 52.924-26.64-9.2 1.343-9.358 3.756-26.949 7.408-9.7-20.371-19.089-.703z"/><path fill="#ede875" d="M188.404 280.528l-21.999 21.734-20.023-15.366 16.145-18.912z"/><path fill="#e1e046" d="M207.493 281.231l9.7 20.371 26.95-7.408 13.277-6.112 13.276-1.186-10.314-19.876z"/><path fill="#565555" d="M266.552 366.911l2.054 21.354h-34.188l6.427-21.354 14.055-7.559zM196.887 366.911l1.455 12.545h-49.268l23.392-23.645 15.938-1.245z"/><path fill="#33302d" d="M234.418 388.265h34.188v4.469h-34.188zM149.074 379.456h49.268v4.471h-49.268z"/><path fill="#d5aba6" d="M205.016 154.465l37.177 4.647-30.295 24.443z"/><path fill="#fef3f1" d="M226.632 157.148l-34.395-4.269-17.795-30.766 10.013-79.984 36.93-5.412 46.838 14.313-16.258 87.726z"/><path fill="#496427" d="M223.604 338.788l17.241 28.123h25.707l-2.155-34.877zM172.466 355.811l24.421 11.1 7.083-28.123-34.397-8.536z"/><path fill="#57ad86" d="M127.938 93.759l3.085 1.913-5.454 3.143-.459-3.905z"/><path fill="#367759" d="M131.023 95.672v2.455l-3.085-.677z"/><path fill="#fff" d="M131.023 76.084l2.399-1.201 1.585 1.789-2.442 1.267zM146.361 84.534l-11.725-2.818-.4 1.079 11.06 2.565z"/><path fill="#3f8d6a" d="M125.569 98.815l-8.428-5.744 7.541-5.723zM111.272 114.454l8.783.885-11.14 10.018-7.573 3.236z"/><path fill="#367759" d="M120.055 115.339l2.742 10.018-3.03 1.704-6.255-5.84z"/><path fill="#7fc5a4" d="M122.797 125.357l4.343-2.447-5.393-1.386z"/><path fill="#3f8d6a" d="M91.436 115.82l-10.541 13.011 20.447-.238z"/><path fill="#7fc5a4" d="M80.895 128.831l-5.913-6.194 9.579 1.669zM106.516 91.692l-.942-4.344 3.927.548z"/><path fill="#3f8d6a" d="M109.501 87.896l-.714-4.045h3.898z"/><path fill="#7fc5a4" d="M112.685 83.851l-.813-3.499 3.471.12z"/><path fill="#367759" d="M84.561 124.306l-.666-4.386 3.93.356z"/><path fill="#7fc5a4" d="M88.114 119.92l-.289-3.606 3.611-.494z"/><path fill="#57ad86" d="M144.874 173.72l2.022-4.532 20.3-10.266 6.427-8.325h3.342l.642 9.29-17.724 10.641 9.082 9.122-.899 7.81z"/><path fill="#7fc5a4" d="M146.896 169.188l-3.394-5.843 4.972-4.394 11.409 11.577z"/><path fill="#367759" d="M140.933 168.573l2.569-5.228 3.394 5.843-2.022 4.532z"/><path fill="#57ad86" d="M134.765 196.744l7.539 9.792h15.647l-8.278-7.722z"/><path fill="#7fc5a4" d="M134.765 196.744v16.708l6.168 7.843 1.371-14.759z"/><path fill="#367759" d="M134.765 196.744l-7.132-1.835.746 5.573h6.386z"/><path fill="#7fc5a4" d="M127.633 194.909l5.244-6.31 3.98 3.378-2.092 4.767z"/><path fill="#367759" d="M134.765 196.744l14.908 2.07-12.816-6.837zM168.965 179.65l4.186 4.205-5.085 3.605zM159.883 170.528l9.444.974-.362 8.148zM151.194 206.536l-3.493 3.444-5.397-3.444zM142.304 206.536l2.742 6.353-3.624 3.142z"/><path fill="#fff" d="M175.496 156.446l-1.744 1.027 1.177 1.449 1.2-.785z"/><path fill="#3f8d6a" d="M173.623 150.597l-3.213 10.336-3.214-2.011z"/><path fill="#7fc5a4" d="M134.236 82.795l-9.554 4.553h20.093l.521-1.988z"/><path fill="#fef3f1" d="M174.698 197.404l-14.4-21.593-13.402 28.164 22.999 13.705z"/><path fill="#f3d9d4" d="M160.298 175.811l-15.424-2.091-8.017 18.257 10.039 11.998zM106.516 91.692l-15.08 24.128 9.906 12.773 16.811-21.669z"/><path fill="#57ad86" d="M253.698 276.186l-2.955 5.045-4.884 4.124 19.408-4.827-6.427-.84zM250.98 284.082l-1.78 4.652-5.056 5.461 26.552-7.299-5.942-1.541-5.273-3.386z"/><path fill="#57ad86" d="M253.09 277.228l-1.125-5.625h.512l1.992 5.097zM174.698 197.404h7.296l3.712-.982 5.451 2.681.548 2.592 4.669 5.998z"/><path fill="#57ad86" d="M181.613 194.904l12.568 5.719-2.476-3.708.953-8.223h-.524l-5.19 5.966z"/><path fill="#c0c72f" d="M169.895 217.68l25.114 18.456-6.605 44.392-25.877-12.544z"/><path fill="#496427" d="M224.651 211.549l-12.083 3.834-2.455 31.853 21.468-3.764z"/><path fill="#57ad86" d="M170.123 271.665l18.281 8.863 2.118-14.76-.017-.094.011.004.029-.063.453-3.157-1.875 2.706-4.652 1.381-6.587-.179 4.656 2.404-4.723 2.217zM277.68 213.553l-9.757-2.004 5.74-1.555-14.652-1.448-8.14 7.56 4.628-1.448-9.128 8.928 4.519-1.266-6.788 5.72 7.454-.593-9.683 11.943 9.256-3.74-4.997 9.534.002-.002 22.663-9.46.037-.14z"/><path fill="#a2662b" d="M221.385 82.056l2.732-3.007 16.764-4.283 9.203 12.165-10.021-7.427zM205.438 80.143l-.727-4.465-8.931-7.289-10.386 4.555 9.596-1.002z"/><path fill="#fff9f9" d="M206.031 86.931l8.884 1.503-4.5 23.636-9.669-1.799z"/><path fill="#f3d9d4" d="M221.385 82.056l-6.47 6.378-2.725 14.653 37.894-16.156-10.021-7.427zM205.438 80.143l.593 6.788-3.146 13.969-17.491-27.956 9.596-1.002z"/><path fill="#d5aba6" d="M200.746 110.271l3.656 4.51 6.013-2.711zM190.04 119.002l13.242 5.194 22.885-1.093-9.159 12.573-26.923-3.334z"/><path fill="#fff" d="M192.265 130.409l-.028-8.197 10.681 4.191 18.793-.899-5.711 7.844z"/><path fill="#f3d9d4" d="M224.75 117.25l4.986 4.962 1.014 9.121 3.974-10.192zM192.237 112.07l-4.487 5.18-1.5 7.834-2.084-10.303zM199.282 58.798l16.933 5.811 27.271-1.426-3.742-.49-22.816-.046-12.833-3.849z"/><path fill="#b6773e" d="M268.223 51.03L222.11 17.055V.033l-24.413 21.033 7.883 23.309 23.527-3.376z"/><path fill="#a2662b" d="M197.697 21.066l-13.242 21.063 21.125 2.246z"/><path fill="#b6773e" d="M303.348 53.148l6.418 22.993-9.87 30.031-15.578-9.946-10.218 6.159 3.598-11.089-7.624-4.365 8.302-17.939-10.153-17.962z"/><path fill="#85511f" d="M248.798 36.717l1.48-19.662L244.169.033 222.11 17.055zM197.697 21.066l70.526 29.964-62.643-6.655z"/><path fill="#d2965e" d="M222.11 17.055l76.426 22.191 4.812 13.902-35.125-2.118z"/><path fill="#a2662b" d="M222.11.033l25.127 24.318-25.127-7.296z"/><path fill="#85511f" d="M265.65 21.066l8.278 11.035 24.608 7.145z"/><path fill="#b6773e" d="M273.928 32.101l-5.705 18.929 35.125 2.118-4.812-13.902z"/><path fill="#a2662b" d="M247.237 24.351l26.691 7.75-8.278-11.035L244.169.033zM303.348 53.148l-33.274 33.783-1.851-35.901z"/><path fill="#85511f" d="M274.967 89.961l-5.631 14.254 9.107 4.821 5.875-12.81 15.578 9.946 9.87-30.031-39.692 10.79z"/><path d="M234.354 94.527c0 2.504-2.03 4.534-4.534 4.534-2.505 0-4.533-2.03-4.533-4.534s2.028-4.534 4.533-4.534c2.503 0 4.534 2.03 4.534 4.534zM199.551 88.403c0 2.505-2.029 4.535-4.533 4.535-2.505 0-4.534-2.03-4.534-4.535 0-2.503 2.028-4.533 4.534-4.533 2.503 0 4.533 2.03 4.533 4.533z" fill="#33302d"/><path fill="none" d="M299.896 106.172l-34.246 54.651"/></svg>