<svg xmlns="http://www.w3.org/2000/svg" viewBox="0 0 400 400"><path opacity=".1" fill-rule="evenodd" clip-rule="evenodd" fill="#2b2b2b" d="M74.337 388.045l135.684-13.506 102.507 15.804L208.019 400z"/><path fill-rule="evenodd" clip-rule="evenodd" fill="#36785d" d="M156.054 271.427l-14.967 34.226 6.546 18.983 24.044 14.644 40.195-30z"/><path fill-rule="evenodd" clip-rule="evenodd" fill="#3f8f6f" d="M192.045 302.916l31.709 31.268 30.734 2.463 17.033-16.956-6.84-51.987-65.543-5.503z"/><path fill-rule="evenodd" clip-rule="evenodd" fill="#326850" d="M192.045 302.916l24.36-12.046-25.558-18.901-20.758 12.443z"/><path fill-rule="evenodd" clip-rule="evenodd" fill="#36785d" d="M223.754 334.184l47.767-14.493 3.947 29.989-12.998 8.872h-14.004z"/><path fill-rule="evenodd" clip-rule="evenodd" fill="#326850" d="M141.087 305.653l30.59 33.627-23.073 17.22L130 355.206l-5.383-14.232z"/><path fill-rule="evenodd" clip-rule="evenodd" fill="#709d53" d="M248.466 358.552l-7.267 18.482-13.971 8.871 37.056 2.773 17.464-26.061-6.28-12.937z"/><path fill-rule="evenodd" clip-rule="evenodd" fill="#5a753d" d="M227.228 385.905v6.654h39.194l18.051-23.658-2.725-6.284-18.052 23.288z"/><path fill-rule="evenodd" clip-rule="evenodd" fill="#709d53" d="M148.604 356.5l-12.437 15.895-16.782-9.426-30.35-24.953 35.582 2.958z"/><path fill-rule="evenodd" clip-rule="evenodd" fill="#5a753d" d="M136.167 372.395l-4.089 5.545-46.77-34.564 3.727-5.36z"/><path fill-rule="evenodd" clip-rule="evenodd" fill="#ffeee9" d="M138.846 192.894l-24.839-2.465-6.83 9.641 1.378 9.226 51.67 25.989-10.475-33.165z"/><path fill-rule="evenodd" clip-rule="evenodd" fill="#5a753d" d="M181.262 159.789l-42.416 33.105 21.379 42.391z"/><path fill-rule="evenodd" clip-rule="evenodd" fill="#efd0cb" d="M287.705 221.377l-14.384 13.371 2.763 21.478 8.981-20.435z"/><path fill-rule="evenodd" clip-rule="evenodd" fill="#738d57" d="M237.006 153.341l56.773 12.151-1.103 43.63h-37.662z"/><path fill-rule="evenodd" clip-rule="evenodd" fill="#738d57" d="M238.128 146.387l4.2 41.21-3.93 72.289-26.099 14.104-21.452 2.221-20.758 8.201-14.035-12.985 7.198-78.533 24.556-21.87z"/><path fill-rule="evenodd" clip-rule="evenodd" fill="#5a753d" d="M234.696 168.408l20.781 14.576 9.204 84.72-48.276 23.166-25.558-14.659 6.732-63.374 9.226-39.08z"/><path opacity=".16" fill-rule="evenodd" clip-rule="evenodd" fill="#2b2b2b" d="M255.477 182.984l-43.605 17.529h-26.954l-21.666-7.619 12.97-11.192 57.372-13.083z"/><path fill-rule="evenodd" clip-rule="evenodd" fill="#a0cf7e" d="M241.023 142.125l10.085 14.272 4.369 26.587-20.781-4.104-22.824 21.633 16.878-40.144zM184.918 200.513l-9.756-14.005-11.91 6.386 14.847-30.808 16.313 4.581z"/><path fill-rule="evenodd" clip-rule="evenodd" fill="#ffeee9" d="M132.784 32.839l-2.447 32.491-2.861 48.992 10.131 25.567 29.809 3.862 27.556 22.779-2.606 28.008 17.385 7.35 39.976-116.393-1.432-13.444-15.713-37.717-64.793.74z"/><path fill-rule="evenodd" clip-rule="evenodd" fill="#efd0cb" d="M232.582 34.334L216.036 131.7l-15.808 17.062-32.812-5.011 14.43 15.217 4.934 18.019-1.862 23.526 12.661 12.324 14.292-12.323 29.152-58.389 8.951-18.933-.247-9.92 7.438-4.497 11.983-23.28-20.853-13.444zM197.579 69.81l-35.004 30.249-23.46-35.104 10.799-6.723 13.406 3.733v3.364l10.799 1.12z"/><path fill-rule="evenodd" clip-rule="evenodd" fill="#fff5f3" d="M174.119 66.449l-9.589 19.419-1.955 14.191-10.613-1.307 1.118-12.902 10.24-20.521z"/><path fill-rule="evenodd" clip-rule="evenodd" fill="#cea39f" d="M225.135 150.626l-57.719-6.875 19.364 33.236zM257.165 108.775l-14.177-4.422 6.987 18.838zM249.727 98.752l3.315-11.484 7.541 1.961zM151.962 98.752l4.748 5.601 5.865-4.294zM143.305 108.435l17.315 3.716 45.307-6.871-11.932 17.558-40.636.474z"/><path fill-rule="evenodd" clip-rule="evenodd" fill="#fff" d="M148.611 112.636l12.102 1.987 39.592-5.848-7.381 11.729-38.076.467z"/><path fill-rule="evenodd" clip-rule="evenodd" fill="#efd0cb" d="M177.246 98.752l36.299 8.262-2.933-8.262zM194.225 78.727l4.515-1.4 6.004 1.4-7.68 1.4z"/><ellipse cx="150.102" cy="72.238" rx="3.724" ry="3.734" fill-rule="evenodd" clip-rule="evenodd" fill="#2b2b2b"/><path fill-rule="evenodd" clip-rule="evenodd" fill="#2b2b2b" d="M176.275 76.532l6.661-1.867 7.287 3.361-.706 2.101-6.464-2.101-6.582.701z"/><path fill-rule="evenodd" clip-rule="evenodd" fill="#74665b" d="M209.835 37.049l22.747-2.715 13.106.747 20.667-5.229L203.002.724l-8.777 22.275z"/><path fill-rule="evenodd" clip-rule="evenodd" fill="#a0a0a0" d="M258.349 57.487l4.542 11.016 6.257 16.992-20.853-5.229-5.307 17.365-9.821-4.621 7.447-27.681z"/><path fill-rule="evenodd" clip-rule="evenodd" fill="#74665b" d="M235.294 44.938l11.511-5.003 20.381 6.484.95 18.91-25.148-5.322z"/><path fill-rule="evenodd" clip-rule="evenodd" fill="#848484" d="M235.294 44.938l32.842 20.391 1.012 20.166-28.534-20.166z"/><path fill-rule="evenodd" clip-rule="evenodd" fill="#5e5044" d="M192.459 39.124l-6.051-20.237-16.041-14.692-23.989 8.853-25.881 23.526 31.465-10.826 18.061 16.054z"/><path fill-rule="evenodd" clip-rule="evenodd" fill="#46382d" d="M170.023 41.802l-36.121-7.842-3.565 31.37-9.84-28.756 21.225-16.65 10.24 1.339z"/><path fill-rule="evenodd" clip-rule="evenodd" fill="#8e7e73" d="M170.367 4.195l-18.405 17.068-31.465 15.311 22.808-29.501zM170.367 4.195l22.092 34.929 17.376-2.075L203.002.724z"/><path fill-rule="evenodd" clip-rule="evenodd" fill="#74665b" d="M197.579 69.81v-4.481l-23.46 1.12-2.858 5.789zM163.32 61.965l1.303-5.976-14.521-.93-10.987 6.722v3.174l10.799-5.602z"/><path fill-rule="evenodd" clip-rule="evenodd" fill="#99c26d" d="M203.256 226.106l6.102-4.405 3.414 5.868-4.727 3.352zM201.286 243.89l5.598-3.12 3.111 5.614-5.345 2.861zM199.31 262.753l4.832-3.114 3.877 5.608-6.105 3.636z"/><path fill-rule="evenodd" clip-rule="evenodd" fill="#5e5044" d="M266.355 29.852l.831 16.567-31.892-1.481-2.712-10.604z"/><path fill-rule="evenodd" clip-rule="evenodd" fill="#efd0cb" d="M293.779 165.492l-6.074 55.885 8.587 4.798 12.088 1.01 19.238-55.375z"/><path fill-rule="evenodd" clip-rule="evenodd" fill="#ffeee9" d="M287.705 221.377l-9.911 20.305 13.153 7.549 13.951-1.305 3.482-20.741z"/><path fill-rule="evenodd" clip-rule="evenodd" fill="#cea39f" d="M304.898 247.926l-5.254 9.955-23.56-1.655 1.71-14.544zM108.555 209.296l-14.717-4.217 5.176-25.854 12.639 19.35z"/><path fill-rule="evenodd" clip-rule="evenodd" fill="#666" d="M93.838 222.965l16.42-45.92h-16.42l-8.796 43.614z"/><path fill-rule="evenodd" clip-rule="evenodd" fill="#565656" d="M93.838 177.045l-3.001-18.409 16.34 3.204 13.135 6.001-10.054 9.204z"/><path fill-rule="evenodd" clip-rule="evenodd" fill="#848484" d="M90.837 158.636l13.714-15.327 14.098 4.307 1.663 20.225z"/><path fill-rule="evenodd" clip-rule="evenodd" fill="#efd0cb" d="M93.838 205.079l-15.951-6.504 7.976-24.818 17.923 2.584z"/><path fill-rule="evenodd" clip-rule="evenodd" fill="#efd0cb" d="M111.653 198.575l-11.305-12.303 3.438-9.931 6.472.704 3.749 13.384z"/><path fill-rule="evenodd" clip-rule="evenodd" fill="#ffeee9" d="M110.258 177.045l-14.609-1.877-4.812 12.29 7.219 5.436z"/><path fill-rule="evenodd" clip-rule="evenodd" fill="#efd0cb" d="M151.962 98.752h-7.7l-.957 9.683z"/></svg>