<svg xmlns="http://www.w3.org/2000/svg" viewBox="-152 -152 400 400"><path fill="#eaeceb" d="M-10.843 98.127l.706 6.713 5.066 16.02 18.26-10.601L2.586 96.357z"/><path fill="#699b47" d="M-3.421 73.384l-12.252 11.312 5.536 20.144 8.365-2.005 13.194-14.02-1.06-20.61z"/><path fill="#3d5f2d" d="M26.5 24.026L4.235 20.023l-19.908 64.673 16.729-4.594 14.725-30.748z"/><path fill="#2c2b2b" fill-opacity=".102" d="M-45.83 235.957l97.186 10.95 90.476-10.95-90.476-5.893z"/><path fill="#507033" d="M6.945 224.057l-24.739 6.948.118 6.007 31.218.357 5.301-3.3 4.124 3.3 9.542-.357-.59-5.885z"/><path fill="#699b47" d="M14.013 210.979l-5.536 2.24-26.271 17.786 49.713.122-.471-13.431z"/><path fill="#308b69" d="M17.546 152.313L2.35 171.519l6.127 41.7 22.971 4.477 7.225-37.698z"/><path fill="#33a079" d="M7.769 96.239H2.586l-7.657 24.621 7.421 50.659 36.323 8.479 6.818-35.576z"/><path fill="#507033" d="M69.146 232.893l-9.189 1.765.235 5.772h40.524l-.471-5.655-3.652-1.765z"/><path fill="#699b47" d="M76.448 214.043L69.5 215.46l-9.543 19.198 40.288.117-6.124-15.667z"/><path fill="#308b69" d="M76.919 146.662l-19.908 33.336L69.5 215.46l24.621 3.648 2.472-51.894z"/><path fill="#3d5f2d" d="M85.519 144.422l12.137-.118 18.491-14.726-3.652-16.49-37.577 18.727z"/><path d="M91.174 150.664l6.482-6.36.706-14.961s-5.894-5.065-6.953-3.652c-1.06 1.416-8.714 15.671-8.714 15.671l8.479 9.302z" fill="#207455"/><path fill="#33a079" d="M32.33 120.21l11.559 19.264 13.122 40.524 39.582-12.784.648-23.561-4.717-4.83-2.354-8.953-8.247-22.498-28.624-6.008z"/><path fill="#2e8061" d="M5.532 104.369l6.372 24.039 33.587 16.014L55 134.083l2.011-14.988-27.33-25.092z"/><path d="M38.164 85.99c0-2.118-8.954 15.433-8.954 15.433l-17.306 26.985-16.975-7.666 6.127-40.759 7.068-4.947 26.859 1.53s3.063 9.071 3.18 9.307v.117z" fill="#426b33"/><path fill="#3d5f2d" d="M77.978 117.918h-5.536L55 134.083 29.092 101.54l1.414-17.668-2.945-9.189 3.063-20.144 55.249-19.085 12.603 23.44 3.774 29.921-16.731 25.92z"/><path fill="#e2c6c3" d="M87.054 114.971l-8.483-1.177-6.129 4.124 20.497 21.556 5.423-10.131z"/><path fill="#eaeceb" d="M94.944 100.245l-9.306 3.771-7.067 9.778 19.791 15.549 7.067-8.012z"/><path d="M107.315 72.329c-1.299.584-8.718 12.014-8.718 12.014l-12.96 19.673 19.791 17.315 30.745-35.929-31.099-14.255 2.354 1.295-.113-.113z" fill="#5a7f39"/><path fill="#507033" d="M107.194 75.153l-8.596 9.19-68.092-.471-8.13-11.307 7.422-24.388 56.075-12.723z"/><path fill="#426b33" d="M81.749 36.043l.711 6.007 7.302 10.601 18.26-1.53 14.49-30.981-28.98-17.672z"/><path fill="#5a7f39" d="M5.177 40.284L1.056 80.102l29.45 3.77 1.295-20.026-4.121-31.339-12.725-7.419z"/><path fill="#426b33" d="M25.441 15.545l3.298-9.071L4.235 20.023l.942 20.261 4.477-1.767 18.026-6.01z"/><path fill="#98c166" d="M53.244 14.131L31.801 63.846 82.46 42.05 93.532 2.468z"/><path fill="#98c166" d="M32.98 8.948l-4.241-2.474L9.654 38.517l22.147 25.329 5.656-48.301z"/><path fill="#dddddc" d="M33.922 17.546l-4.948 3.889 2.827 42.411L61.37 24.262l-9.543-9.187z"/><path fill="#b5c436" d="M47.706-2.244l-2.945 19.555 8.954 3.535 14.49-4.123 7.066-10.602-11.077-10.72z"/><path fill="#9da938" d="M44.761 17.311l8.361 9.778 8.248-2.827 6.835-7.539z"/><path fill="#b5c436" d="M38.517-2.126l-9.778 8.6.117 9.071 6.01 4.713 9.895-2.947L47.588 5.06z"/><path fill="#9da938" d="M28.856 15.545l.118 5.89 6.362 3.771 9.425-7.895z"/><path fill="#eaeceb" d="M68.911-4.954l-.941 9.425.235 12.252L93.532 2.468l-7.305-7.775z"/><path fill="#c3a39f" d="M89.879-48.54l1.884 8.717-5.536 34.516L67.97 4.471 44.997-15.084 12.599-130.177l49.477-19.791 22.031 31.69 4.124 55.131z"/><path d="M49.353-23.095l16.729 9.425 9.071-1.179-30.274 32.16-20.97-38.756s26.741-.943 25.444-1.65zM83.044-62.794l-4.83 5.654 13.549 17.317 2.358-14.608z" fill="#9e7f79"/><path fill="#393939" d="M63.959-136.421l38.405 7.303-4.359 44.648-5.414 3.888-17.084-.235-2.123-31.101-16.609-21.559zM-2.127-143.137l-13.311 3.771-2.474 15.903-2.238 19.79.709 11.428 14.252-26.859z"/><path fill="#686b6d" d="M49.353-143.843l-31.569-7.186-33.222 11.663 3.889 9.307 32.513 13.664z"/><path fill="#444648" d="M29.798-122.167l1.886-4.477-13.9-24.385 47.592.235 36.988 21.676-45.589-4.359z"/><path fill="#e2c6c3" d="M-11.549-130.059l-7.892 37.814 5.3 53.6L8.477-6.837l5.654-2.592 36.755-4.359 4.712 1.766 10.367-1.648.352-89.412-9.542-30.395z"/><path fill="#444648" d="M18.137-31.695l-1.767 1.179 10.483 3.533 10.014-6.007-3.887-1.059z"/><path fill="#c3a39f" d="M-4.599-94.836l-8.365 4.947L2.232-78.697l10.131 14.253 7.657-6.007 6.951 10.131 12.96-24.621 12.131-8.836-4.356-4.475-3.3-1.297-8.246 3.533-4.83 3.653-10.602 6.125-4.83 6.598-2.709-6.362L4-88.712 1.291-93.66z"/><path fill="#9e7f79" d="M5.297-51.013l-1.768 3.298L16.37-30.516l20.497-2.474 8.13-18.732-8.955-2.473z"/><path d="M8.477-6.837l47.121-5.185-7.656-43.351-24.386-2.121-5.772.353-18.143 6.48L8.359-6.956l.118.119zm-4.948-40.29l19.791-1.059 21.676-3.535 1.413 25.447-33.692 5.537-9.07-26.271-.118-.119z" fill="#444648"/><path fill="#9e7f79" d="M13.895-63.736l-4.83 6.243 10.367 5.183 8.01-6.951z"/><path d="M29.798-96.251l14.49-4.948 9.069 5.773-1.295 1.766-7.892-4.004-12.84 5.536s-1.412-4.006-1.532-4.006v-.117zM6.356-91.774l-9.307-4.477-11.19 4.948 1.177 1.414 9.072-3.18L4-88.712z" fill="#444648"/><path fill="#eedcda" d="M13.189-86.002L9.065-57.493l18.377-1.768-6.714-26.977z"/><path fill="#c3a39f" d="M-4.718-40.176l-1.884-9.307 5.654-1.765zM55.127-46.539l.942-10.601-6.951-1.059z"/><path fill="#fff" d="M9.772-44.771l4.006 4.948 7.421 2.239 14.961-4.595 2.71-5.536-16.376 2.473z"/><path fill="#705e5a" d="M13.778-39.823l3.888 4.712 15.785-1.767 2.709-5.301z"/><path fill="#e2c6c3" d="M79.748-86.944l18.257 2.474-1.291 10.131-2.593 19.908-15.907-2.709z"/><path fill="#eaeceb" d="M88.231-63.147l-2.358 2.121 1.652 3.062 2.472-2.121z"/><path fill="#9e7f79" d="M84.461-67.271l.941-13.429 6.953 1.178z"/><path fill="#3d5f2d" d="M89.762 52.651l32.75-32.511 13.545 65.262-37.459-1.059z"/><path d="M.229-83.409c2.212 0 4.006 1.792 4.006 4.004 0 2.212-1.794 4.006-4.006 4.006s-4.004-1.794-4.004-4.006c.001-2.212 1.793-4.004 4.004-4.004zM39.576-87.886c2.212 0 4.006 1.792 4.006 4.004 0 2.212-1.794 4.006-4.006 4.006s-4.004-1.794-4.004-4.006 1.792-4.004 4.004-4.004z" fill="#2b2b2b"/><path fill="none" d="M-151.5-151.5h399v399h-399z"/></svg>