<svg xmlns="http://www.w3.org/2000/svg" viewBox="0 0 400 400"><path fill="#eecec9" d="M285.05 190.813l-3.287-8.033 11.315-17.882 5.354 1.703-2.434 13.019z"/><path fill="#feeee9" d="M279.692 195.436l8.033 3.895 22.145-10.707.605-8.395-11.071-1.463-17.641 4.014z"/><path fill="#eecec9" d="M121.402 202.979l-.367-8.638-16.302-14.358-2.924 3.165 5.235 12.655z"/><path fill="#2c2b2b" fill-opacity=".102" d="M119.209 384.874l80.06-5.718 75.437 5.963-80.182 15.093z"/><path fill="#317e60" d="M227.862 376.968l-13.385 10.83v4.745l32.852-.245v-4.868zM147.803 375.506l-9.249 3.773v4.378h45.63v-4.501z"/><path fill="#308b69" d="M174.935 352.874l-14.236 9.009-22.145 17.396 45.63-.123-.123-14.112zM223.726 357.505l-3.042 8.151-6.207 22.142 32.852-.368-4.014-19.217z"/><path fill="#507033" d="M217.4 319.421l-6.574 15.453 9.858 30.782 22.754 3.651 1.821-35.651zM177.609 307.497l-17.396 23.726.486 30.66 23.362 3.161 7.906-32.481z"/><path fill="#699b47" d="M177.369 255.178l-17.883 23.847.727 52.198 31.754 1.34 11.925-49.527z"/><path fill="#699b47" d="M198.661 272.818l1.216 28.104 10.949 33.952 34.433-1.218 2.802-55.724-9.491-19.716z"/><path d="M174.694 267.224l-15.33 11.802 40.514 21.897 48.183-22.99s-23.604-2.189-40.641-.973c.854-3.168 1.462-5.603 1.34-5.962-.609-1.585-34.066-3.774-34.066-3.774z" fill="#567f3c"/><path fill="#3a592a" d="M171.77 248.121l-12.897 14.357 34.312 19.341 33.46-13.018 11.925-10.585zM166.906 225.734l-10.466-4.385-17.396-13.019 22.386-41.488 20.198 26.891z"/><path fill="#feeee9" d="M123.591 205.781l-13.264 1.454-20.32-3.648-.118-6.934 9.731-2.434 21.415.122z"/><path fill="#eecec9" d="M90.007 203.587l-13.259-13.26 3.65-7.424 19.222 11.316zM121.035 194.341l41.489 22.63-5.108 23.97-47.089-33.706z"/><path fill="#507033" d="M168.609 187.77l-13.386 14.967 4.263 76.288 34.915 6.323 11.802-87.233-19.463-9.491z"/><path fill="#4c6733" d="M194.401 285.348l36.259-4.983 17.401-2.433 1.58-52.81 9.25-29.078-9.981-30.419-30.66 24.457-13.868 7.179-11.197 8.153z"/><path fill="#3a592a" d="M248.91 165.625l28.838 40.034-28.107 19.463z"/><path fill="#9d8d56" d="M160.821 135.574l-2.551 6.325 3.16 24.943 66.31 6.816-40.273-49.032z"/><path fill="#699b47" d="M179.316 165.993l-7.91-6.934-9.976 7.783-6.207 35.895 37.962 2.677 17.4-9.978-21.778-28.226.849-2.92 3.406-4.746z"/><path fill="#628c46" d="M193.185 205.414l56.214 2.312-.489-42.101-7.056-20.193-15.576-1.462-33.216 15.574-3.406 4.746-.849 2.92 4.255 18.372z"/><path fill="#eaeceb" d="M182.354 150.781l-10.948 8.278 21.656 26.523 8.033-15.698-7.421-9.245z"/><path fill="#e0e2e2" d="M193.062 185.582l49.4-46.357-25.915-7.665-12.777 3.65-11.19 22.632.363 17.882z"/><path fill="#cea19c" d="M213.872 145.917l-21.051 25.793-22.632-36.5 53.901-1.094z"/><path fill="#feeee9" d="M215.693 79.848l.613 20.806 22.75 5.599-1.702-24.943z"/><path fill="#cea19c" d="M235.405 105.277l-5.231-9.49-10.707-.972-4.137 21.047 22.387 10.707z"/><path fill="#eecec9" d="M193.674 118.419l.364 23.117 16.547-.486-17.764 30.66 33.457-27.74 7.424-35.891-14.235-13.264.73-16.669-17.522-11.802z"/><path fill="#9d8d56" d="M252.074 87.272l3.892 30.416-7.056 47.937-10.585-10.099-11.802-11.311 4.868-65.338z"/><path fill="#c1b170" d="M216.547 49.188l-8.637 27.618 48.056 40.882.853-49.642z"/><path fill="#e1ce7f" d="M188.929 8.552l41 2.43 26.89 57.064-48.909 8.76-57.673-34.311z"/><path fill="#e1ce7f" d="M182.6 6.118l.853-6.329-28.108 1.947-30.66 21.415 22.632 22.632z"/><path fill="#fff7ae" d="M155.713 41.156l1.821-10.703L183.453-.211l46.476 11.193-54.018 23.485z"/><path fill="#c1b170" d="M143.421 50.891l-26.642 12.17 7.906-39.91 32.849 7.302z"/><path fill="#9d8d56" d="M143.421 46.391l-13.623 2.434-13.019 14.236 23.237 32.362z"/><path fill="#feeee9" d="M129.798 48.825l6.081 59.494 14.966 33.702 43.193-.485 13.872-34.188V76.806L184.425 47l-8.76-8.642-18.131-7.905z"/><path fill="#eecec9" d="M184.425 47l-8.514-12.533-18.377-4.014zM145.006 69.141l-9.613 4.868 13.141 8.273 10.095 16.915 4.99-3.896 4.141 8.151 12.284-23.118 16.064-8.882-10.103-5.353-15.57 5.235-4.627 8.028-2.916 12.288-1.948-12.288-4.259-7.301z"/><path fill="#6fc5a3" d="M161.797 116.593l-12.9.122 16.184 8.396 17.519-9.613z"/><path fill="#cea19c" d="M161.553 98.221l-3.406 5.598 5.472 3.892 4.141-4.259z"/><path fill="#c1b170" d="M156.685 72.061l-13.505-5.962-7.787 7.91 8.881-3.774zM170.435 71.334l16.91-7.061 8.763 7.179-10.221-2.552z"/><path fill="#fff5f3" d="M160.944 79.362l-2.797 24.457 9.613-.367-1.952-24.09z"/><path fill="#308b69" d="M149.143 116.715l6.202-.122 8.886-1.34 11.557.609 6.812-.364-18.25 4.746z"/><path d="M201.703 188.624v7.665l1.825.364.241-8.029h-2.066zm3.16.727l.123 7.057 1.829.123-.245-3.651 1.825 3.896 1.826.122-.123-7.301-1.825-.245.122 3.651-1.462-3.528-2.07-.241v.117zm7.061.609l-.363 6.938 1.821.241.123-4.014.489 2.679 1.699.119.612-2.312v3.896l1.944.241-.486-7.42-2.07-.122-.972 2.92-.972-3.165h-2.189.364zm9.731-.119l-2.188 7.42 1.703.363 1.339-5.354 1.336 5.354 1.951-.363-2.311-7.302-1.707-.118h-.123zm6.694 2.675l-2.675.245-.122-1.825h6.934v1.703l-2.312-.123.123 6.207-1.826-.368-.122-5.839zm5.476-1.826l-.123 7.91 4.745.363v-2.066l-2.92-.245v-1.095l2.675.245v-1.707l-2.675-.241v-1.095l3.165.241v-2.066l-4.867-.368v.124z" fill="#3a592a"/><path fill="#eecec9" d="M249.641 225.122l20.32 17.404 17.764-43.195-5.962-16.551z"/><circle cx="149.02" cy="81.551" r="4.137" fill="#2b2b2b"/><path d="M178.949 76.565c2.287 0 4.141 1.85 4.141 4.137 0 2.283-1.854 4.137-4.141 4.137-2.283 0-4.132-1.854-4.132-4.137-.001-2.287 1.849-4.137 4.132-4.137z" fill="#2b2b2b"/><path fill="#eecec9" d="M178.708 86.664l7.542 4.137-6.206.726zM151.572 87.272l-6.08 5.717h5.716zM309.87 188.624l13.382-9.127-3.287-8.395-20.561 7.664z"/></svg>