<svg xmlns="http://www.w3.org/2000/svg" viewBox="0 0 400 400"><path fill="#f2d6d3" d="M151.172 155.238l3.226-5.989-5.386-.925-13.424 1.428z"/><path fill="#d5aaa2" d="M166.565 176.028l-1.241-9.173-2.219-8.11-25.687 6.453 14.559 13.711 10.537 9.094z"/><path opacity=".1" fill="#34302d" d="M172.136 383.46L247.714 400l62.942-16.627-66.294-7.395z"/><path fill="#51682c" d="M240.87 386.885l23.409-6.617 13.357 6.617v5.26H240.87zM200.674 375.978l37.007-6.619 13.358 6.619v5.26h-50.365z"/><path fill="#55712c" d="M229.463 351.468l-2.082 5.76-26.707 18.75h51.839l-2.337-19.117z"/><path fill="#738941" d="M256.425 356.37l-9.437 7.967-6.118 22.548h36.766l-4.421-14.46z"/><path fill="#3d8d69" d="M220.763 311.148l-5.392 9.805 12.01 36.275 19.607 7.109 8.696-41.97z"/><path fill="#56ad86" d="M200.91 263.109l-3.246 7.602 17.707 50.242 23.531 5.884 2.695-34.071-26.685-29.012z"/><path fill="#387759" d="M244.293 311.148l-5.391 15.689 8.086 37.5 26.227 8.088 3.431-55.639z"/><path fill="#3d8d69" d="M230.568 274.139l-1.717 12.502 10.051 40.196 37.744-10.051 2.758-31.003-4.719-33.459z"/><path fill="#387759" d="M247.725 257.473l-6.433 23.222-12.441 5.946-12.683-8.028-2.512-29.72z"/><path d="M128.627 194.25l4.012-5.826 16.931-11.711-.557-28.388-27.653-.771-3.826 35.46 11.093 11.236zm9.485-22.582l-.227 3.763-8.972 3.821-.282-11.515 9.339-9.918.142 13.849z" fill="#3d8d69"/><path fill="#f2d6d3" d="M128.832 155.861l20.332.195.284 14.324-11.563 5.051-4.969-14.746-4.025 17.279-4.617-12.645z"/><path fill="#56ad86" d="M112.686 141.519l23.524.066-4.35 57.062-19.174.239-4.503-39.242z"/><path fill="#80c5a4" d="M89.345 141.453l23.341.066v57.367l-19.73.247z"/><path fill="#f0f2f2" d="M163.24 192.469l-5.882-.981-5.381-12.579 13.347-12.054 6.496 9.313z"/><path d="M213.902 154.102l-4.842-1.654-32.047 37.01 2.696 18.627 16.483 4.964s28.645-35.677 26.899-35.602c-1.744.076-9.189-23.345-9.189-23.345z" fill="#4a6428"/><path fill="#5e7736" d="M205.995 208.516l-9.802 4.533 1.471 57.662 18.504 7.902 10.295-17.034 7.265-43.869z"/><path fill="#4a6428" d="M241.657 214.273l-18.38 7.968 3.186 39.338 14.829 19.116 19.747-13.215 18.733-9.945 16.545-39.342-23.408-15.683z"/><path fill="#fef4f1" d="M275.009 255.286l-5.407 1.579-8.563 10.615 18.365 18.303 7.078-14.654z"/><path fill="#f2d6d3" d="M283.892 276.488l2.59-5.359-8.767-12.107-8.113-2.157z"/><path fill="#f0f2f2" d="M283.326 234.923l-9.559 10.664-4.165 11.278 16.88 14.264 5.053-11.205z"/><path fill="#798f50" d="M292.272 213.479l-12.745-.737-5.76 32.845 17.768 14.337 18.385-40.195z"/><path fill="#5e7736" d="M230.569 196.566l-7.292 25.675 56.25-9.499 13.726-36.888-5.76-17.891-18.28-11.237z"/><path d="M216.291 170.402c1.651.055 3.297-23.401 3.297-23.401l-10.527 5.447-12.867 60.601 27.084 9.192-6.987-51.839z" fill="#798f50"/><path d="M220.824 156.676c-.658.039 25.858-4.168 25.858-4.168l9.927 31.741-26.471 22.304-12.992-12.255.982-29.412 2.696-8.21z" fill="#e5e4e4"/><path fill="#3d8d69" d="M235.286 170.892l-5.025 7.904-10.906 19.179 3.922 24.266 18.504-22.673-3.37-20.159z"/><path d="M228.758 181.439l-4.311 7.579 14.598 13.902 2.735-3.352-1.227-7.333-11.795-10.796zm-9.249 17.5c3.374 3.219 9.777 9.334 12.794 12.243l-9.026 11.061-3.768-23.304z" fill="#387759"/><path fill="#a3c25e" d="M251.218 164.151l-1.899 12.868-26.042 45.222 45.834-37.868 1.148-37.004z"/><path fill="#a3c25e" d="M225.604 158.637l-4.411 15.319 2.084 48.285-17.648-38.972L219.587 147z"/><path fill="#387759" d="M225.789 164.642l4.472 14.154 8.15.613 10.417-16.176-17.219-9.56z"/><path fill="#387759" d="M227.702 163.416l1.768 3.484 11.126 9.117 5.2-8.076-3.961-6.862-10.263-4.442-2.705 2.201z"/><path fill="#f0f2f2" d="M230.629 149.568l5.085 12.01 13.605 15.441 20.94-29.65-2.805-1.723z"/><path fill="#f0f2f2" d="M219.415 144.114l1.778 29.842 14.521-12.378-4.595-16.054z"/><path fill="#d5aaa2" d="M203.98 132.893l31.734 28.685 24.095-10.177 8.947-10.085-.725-17.718z"/><path d="M275.09 95.676l1.239 11.308-6.928 40.385-11.138 4.684 2.536-20.555-8.541 1.249-43.301-93.919s29.985-26.626 31.694-22.199c1.708 4.429 32.523 39.397 32.523 39.397l1.916 39.65z" fill="#f3d8d4"/><path fill="#d5aaa2" d="M265.179 91.5l11.15 15.484 2.794-15.484z"/><path fill="#302317" d="M265.829 28.939l20.356 10.603-3.854 32.46-10.706 6.1h-11.173l-.286-22.875z"/><path fill="#3d2e1e" d="M235.986 23.275l7.857 9.403 16.323 22.549 26.019-15.685-21.683-26.179z"/><path fill="#302317" d="M166.504 30.972l-10.56 14.234 11.683 26.252 22.387-25.062z"/><path fill="#4f3d2f" d="M159.056 27.16l40.863-25.127L254.402 0l10.1 13.363-20.659 19.315-51.564 2.001z"/><path fill="#3d2e1e" d="M172.83 43.572l-5.203-2.179-8.571-14.233 84.787 5.518-51.577 14.089z"/><path fill="#fef4f1" d="M167.627 41.393v30.065l7.677 46.307 14.678 20.153 62.278-5.17-8.417-100.07-49.432 8.715z"/><path fill="#d4aba5" d="M191.782 113.7l19.639-1.705 13.577-5.211-12.361 8.317z"/><path fill="#f2d6d3" d="M183.543 66.519l-9.776 4.279 12.364 7.304 13.686 15.265 9.142 4.198 14.679-24.331 12.348-7.151-12.579-4.024-12.391 9.844-4.832 5.145-1.979 5.665-3.535-5.385-5.307-5.11-8.224-5.337z"/><path fill="#d5aaa2" d="M204.356 91.718l-4.794 6.456 4.86 3.326 4.537-3.935z"/><path fill="#fef8f8" d="M200.67 77.328l-1.108 20.846 9.397-.609-2.775-20.517z"/><path fill="#302317" d="M197.54 74.314l-1.352-6.594-12.345-3.368-9.626 3.517-.45 2.929 9.956-3.594zM210.509 66.939l12.481-6.105 12 2.538.996 2.711-12.421-2.47-13.621 9.432z"/><path fill="#f3d8d4" d="M187.905 56.207l13.017.14 17.132-5.368-16.834 7.771z"/><path fill="#f3d8d4" d="M182.701 51.777l15.841 2.687 8.34-3.485-8.81 1.263zM192.445 109.613l-6.1 7.646.643-8.165zM224.572 103.264l9.06 5.661-2.287-6.715z"/><path fill="#fef4f1" d="M265.179 91.5l1.701-20.37 15.451.872-3.208 19.498z"/><path fill="#d4aba5" d="M270.293 74.852l-1.426 12.759L279.123 75.5z"/><path fill="#4a6428" d="M279.527 212.742l7.966-54.779 5.76 3.184 16.667 58.582z"/><path fill="#798f50" d="M170.885 226.959l25.308-13.91-24.373-36.881-14.462 15.32z"/><path fill="#f0f2f2" d="M96.76 87.764l-3.93 12.358 5.336 5.478-.14 7.863 4.213-11.936-5.197-4.213zM106.311 103.634l-5.056 13.621 6.32 8.005.282 15.729 5.476-19.099-6.32-7.723zM116.268 94.453l-3.512 15.307 6.881 8.285-1.965 8.989 1.263 14.043 2.106-15.027 3.231-10.252-8.004-10.532z"/><path d="M92.491 147.856l1.59 11.338 1.831.11.801-4.376.762 4.376h1.409l2.175-12.092h-1.974l-.902 7.032-.509-3.604-1.61-.34-.807 3.856-.813-7.201-1.953.901zm8.754 6.398l1.091-5.334 2.25-1.848 2.087.864 1.241 4.419-.506 5.638-2.841 1.983-2.611-1.547-.711-4.175zm4.319-2.565l-1.868.362.026 3.736 1.894-.091-.052-4.007zm2.733-5.593l-.114 13.548 1.711.088.16-2.833 2.3 3.004 2.407.256-3.263-5.659 1.164-6.092-4.365-2.312zm1.863 5.575l.106-1.972 1.123.468-1.229 1.504zm5.602-4.448v9.848l2.567-.512-.054 3.173-3.857-.167-.687-12.524 2.031.182zm2.68 12.853l1.157-14.324 3.521 3.604-.32 4.416-4.358 6.304zm2.467-10.292l-.329 3.943 1.256-2.143-.927-1.8zm3.081-1.566l-.033-1.786.757-.798.829.629.043 2.169-.689 2.016-.749-.6.535-1.204-.693-.426zm1.878 9.99l.887-3.194 3.291 1.339-.986-2.005-2.43-3.033.664-3.811 4.681-.443-.634 3.044-2.38-.476.168 1.617 1.879 1.373 1.088 2.507-1.165 3.65-5.063-.568zm-24.76 18.995l-.374-13.699 4.492.883-.908 4.561 1.899 3.377-5.109 4.878zm1.125-11.275l.054 1.845 1.279-1.647-1.333-.198zm.319 5.36l.16 2.228 1.419-1.544-1.579-.684zm3.938-7.665l-.174 12.875 4.612.106.047-3.345h-2.814v-1.716l2.56.084.054-2.744h-2.613v-1.8l3.074.087-.006-3.453-4.74-.094zm4.839 11.631l.887-3.194 3.291 1.339-.986-2.005-2.43-3.033.664-3.813 4.681-.442-.634 3.044-2.38-.476.168 1.618 1.879 1.372 1.088 2.506-1.165 3.652-5.063-.568zm8.723-8.042l.104 9.486 1.761.333-.106-9.988 2.285-.162.045-2.81-6.782.911.106 2.882 2.587-.652zm-19.656 27.037l-.374-13.699 4.492.882-.908 4.562 1.899 3.377-5.109 4.878zm1.125-11.277l.053 1.844 1.278-1.646-1.331-.198zm.319 5.36l.16 2.228 1.419-1.543-1.579-.685zm3.71.011l1.091-5.335 2.249-1.848 2.088.863 1.24 4.419-.506 5.638-2.839 1.982-2.612-1.548-.711-4.171zm4.318-2.565l-1.868.363.026 3.736 1.895-.092-.053-4.007zm2.567 6.521l.888-3.194 3.29 1.339-.985-2.005-2.431-3.033.664-3.813 4.683-.442-.634 3.044-2.382-.477.168 1.619 1.881 1.371 1.088 2.507-1.166 3.651-5.064-.567zm6.135 0l5.063.568 1.166-3.651-1.089-2.507-1.88-1.371-.168-1.619 2.381.477.634-3.044-4.682.442-.663 3.813 2.429 3.033.986 2.005-3.289-1.339-.888 3.193z" fill="#3d8d69"/><path d="M112.686 192.326v-.931l.637-2.292 3.29 1.339-.985-2.004-2.431-3.033.664-3.813 4.683-.442-.634 3.044-2.382-.477.168 1.619 1.881 1.371 1.088 2.507-1.166 3.651-4.813-.539zm0-16.92v-3.154l2.821 1.147-.986-2.005-1.835-2.291v-4.16l.069-.395 4.681-.442-.634 3.044-2.38-.476.168 1.618 1.879 1.372 1.088 2.506-1.165 3.652-3.706-.416zm0-15.468v-3.378l2.075 3.598-2.075-.22zm3.076-12.715l-2.031-.183.687 12.524 3.857.167.054-3.173-2.567.512v-9.847zm2.68 12.853l1.157-14.324 3.521 3.604-.32 4.416-4.358 6.304zm2.467-10.292l-.329 3.943 1.256-2.143-.927-1.8zm3.081-1.566l-.033-1.786.757-.798.829.629.043 2.169-.689 2.016-.749-.6.535-1.204-.693-.426zm1.878 9.99l.887-3.194 3.291 1.339-.986-2.005-2.43-3.033.664-3.811 4.681-.443-.634 3.044-2.38-.476.168 1.617 1.879 1.373 1.088 2.507-1.165 3.65-5.063-.568zm-5.816 9.004l.104 9.486 1.761.333-.106-9.988 2.285-.162.045-2.81-6.782.911.106 2.882 2.587-.652zm-1.482 25.087l5.063.568 1.166-3.651-1.089-2.507-1.88-1.371-.168-1.619 2.381.477.634-3.044-4.682.442-.663 3.813 2.429 3.033.986 2.005-3.289-1.339-.888 3.193z" fill="#387759"/><path fill="#fef4f1" d="M163.105 158.745l-8.707-9.496-11.745 9.271 6.676 5.942z"/><path d="M223.638 69.125c2.392 0 4.331 1.84 4.331 4.109 0 2.27-1.939 4.109-4.331 4.109s-4.331-1.84-4.331-4.109 1.939-4.109 4.331-4.109zM187.024 73.235c2.393 0 4.331 1.84 4.331 4.109s-1.938 4.109-4.331 4.109c-2.392 0-4.331-1.84-4.331-4.109s1.939-4.109 4.331-4.109z" fill="#33302d"/></svg>