<svg xmlns="http://www.w3.org/2000/svg" viewBox="-152 -152 400 400"><path fill="#eecec9" d="M-47.362 50.297l-13.782 9.068-18.143-1.291-1.53-24.387 5.771-1.06 19.32 3.887zM140.887 68.676l10.37 12.721 17.786 4.241 8.247-18.85-4.716-6.713-19.555-2.123z"/><path fill="#507033" d="M-.124 167.744l1.18 21.325 14.725 11.073 16.256-8.832 4.005-15.789-14.019-23.793z"/><path fill="#6e884a" d="M1.762 110.259l-4.477 6.242 2.591 51.243 36.166 7.777 6.363-25.209-9.307-11.074-5.183-21.085z"/><path fill="#e6e976" d="M111.318 37.455l11.308 16.495-10.481 29.329-11.546 4.717L86.462 69.5l-3.889-29.686z"/><path fill="#b5c436" d="M98.946 6.71l.947 14.254 11.425 16.491-15.903 10.722L84.461 74.33z"/><path fill="#2c2b2b" fill-opacity=".102" d="M-58.317 230.892L49 224.409l100.369 10.249L43.7 246.907z"/><path fill="#317e60" d="M68.676 229.71l-6.129 3.653.122 4.948 40.994.118.235-4.948zM7.889 222.644l-29.807 8.248.12 4.237 48.534.121.235-5.065z"/><path fill="#207455" d="M93.061 193.075l2.119 19.316-12.955 6.953-13.907-8.243-4.124-9.783 8.606-10.244z"/><path fill="#308b69" d="M73.148 175.402l19.443 12.369.47 5.304-28.867 8.243-5.178-12.013zM95.18 212.391l8.718 21.09-41.351-.118 5.771-22.262z"/><path fill="#207455" d="M1.291 193.664l.941 15.078 9.543 9.778 14.725-5.183 3.062-12.367-18.022-8.484z"/><path fill="#308b69" d="M1.056 189.069l.235 4.595 28.271 7.306 2.475-9.66zM2.232 208.742l-24.15 22.15 48.889-.707-.471-16.848z"/><path fill="#507033" d="M52.416 173.755l6.6 15.55 33.575-1.534-1.771-26.505-24.032-8.597z"/><path fill="#6e884a" d="M16.487 128.049l25.918 22.263 10.011 23.443 38.404-12.489-2.589-39.817-72.45-8.596z"/><path fill="#393939" d="M11.775 97.185l-15.667 6.949 1.177 12.367L49 128.52l39.231-7.071.236-12.603z"/><path d="M13.307 15.545s-9.072 45-8.13 45.236c.944.235 59.252 2.707 59.252 2.707l.24-55.129-51.245 2.709-.118 4.595v-.118z" fill="#d8e14d"/><path d="M16.84 17.076l2.709.235 14.843 9.66 22.029-5.889s5.536-2.121 5.065-4.477c-.588-2.827-7.066-5.772-6.242-5.654 1.53.117-44.765-.589-44.765-.589l6.36 6.596v.118z" fill="#e6e976"/><path fill="#b5c436" d="M1.879 74.918l-6.597 20.026.826 9.19 21.203 1.059 14.843 2.943 5.303-1.884 51.01 2.594-.358-9.189-23.793-41.469-56.665-2.707z"/><path fill="#d8e14d" d="M-27.807 54.299l-14.019-15.665-13.9-2.12-5.418 22.851 18.965 8.718z"/><path fill="#b5c436" d="M-17.323 47.706l-8.245-6.009-16.258-3.063-.353 29.449 27.448 12.725 9.307-20.144z"/><path fill="#e6e976" d="M13.307 15.545L6.003 9.183l-31.571 32.514 10.837 39.111 11.545-8.479z"/><path fill="#b5c436" d="M13.307 15.545L6.003 9.183-6.131 21.67 5.415 44.523z"/><path d="M24.733 5.179l-10.838 2.59-7.892 1.414-8.483 52.423c3.653-1.06 7.539 4.595 10.839 3.417 3.769-1.299 6.833-9.189 6.833-9.189l5.183-46.886 4.358-3.769z" fill="#507033"/><path d="M-2.48 61.723l-2.239 33.222 17.672 2.354 2.238-41.465s-9.896 3.531-17.672 5.772v.117z" fill="#3a592a"/><path fill="#507033" d="M57.011 8.712l-2.355 49.005 23.087 29.216 14.848-21.44 7.302-44.529L95.18 1.879 74.683-8.016z"/><path fill="#3a592a" d="M85.638 7.416l8.243-2.356 6.012 15.904-43.471.118.353-6.48L71.03 1.409zM54.656 57.717l-2.475 39.232 35.928 2.708 4.482-34.164z"/><path fill="#686b6d" d="M17.311 105.193l10.604 12.96 9.542-11.901z"/><path fill="#3a592a" d="M19.55 17.429L6.003 9.183l7.304-4.004 6.596 8.952z"/><path fill="#1c140a" d="M3.294-104.967l-15.079-6.716-20.97 2.709 12.37 19.556 6.48 5.301zM120.625-29.692l10.366 1.061-31.098 49.595-6.596-12.605.824-40.76z"/><path fill="#281b0e" d="M85.99-13.552l14.373 4.006-7.066 17.905-16.139 8.952L71.03 1.409z"/><path fill="#2e2115" d="M96.004-18.382l4.359 8.836 30.628-19.085-4.83-14.019-32.04 10.249z"/><path fill="#3f362c" d="M63.488-9.664L71.03 1.409l29.333-10.955 7.188-19.909-33.461-1.179z"/><path fill="#251c11" d="M57.011-8.251V6.121L71.03 1.409l9.189-28.627-24.15 2.947z"/><path fill="#eecec9" d="M84.578-34.64l-4.359 7.422-18.021 4.123-.357-34.163 18.142 3.653z"/><path fill="#281b0e" d="M90.703-40.294l16.848 10.839 18.61-13.195 4.947-23.562-47.236 2.476z"/><path d="M82.338-60.32s-9.425 6.715-9.189 6.245c.235-.473 3.3 6.596 3.3 6.596l3.771 20.262 27.332-2.237-15.083-25.565-10.131-5.301z" fill="#2e2115"/><path d="M85.519-65.033L92.59-55.02l38.636-11.192-11.308-17.55s-25.563 2.001-26.509 2.001c-.941.118-7.772 16.729-7.772 16.729h-.118z" fill="#35291b"/><path fill="#554e4a" d="M73.741-62.912l1.883 9.778 16.845-1.885.828-20.145-23.915.707z"/><path fill="#cea19c" d="M62.198-55.373l14.25 8.011-.824-5.772L59.84-66.8z"/><path fill="#507033" d="M61.017-65.856l3.653 6.125 10.954 6.597 1.884-18.732L63.61-85.883z"/><path fill="#3f362c" d="M86.108-82.703l7.189 7.539 26.504-8.598-5.301-32.633-38.876 3.771z"/><path fill="#2f2218" d="M70.912-81.055l6.596 9.189 15.789-3.298-5.066-35.577-32.162 10.722z"/><path fill="#c3a39f" d="M60.428-88.712l6.007 9.425 11.073 7.421-9.425-27.33-7.184 11.31z"/><path fill="#281b0e" d="M81.161-111.33l7.07.589 26.269-5.654-5.894-15.079-37.105.353 1.769 20.027z"/><path fill="#35291b" d="M62.904-117.808l11.308-8.012 14.019 15.079-20.148 11.545z"/><path fill="#3f362c" d="M49.709-149.026l8.243-1.414 50.654 18.966-34.394 5.654-27.803-1.177-20.497-13.901z"/><path fill="#281b0e" d="M41.697-126.997l-6.125-12.251 22.38-11.192-51.831-.589 29.686 24.268z"/><path fill="#4b433e" d="M21.082-138.895l14.49-.353 38.64 13.428-6.129 26.624-44.174-22.029z"/><path fill="#554e4a" d="M-3.068-122.991l-16.494-7.068 25.683-20.97 29.451 11.781-10.484 12.016z"/><path fill="#3a2f27" d="M-7.31-101.316l-8.481-5.301-16.964-2.357 13.193-21.085 44.65 2.827z"/><path fill="#cea19c" d="M5.177-8.369l1.532 4.595 13.194 17.905 13.783 6.715 22.971-6.126L71.03 1.409l-10.955 1.53z"/><path fill="#feeee9" d="M-15.791-106.617l-.471 17.67 1.06 21.676-1.53 2.474-.708 35.105 7.774 20.028 59.492 5.065 12.372-18.496 2.824-36.755-.706-14.607 2.119-4.83 1.648-19.909-42.995-28.036z"/><path fill="#9e7f79" d="M1.056-36.643l29.333.708-6.01 12.252-21.438-2.592z"/><path d="M-5.189-96.369c-.353-.706-9.07 4.83-9.07 4.83l8.363 14.373-10.955 12.37 23.56 12.84 7.421-3.298 1.062 4.712 39.817-3.771L53.828-80.7l4.359-3.535-8.008-7.657-21.088 5.89-5.771 4.712-16.493-1.883-1.059-4.359-10.957-8.837z" fill="#eecec9"/><path fill="#35291b" d="M-17.44-29.692l-.589 22.855 78.104 9.776 2.123-26.034-18.734 11.073-25.918-3.886-3.18-5.066L7.18-21.8l-2.827 4.241-14.49-1.176z"/><path fill="#251c11" d="M25.912-37.584l8.834-3.063 4.477 11.663-8.128-7.777zM-1.301-41.353l-3.298-2.121-8.13 8.246 9.072-3.651z"/><path fill="#9e7f79" d="M10.715-54.784l-3.888 2.827 4.595 3.771 3.77-2.356z"/><path fill="#fef4f2" d="M6.827-51.957l8.365 1.415 5.066-17.082-7.422-4.595-2.003 3.771z"/><path fill="#699b47" d="M-16.262-88.947l-4.123-.471-.942 19.791 4.595 4.83 16.255 3.533 11.31-7.184 9.425.824 10.484 10.837 24.268 2.474 10.012-5.537 1.413-19.437z"/><path fill="#251c11" d="M-14.494-93.186l9.658-4.242 13.313 6.125-2.709 3.77-10.957-6.715-9.07 2.709zM27.206-90.595L50.18-93.54l9.306 7.538-1.299 1.65-8.951-5.184-20.262 3.416z"/><path fill="#35291b" d="M7.889-44.535l-12.488 1.061.942 4.595 10.719-.118zM14.131-43.827l-1.768 5.183 18.732 1.883 3.651-3.886z"/><path fill="#fff" d="M3.176-34.993l24.148.708-4.121 8.599-18.614-2.356z"/><path d="M-17.323-85.765l29.333 3.18-1.413 10.131-11.663 6.951-14.019-2.474-2.945-2.945.589-14.843h.118zm38.758 4.71l40.876 4.477-1.53 14.373-6.483 4.006-20.965-2.121-11.898-11.663.118-9.189-.118.117zM42.405 150.312l45.826-28.863-90.946-4.948z" fill="#3a592a"/><path fill="#d8e14d" d="M120.977 66.553l18.144-10.719 13.898 2.118-1.762 23.445-20.737 2.71z"/><path fill="#b5c436" d="M122.626 53.95l16.495 1.884-8.601 28.273-29.921 3.889z"/><path fill="#feeee9" d="M-93.422 35.69l18.376-3.063-4.241 25.447-12.723-6.835zM-55.726 36.514l-10.839-14.137-3.769 3.182 5.537 18.494 6.362 3.888zM189.422 66.436l-16.848-6.361-3.531 25.563 16.138-4.36zM153.019 57.952l13.783-11.543 4.01 3.771-11.665 18.26-6.949 1.177z"/><path fill="none" d="M-151.5-151.5h399v399h-399z"/></svg>