<svg xmlns="http://www.w3.org/2000/svg" viewBox="0 0 400 400"><g fill-rule="evenodd" clip-rule="evenodd"><path fill="#ab9c70" d="M196.974 118.139l-13.6 3.362v-12.1l13.055.073z"/><path opacity=".1" fill="#2b2b2b" d="M140.624 383.044l126.919-19.694 82.068 17.171-81.604 19.979z"/><path fill="#948559" d="M169.458 94.506l9.891-13.347 10.653 6.364-6.628 21.878z"/><path fill="#a19161" d="M171.803 76.508l-2.345 17.995 7.584-3.533 4.118-1.921.386-9.432-4.002-6.327-3.745.248zM287.392 100.674l13.086-2.042-5.091-19.613-7.759-8.069-8.407.199-1.465 5.512 3.691 9.578z"/><path fill="#d9e357" d="M308.852 291.942l-3.471-2.819-8.285 2.201-3.914 1.754 5.538 19.527zM309.385 335.689l-7.418 2.681-10.726-4.708 11.43-18.327z"/><path fill="#d9e357" d="M315.142 293.383l-1.924 38.814-11.373-13.375 5.623-13.924z"/><path fill="#ffede8" d="M331.602 259.83l-2.621 14.274-5.196 10.063-2.213 6.876-20.504-3.039-4.106-.61-1.485-26.331 9.257-10.27 16.044 3.702z"/><path fill="#709e52" d="M331.602 259.83l5.155-9.188-17.578-13.399-22.123-.411 1.717 8.765 5.961 5.196 18.534 3.003z"/><path fill="#5c753d" d="M336.757 250.642l1.392 13.705-4.146.374-2.401-4.891-4.814-4.761 1.88-4.276z"/><path fill="#45592b" d="M338.149 264.347l-7.906 14.579.215 2.877-6.673 2.364 7.817-24.337z"/><path fill="#709e52" d="M323.785 284.167l6.458-5.241 6.892 2.058-3.047 3.696z"/><path fill="#5c753d" d="M295.477 261.063l-7.345-3.699-9.416-9.497 20.147-13.741 5.871 16.667z"/><path fill="#5c753d" d="M319.179 237.243l-9.534-2.999-3.69-1.376-7.092 1.258-.522 1.867 1.82 1.82z"/><path fill="#45592b" d="M309.645 234.244l3.557-4.911-10.848-.57-3.491 5.363z"/><path fill="#edcfcc" d="M300.551 261.271l6.275 4.663 6.331 8.65 2.522-4.712-.415-4.496-7.234-6.128z"/><path fill="#709e52" d="M320.766 233.023l-18.412-4.26 12.085-.761z"/><path d="M317.942 275.13c5.79-6.189 3.401-4.57 10.274-8.216l-2.429-3.442-5.925.928.224 1.18-2.145.415c-.719 5.464-.646 3.52.001 9.135" fill="#edcfcc"/><path fill="#5c753d" d="M299.766 258.805l.785 2.466 7.231-.517 5.42 2.669 1.806-1.949-6.209-3.695zM319.634 263.22l.452 2.359 5.193-1.131 2.941 2.466 1.123-2.873-3.722-2.254z"/><path fill="#fff5f2" d="M317.942 265.99v9.14l-4.813-.546 2.107-9.208z"/><path fill="#cfa39e" d="M317.942 275.13l-4.813-.546 1.896 2.841zM305.186 278.108c.561 0 15.242 3.491 15.242 3.491l-3.955 5.131-8.691-1.645-2.596-6.977z"/><path fill="#61874a" d="M308.856 291.942l-12.382 20.545 4.606 8.423 14.062-27.527z"/><path fill="#61874a" d="M289.011 293.424l12.065 27.486 8.309 14.779 3.833-3.492-16.122-40.873-4.72-4.175z"/><path fill="#709e52" d="M309.385 335.689l2.783 8.537-17.692 26.164-3.784 1.574-3.703-1.888 1.847-23.71 11.744-7.491z"/><path fill="#61874a" d="M304.356 355.781l-9.88 14.609-3.784 1.574-3.703-1.888.899-11.544z"/><path fill="#709e52" d="M288.836 346.366l-13.419 15.108-6.035-13.701-5.707-26.863 24.701 9.875z"/><path fill="#61874a" d="M279.27 357.137l-8.423 9.855-1.465-19.219.085-.467z"/><path fill="#45592b" d="M299.387 287.732l-2.291 3.592-2.815.733-2.128.553-2.479 3.764-13.675-30.688 2.717-17.819 16.761 13.196 2.474 17.192z"/><path fill="#408f70" d="M286.989 370.076l-2.429 9.351 11.881 1.046 11.882-1.042-13.847-9.041-2.783-.119z"/><path fill="#709e52" d="M314.255 311.299l7.223 6.404 7.679-10.937-2.658-6.172-11.357-7.211z"/><path fill="#61874a" d="M321.478 317.703l26.465-15.437-4.781-6.145-16.663 4.477z"/><path fill="#f0d1cc" d="M347.943 302.266l7.369-4.427 5.046-1.091-2.853-5.285 8.488-5.396-2.327-3.329-8.232 5.364 1.897-7.874-4.208-.549-1.916 10.148-4.22.26 3.096 5.253-3.515 1.596-.481 2.969 2.446.46z"/><path fill="#bfdb8f" d="M304.734 250.793l16.565 5.574 10.303 3.463-2.934-9.037z"/><path d="M323.082 267.85c1.086 0 1.969.802 1.969 1.786 0 .989-.883 1.791-1.969 1.791-1.087 0-1.97-.802-1.97-1.791 0-.985.883-1.786 1.97-1.786" fill="#2b2b2b"/><path fill="#fff" d="M307.754 280.135l10.582 2.286-2.343 3.003-7.141-1.334z"/><path d="M301.068 288.004c.578.085-5.591-26.941-5.591-26.941l1.485 25.176.138 5.086 5.262 1.525 6.494-.907-7.788-3.939z" fill="#f0d1cc"/><path fill="#61874a" d="M288.836 346.366l-8.028-18.225 16.361 6.462 12.216 1.086z"/><path d="M343.162 296.121l2.877-7.471 2.832-1.184 4.757 1.664-.35 2.385-4.651-.554c1.448 2.055 1.628 1.766 1.457 4.378l-.24 1.742-3.756 2.823-2.926-3.783z" fill="#ffede8"/><path fill="#cfa39e" d="M309.271 289.217l-.415 2.725-6.494.908-4.228-5.31z"/><path fill="#ffede8" d="M357.505 291.463l-3.817 2.433.407 2.518 2.438 2.031 3.825-1.697-1.425-2.637z"/><path fill="#d9e357" d="M215.863 280.199l25.37-26.513 16.447-107.779-37.753-1.467-29.817 112.838z"/><path fill="#306b52" d="M293.267 319.934l3.902 14.669-112.807-17.969 6.034-38.448 82.84-8.269z"/><path fill="#668f4a" d="M235.756 288.37l-38.365-27.181-1.991-3.129-8.271 8.358-2.767 50.216 29.678 20.723 8.21-14.688z"/><path fill="#709e52" d="M267.043 269.917l-20.7-8.15-24.222 16.939-5.762-7.292 1.196 21.749 14.18 31.017 26.596 16.684 12.516-10.176z"/><path fill="#2e634a" d="M192.433 147.344l-37.598 27.531 25.238 17.767 10.507-6.427 6.498-21.618z"/><path fill="#408f70" d="M184.362 316.629l15.094-65.95 5.562-49.817 20.273-63.068-32.86 9.55z"/><path fill="#54b08c" d="M202.097 187.444l-9.782 13.003 7.141 50.232 23.588-103.86 2.8-3.235-9.949-3.06-18.817 24.073z"/><path fill="#f0d1cc" d="M234.714 143.767l21.851-2.527 9.55-9.94 4.118-17.93 5.383-6.324 3.036-30.369 5.688-19.358-20-3.422-13.065-10.328-7.95 67.68-6.873 17.198z"/><path fill="#ffede8" d="M171.956 48.917l11.418 60.484 25.88 22.41 30.717-3.799 13.595-19.967-2.291-64.476-19.731-10.53-34.525 2.395z"/><path fill="#cfa39e" d="M216.351 130.934l3.353 7.454 3.397 6.809 11.174 5.362 14.437-5.001 6.189-19.58z"/><path fill="#dbd9d9" d="M216.351 130.934L234.58 143.7l-2.665 17.621-16.02-20.797z"/><path fill="#f5f5f5" d="M234.58 143.7l31.535-12.398-.826 9.745-6.84 9.21-20.907 5.502-5.627 5.562z"/><path fill="#36785c" d="M265.285 141.051l21.969 9.941 5.879 24.056-10.51 12.182-12.662 34.999 31.115 98.685-3.91 13.689-50.802-60.104-19.075.594 7.544-14.718-8.558-10.481 35.351-98.371z"/><path fill="#54b08c" d="M268.577 171.133l-18.299 23.285 7.69 16.934-31.693 38.542 18.547-72.258 12.276-32.245 8.191-4.344z"/><path fill="#9ea638" d="M237.542 180.98l-5.306 4.21 1.579 6.059 5.53-3.697zM221.332 191.78l-4.969 3.694 1.245 6.572 5.758-4.11zM231.805 205.81l-5.534 4.516 1.807 5.75 5.757-4.309zM217.807 215.327l-5.7 4.158 1.978 6.113 5.245-4.212z"/><path fill="#408f70" d="M179.443 359.887l22.799 3.646-10.857 21.045-36.627-2.963z"/><path fill="#36785e" d="M202.242 363.529l-18.275 18.086 13.62 2.674 4.655-2.674z"/><path fill="#54b08c" d="M170.644 367.635l21.308 6.046 10.29-10.148-6.864-5.453-15.935 1.807z"/><path fill="#408f70" d="M179.419 366.813l3.695-3.948 10.656 2.145-3.406 5.021z"/><path fill="#5c753d" d="M208.176 158.415l6.987-.518 11.991 2.844-2.177 4.962-8.626 8.051z"/><path fill="#738f57" d="M208.176 158.415l10.465-14.324 8.77 10.05-.257 6.6zM237.542 155.759l-2.478 5.948 12.024 3.607 15.104-1.566-5.094-18.357z"/><path fill="#5c753d" d="M235.064 161.706l-.883 4.602 10.641 11.328 17.37-13.888z"/><path fill="#709e52" d="M226.031 160.67l10.633-.881-1.572 7.237-10.115-1.323z"/><path fill="#87ba66" d="M227.411 154.141l-1.38 6.531 10.197 1.123 1.314-6.036z"/><path fill="#408f70" d="M278.716 247.867l-22.79-4.22 25.859-39.03 21.676-13.094 15.026 18.221z"/><path fill="#ffede8" d="M255.926 243.647l-10.588 16.578 29.481.077 1.831-1.571 2.066-10.864z"/><path fill="#d9e357" d="M239.056 262.435h36.886l.708-3.704-37.594.021z"/><path fill="#63854a" d="M234.833 260.375l11.531 14.124-28.809 18.664-20.164-31.974 13.731-6.095 12.728 10.799z"/><path fill="#9ea638" d="M216.367 235.266l-5.704 4.158 1.977 6.107 5.249-4.207z"/><path fill="#5c8042" d="M184.362 316.634l37.888 6.035-20.008 40.864-22.799-3.646z"/><path fill="#668f4a" d="M231.735 324.18l39.112 6.508v36.304l-6.262 7.772-15.975-9.835z"/><path fill="#2e634a" d="M287.254 150.992l31.233 58.752-36.702-5.127-10.242-31.323z"/><path fill="#cfa39e" d="M205.32 98.67l6.929 5.878 4.553-8.366-5.587 2.958z"/><path fill="#edcfcc" d="M208.937 70.433l2.954-2.183 12.065-5.342 11.804 2.96-18.958 30.314-8.5-9.041z"/><path fill="#cfa39e" d="M206.239 111.854l14.319-2.092 7.512-5.434 1.835 2.515-6.71 5.754-14.733 1.877z"/><path fill="#edcfcc" d="M186.01 76.626l8.468 5.19 10.463 11.758 3.361-6.433-2.807-15.875-2.372-1.083-10.456-.978z"/><path fill="#c2b375" d="M211.891 68.25l.456-4.75 12.431-2.283 11.555 4.678-11.177-.528zM186.012 76.626l5.019-8.88 11.804-2.059.288 4.496-11.703 1.798z"/><path fill="#a19161" d="M251.275 43.569l10.071 3.003 6.942-7.79-3.422-4.919-11.906-11.534-13.627 7.593z"/><path fill="#edcfcc" d="M220.261 96.666l14.783 10.159-4.004-8.7zM203.778 99.997l-.611 12.376-2.785-7.068z"/><path fill="#948559" d="M264.418 86.42l-9.701-30.869 19.165 2.529 1.653 12.15z"/><path fill="#ab9c70" d="M278.652 76.677l-3.602 3.148-.638 15.327 2.819 18.968 9.713 2.466.448-15.912z"/><path fill="#a19161" d="M274.412 95.152l12.532 21.434-20.829 14.714z"/><path fill="#ab9c70" d="M173.26 52.837l-4.724 9.875-1.896 13.65 10.97 2.657z"/><path fill="#948559" d="M166.64 76.362l-3.935-16.014 6.751-3.672 5.59 6.911z"/><path fill="#cfa39e" d="M353.273 291.516l.415 2.38 2.849 4.549-8.594 3.821-1.852-2.361 3.992-4.569-1.457-4.374z"/><path d="M306.826 263.919c1.225 0 2.213.903 2.213 2.015 0 1.11-.988 2.014-2.213 2.014s-2.218-.899-2.218-2.014c0-1.112.993-2.015 2.218-2.015" fill="#2b2b2b"/><path fill="#306b52" d="M154.758 381.615h47.483v4.884h-47.483z"/><path d="M195.367 75.273c2.195-.344 4.253 1.158 4.596 3.353.345 2.195-1.157 4.254-3.351 4.598-2.195.342-4.254-1.16-4.598-3.355-.344-2.195 1.157-4.252 3.353-4.596M221.494 70.256c2.197-.344 4.253 1.158 4.599 3.353.342 2.195-1.16 4.254-3.354 4.598-2.192.342-4.256-1.16-4.598-3.355-.342-2.193 1.16-4.254 3.353-4.596" fill="#2b2b2b"/><path fill="#306b52" d="M284.56 379.427h23.763v2.096H284.56z"/><path fill="#408f70" d="M248.61 364.929l-10.363 20.487 18.623 4.049 16.736-3.78-2.759-18.693z"/><path fill="#54b08c" d="M264.667 366.418l-16.057-1.489-1.668 12.674 19.299-.133z"/><path fill="#306b52" d="M238.247 385.416h35.322v4.887h-35.322z"/><path fill="#408f70" d="M252.007 368.433l-1.065 5.634 10.425.025.219-5.225z"/><path fill="#fff5f2" d="M205.495 71.266l-1.091 15.116.916 12.288 5.895.47 5.587-2.958-5.684-10.048-2.181-15.701z"/><path fill="#ab9c70" d="M288.332 34.921l-9.973 9.517-13.685-4.96-4.455-8.956-1.571-9.995 17.566 6.112z"/><path fill="#a19161" d="M289.219 47.832l-2.803 6.451-18.352-3.397-7.356-3.805 3.966-7.603 23.658-4.557z"/><path fill="#b3a67d" d="M299.986 58.633l-7.846 5.316-7.8-6.63-12.841-.698-3.435-5.735 21.155-3.054z"/><path fill="#ab9c70" d="M266.701 62.962l-4.191-2.591-7.793-4.82 5.457-8.282 7.89 3.617 16.276 6.433-8.236 9.143z"/><path fill="#ab9c70" d="M278.652 76.677l-4.334-8.557 10.022-10.801 15.646 1.314-4.599 20.386z"/><path fill="#a19161" d="M264.418 86.42l2.283-23.46 17.639-5.641-5.688 19.358z"/><path fill="#ffede8" d="M276.173 87.472l-11.755-1.052 14.234-9.743z"/><path fill="#cfa39e" d="M274.412 95.152l-9.994-8.732 11.755 1.052z"/><path fill="#a19161" d="M171.35 38.937l-5.434-2.633-.55 9.017-2.661 15.027 12.341 3.239 2.564-17.918z"/><path fill="#948559" d="M181.697 24.551l-9.178 21.354-1.169-6.968-5.984 6.384-5.447-19.576 18.799-6.299z"/><path fill="#ab9c70" d="M182.019 46.235l5.545-7.839-5.867-13.845-10.347 14.386.899 5.357 2.797 19.293z"/><path fill="#b3a67d" d="M190.488 13.302l.462 11.157-9.253.092-21.778 1.194 17.786-11.464z"/><path fill="#a19161" d="M197.019 35.434l4.93-10.157-11.461-11.975-8.791 11.249.322 21.684z"/><path fill="#ab9c70" d="M207.269 44.385l8.65-15.647-7.658-24.385-17.773 8.949 6.531 22.132z"/><path fill="#a19161" d="M223.907 39.741l1.953-11.33-17.928-10.676-.663 26.65z"/><path fill="#b3a67d" d="M232.134 46.625l7.557-14.925-10.319-15.798-4.44-3.127-17 4.96 15.975 22.006z"/><path fill="#ab9c70" d="M251.275 43.569l-2.864-10.013-.733-11.237-18.306-6.417 2.762 30.723z"/><path fill="#b3a67d" d="M276.214 26.639l-8.227-9.795-14.197-5.163-24.418 4.221 19.039 17.654z"/><path fill="#998c66" d="M250.018 1.5l-2.189 9.42-18.457 4.982-8.688.743-12.752 1.09.329-13.382z"/><path fill="#a19161" d="M267.987 16.844l-3.239-7.664-14.73-7.68-7.951 5.546-12.695 8.856 23.279.568z"/><path fill="#cfa39e" d="M136.997 132.303l-19.389-8.431 2.804 13.847 10.481 5.387z"/><path fill="#408f70" d="M131.29 145.417l19.698 65.007 29.085-17.782-28.111-45.465z"/><path fill="#36785e" d="M99.753 43.488l.452 14.905 5.847-3.522-2.706-7.039zM114.173 142.571l-6.575-13.001 5.955-8.264 2.004 7.178z"/><path fill="#54b08c" d="M40.791 124.61l-6.33-49.274 1.779-9.615 58.384-7.072 9.04 8.352 7.163 28.461-.222 18.099-16.612 3.536-50.203 12.561z"/><path fill="#408f70" d="M41.975 122.802l54.997-8.722 17.122 4.469-10.195 11.359-61.094 9.627-2.643-13.962z"/><path fill="#73c7a6" d="M117.063 44.898l8.235 83.204.556 5.383-11.681 9.086-.905-13.515-6.419-8.932 5.496-53.872-12.592-22.764z"/><path fill="#73c7a6" d="M36.482 75.996l75.865-9.744-6.889-5.662-12.083-5.053-57.261 4.864z"/><path fill="#d9e357" d="M116.757 112.031l-4.41-45.779-13.31-2.669-7.078 4.624 5.013 45.875 4.681 3.417z"/><path fill="#e6e87a" d="M91.965 68.207l20.382-1.955-6.295-11.381-12.675.666z"/><path fill="#36785e" d="M42.805 139.535l-.83-16.733-3.392-6.075-2.551 2.834zM36.114 60.401l-4.106 19.828 2.523 2.389 2.095-6.629z"/><path fill="#408f70" d="M41.975 122.802l-5.349-46.813-4.618 4.24 4.024 39.332z"/><path fill="#b8c745" d="M96.972 114.082l19.785-2.049-1.924 9.391-1.565 7.632-9.371.852-4.447-7.823z"/><path fill="#f0d1cc" d="M114.479 148.526l19.72 6.492 17.761-7.841-14.963-14.874-11.141 1.182-3.967 1.536-7.237 2.681z"/><path fill="#cfa39e" d="M99.45 122.085l15.029 26.443 7.41-13.507-6.305-17.253z"/><path fill="#ab9c70" d="M259.568 70.987l13.424 9.564-8.574 5.869-5.835-1.212z"/><path fill="#b3a67d" d="M251.275 43.572l3.442 11.979 13.347-4.665-3.39-11.408z"/></g></svg>