<svg xmlns="http://www.w3.org/2000/svg" viewBox="0 0 400 400"><path fill="#7f6f4c" d="M173.599 129.965l-6.883 16.407-.809 14.869 12.554-2.566 16.042-20.308-6.978-12.753z"/><path fill="#f1e49a" d="M160.5 137.833l-6.15 10.882 1.713 15.021 10.933-2.495 5.135-16.398z"/><path fill="#54b08b" d="M164.276 146.448l-9.926 2.267-24.892 59.726 24.892-5.415z"/><path opacity=".1" fill="#2b2b2b" d="M126.605 383.313l75.584-13.17 71.206 15.672-76.956 14.356z"/><path fill="#4f5253" d="M206.299 366.718l-8.939-8.612-9.647 2.932-23.155 14.839 23.46 2.591 18.914-2.591 1.381-5.144z"/><path fill="#2b2b2b" d="M164.558 375.877h42.374v6.962h-42.374z"/><path fill="#6f7173" d="M225.496 363.42l7.665 21.618-9.41 2.565-27.12-2.565 9.668-18.32 7.922-8.612z"/><path fill="#2b2b2b" d="M196.631 385.038h36.53V392h-36.53z"/><path fill="#35785d" d="M148.815 251.115l38.898 72.732 48.449-72-47.505-5.377z"/><path d="M184.564 140.989l-2.207 1.65-2.261 4.749v3.275l2.971 3.124s9.37-.23 10.13 0c.763.228 8.531-3.201 8.531-3.201l5.402-17.334-22.566 7.737z" fill="#efd0cb"/><path fill="#3f8f6f" d="M150.273 186.617l6.75 39.305 51.41-23.46 7.425-15.845-38.272-10.256z"/><path fill="#a0cf7e" d="M180.252 151.069h19.523l-15.87 35.548H171.363z"/><path fill="#ffeee9" d="M146.751 48.434l4.673 53.307 22.175 28.224h27.885l19.428-25.157 3.508-55.784-7.87-12.335-39.26-14.934-21.813 14.598z"/><path fill="#efd0cb" d="M203.967 156.823h8.219l41.612-72.148-13.759-11.074-15.619-24.577-3.508 55.784-20.328 25.157z"/><path fill="#cea39f" d="M180.811 129.965l2.254 21.104h16.71l14.243-21.104z"/><path fill="#72c9a6" d="M181.721 142.883l-17.445 3.565-14.003 40.169h25.403l4.421-18.675-1.407-18.016zM184.971 196.367l-55.513 12.074 12.654 24.288 42.006-19.169z"/><path fill="#ffeee9" d="M184.971 196.367l23.462 6.095-24.315 11.098z"/><path fill="#54b08b" d="M175.676 186.617l29.954-44.181 32.358-3.047-22.13 47.228z"/><path fill="#c1b274" d="M216.438 148.326l-9.285 14.83 13.535 12.794 13.159-19.271 10.945-2.662 16.724-14.644 6.376-41.275-2.688-27.875-11.239-19.181 7.551-19.052L230.309.447l-35.234 2.349-22.149-.671-26.175 22.819-1.887 13.233 7.052-6.481 25.374-9.941 54.367 40.261 8.382 11.585 13.759 11.074z"/><path fill="#72c9a6" d="M237.988 139.389l14.321 30.877-29.097 55.656-14.779-23.46z"/><path fill="#3f8f6f" d="M157.023 225.922l-8.208 25.698 87.347.813-12.95-26.511-56.416-4.46z"/><path fill="#72c9a6" d="M236.162 251.847l-17.099 63.756-12.131 12.639-.633 38.476-36.561-44.52 17.975-48.093z"/><path fill="#3f8f6f" d="M187.713 323.847l18.586 42.871 19.197-3.298-6.433-47.817z"/><path fill="#54b08b" d="M187.713 274.105l-38.898-22.99 20.923 71.083 17.975 1.649z"/><path fill="#35785d" d="M206.299 366.718l-18.586-42.871-17.975-1.649 17.975 38.84z"/><path fill="#a09160" d="M163.225 116.945l-2.725 20.888 11.631 7.01 1.468-14.878z"/><path fill="#54b08b" d="M208.433 202.462l14.779 23.46-5.028 7.466-51.388-11.926z"/><path fill="#fff5f3" d="M176.568 67.729l-.075 14.936-2.251 9.228h8.889l-2.758-8.737-.052-15.427z"/><path fill="#cea39f" d="M174.242 91.893l4.816 4.58 4.815-4.58z"/><path fill="#a09160" d="M185.929 60.238l4.698-5.404h11.042l8.915 2.333-8.681-.452zM171.979 60.238l-3.568-5.404h-8.382l-6.333 2.333 6.153-.452z"/><path fill="#efd0cb" d="M171.979 60.238l4.589 7.491-.075 14.936-11.36-14.27-11.437-11.228 6.153-.452zM185.929 60.238l-5.608 7.491.052 15.427 2.758 8.737 11.259-23.477 16.194-11.249-8.681-.452z"/><path fill="#ffeee9" d="M240.039 73.601l-1.063 20.581h9.339l5.483-9.507z"/><path fill="#cea39f" d="M238.976 94.182l3.796 9.277 5.543-9.277z"/><path fill="#a09160" d="M231.657 62.016l8.382 11.585 25.165-3.379-3.688-38.232-63.408-10.235 17.187 15.962z"/><path fill="#7f6f4c" d="M240.039 73.601l13.759 11.074 14.094 13.423-2.688-27.876z"/><path fill="#a09160" d="M230.309.447l-32.201 21.308H177.29l17.785-18.959zM244.792 154.017l-28.354-5.691 26.334-44.867 18.744 35.914z"/><path fill="#7f6f4c" d="M206.832 164.026l13.856 11.924-4.83 10.667z"/><path fill="#f1e49a" d="M151.916 31.696l-5.165-6.752-10.4 21.141 10.4 2.349z"/><path fill="#c1b274" d="M146.751 48.434l-10.4-2.349 13.634 37.901z"/><path fill="#e8f078" d="M157.468 165.981l20.118-8.778-1.238-8.488-15.582 7.808zM201.729 148.188l12.289 11.616-2.612 8.138-14.596-12.497z"/><path fill="none" d="M241.788 190.194l.001-.002-10.973-8.741zM243.294 187.313l.003-.004-4.633-3.685z"/><path fill="#446125" d="M245.563 182.975l.75-1.437-6.23-5.014-1.004 1.245.016.012.007-.007z"/><path fill="#99c26d" d="M239.095 177.781l-.998 1.238 6.711 5.401.751-1.437z"/><path fill="#99c26d" d="M245.563 182.975l-6.461-5.201-.007.007 6.464 5.202z"/><path fill="#446125" d="M236.859 180.081l.03.022-.01-.019 7.175 5.776.751-1.436-6.942-5.591z"/><path fill="#99c26d" d="M236.889 180.103l1.336 3.17.439.351 4.633 3.685.754-1.44z"/><path fill="#99c26d" d="M244.054 185.86l-7.175-5.776.01.019 7.162 5.766z"/><path fill="#446125" d="M238.225 183.273l-5.687-4.531-.867 1.342 10.874 8.664.749-1.435-4.63-3.689zM238.664 183.624l-.439-.351z"/><path fill="#99c26d" d="M231.671 180.084l-.855 1.367 10.973 8.741.752-1.437z"/><path fill="#99c26d" d="M242.545 188.748l-10.874-8.664 10.87 8.671z"/><path fill="#446125" d="M229.982 182.765l11.058 8.861.748-1.432-10.972-8.743z"/><path fill="#99c26d" d="M229.982 182.765l-.886 1.32 11.188 8.986.751-1.436z"/><path fill="#99c26d" d="M241.04 191.626l-11.058-8.861 11.053 8.87z"/><path fill="#5a753d" d="M232.538 178.742l5.687 4.531 3.493-5.472-5.658-4.605z"/><path fill="#e8f078" d="M157.379 202.367l-7.322 1.594-3.934 17.501-7.028 5.476 3.017 5.791 14.911-6.807zM223.212 225.922l-13.054-2.538-16.943-13.976-9.097 4.152 15.657 15.555 18.409 4.273z"/><path fill="#7f6f4c" d="M239.394 86.113l-6.792-9.415-.945-14.682 8.382 11.585z"/><path fill="#5a753d" d="M149.743 159.696l5.192-1.615-2.299 8.48-7.697 4.734z"/><path fill="#ffeee9" d="M157.379 202.367l-10.62-9.05-10.783 13.706z"/><path fill="#a09160" d="M206.832 164.026l14.944-7.203 23.016-2.806 7.517 16.249-31.621 5.684z"/><path fill="#7f6f4c" d="M206.832 164.026l37.96-10.009-28.354-5.691z"/><path fill="#54b08b" d="M170.063 105.799l3.754 3.6h11.948l5.559-3.8-11.716-.743z"/><path fill="#3f8f6f" d="M169.876 105.799l21.625-.22 1.998-1.465-4.084-.433-6.323-2.094-3.838 1.328-3.667-1.289-8.127 3.23z"/><path fill="#efd0cb" d="M189.67 95.69l3.829 8.424.544 5.935 4.05-5.782zM170.882 95.69l-3.422 8.808v4.901l-3.475-5.208z"/><path fill="#cea39f" d="M244.581 77.255l-.339 10.318 5.404-6.239z"/><path fill="#a09160" d="M177.29 21.755l-21.813 14.598-8.726 12.081 5.165-16.738z"/><path fill="#3f8f6f" d="M188.337 167.942l16.99-25.059 19.093-8.157-7.982 13.6zM180.811 129.965l-8.68 14.878 7.966 23.099 2.968-16.873z"/><path d="M198.181 68.395c0 2.094-1.697 3.792-3.792 3.792-2.094 0-3.791-1.698-3.791-3.792s1.697-3.791 3.791-3.791 3.792 1.697 3.792 3.791zM168.924 68.395c0 2.094-1.697 3.792-3.792 3.792-2.094 0-3.791-1.698-3.791-3.792s1.697-3.791 3.791-3.791c2.095 0 3.792 1.697 3.792 3.791z" fill="#2b2b2b"/></svg>