<svg xmlns="http://www.w3.org/2000/svg" viewBox="0 0 400 400"><path opacity=".1" fill="#2b2b2b" d="M101.997 383.179l105.691-15.836 101.814 19.159L213 400z"/><path fill="#709d53" d="M240.002 362.667l-8.335 21.003 18.975 3.833 22.108-3.833-3.806-18.336-16.612-6.333z"/><path fill="#5a753d" d="M231.667 383.67h41.083v7.667h-41.083z"/><path fill="#709d53" d="M152.336 353.677L119.8 377.344l34.702 2.333 22.5-2.333.313-9-11.646-13.892z"/><path fill="#5a753d" d="M119.8 377.344l.117 7.666h57.398l-.313-7.666z"/><path fill="#cea39f" d="M101.965 175.435l-10.5-4.915 16.501-26.25 8.917 9.584-3.532 13.666z"/><path fill="#446125" d="M165.623 161.009l-25.991 9.199-10.666 13.562 3 21.917 36 3.667.032-40.521"/><path fill="#709d53" d="M139.632 170.208l-8.718-6.149-7.552-6.643-6.596-3.394-14.801 21.413 30.001 30.252z"/><path fill="#595959" d="M103.0026987 134.8501991l12.2265 8.6895-26.9108022 37.8646554-12.2265-8.6895z"/><path fill="#efd0cb" d="M89.746 134.853l-9.482 12.667.002 19.334 17.439-7.001 2.859-19.746z"/><path fill="#ffeee9" d="M107.436 167.52l-5.471-13.75-4.26 6.083-6.59-4.833 9.449-14.913 16.202 13.915z"/><path fill="#3f8f6f" d="M208.669 309.337L194.2 334.649l-22.573 4.029-15.897-26.716 3.604-47.46L196 286.419zM208.669 309.337l13.052 21.732 27.612 5.933 17.968-14.448-1.634-33.794-15.025-41.094L231 269.502z"/><path fill="#35785d" d="M159.334 264.502l49.335 44.835L240 269.502z"/><path fill="#2f6850" d="M297.82 86.743l-12.287 5.443-11.588-14.748 6.322-11.148z"/><path fill="#444" d="M277.105 106.932v15.195l-15.899 6.183-8.679-12.952 9.831-8.426 9.448-5.047z"/><path fill="#515151" d="M285.533 92.186l-8.428 14.746h-14.747l12.991-23.174z"/><path fill="#636363" d="M158.78 33.549l-11.938 20.945 7.643 19.784 4.295-14.746z"/><path fill="#ffeee9" d="M158.78 33.549l-10.183 96.556 25.983 3.511 21.066 13.694 10.534 32.302 6.671 12.64 7.022-15.098 31.6-24.578 18.609-61.444-12.289-10.885-14.484-36.48z"/><path fill="#efd0cb" d="M243.309 43.767l-13.254 98.276-41.051-3.16 3.013 12.472 12.054 29.311 6.22 19.82 13.446-16.308 27.736-31.602 9.733-24.266 1.152-11.673 5.909-5.93 8.838-22.033-14.045-12.64-8.427-30.898zM222.331 69.012l-31.6 25.631-30.196-33.707 11.762-1.404 11.969 4.505 8.616 1.126 15.58-1.418z"/><path fill="#cea39f" d="M177.564 92.887l5.969 8.998 7.198-7.242z"/><path fill="#fff5f3" d="M192.882 65.163l-2.151 29.48-6.843 1.196-6.324-2.952 6.702-28.85z"/><path fill="#cea39f" d="M162.598 98.198l20.672 8.032 30.02-2.107v4.213l-30.547 2.37-21.067-8.821z"/><path fill="#efd0cb" d="M213.29 104.123l-19.092-8.822 13.43.538zM162.598 98.198l11.982-5.311h-9.745z"/><path fill="#474747" d="M192.882 65.163l2.062-3.349 14.396-.878 13.518 5.091-.527 2.985-14.725-4.038zM184.266 64.037l-.119-3.101-12.025-4.213-11.587 1.404v2.809h10.709z"/><circle cx="208.813" cy="74.278" r="3.16" fill="#2b2b2b"/><circle cx="170.366" cy="69.45" r="3.16" fill="#2b2b2b"/><path fill="#666" d="M257.186 54.494l-7.468 11.796 6.96 11.148-12.578 20.76 10.182 3.687 10.182-18.127 12.641 4.916 8.428 3.512-8.428-23.174z"/><path fill="#cea39f" d="M158.78 33.549l95.217 25.983 3.189-5.038-43.896-14.356zM268.267 110.706l-12.931-3.774 5.87 21.378zM261.801 101.885l4.419-11.719 6.057 2.721z"/><path fill="#444" d="M253.997 59.532l31.536 32.654-5.266-25.896-23.081-11.796z"/><path fill="#54b08b" d="M158.78 33.549L189.004 0l63.523 9.48v25.825l-10.018 14.389z"/><path fill="#3f8f6f" d="M252.527 9.48l40.027 51.106 5.266 26.157-55.311-37.049z"/><path fill="#e8f078" d="M195.722 40.673l6.312 1.217 10.523-38.375-5.554-.829zM184.156 38.442L194.396.805 189.004 0l-11.417 37.176z"/><path fill="#cea39f" d="M172.4 133.322l70.109 10.125-33.696 23.349z"/><path fill="#ececeb" d="M251.473 152.576l-24.475 67.934-.697 66.409L213 289.341l-10-13.667-7.247 12.329-11.752-1.084 6.69-74.909 1.326-60.655 14.981 28.321 3.903 19.817 10.763-17.483z"/><path fill="#c4c4c4" d="M206.998 179.676l-14 12 .504-19zM221.664 182.01l13.828 13.94 10.839-9.107-7.617-11.109z"/><path fill="#5a753d" d="M192.017 151.355l-26.394 9.654-6.289 103.493 24.667 22.417 13.069-70.906-6.379-25.67zM251.473 152.576l-12.759 36.434-22.216 29.5 9.803 68.409 22.487-12.308 3.544-13.032 26.166-24.903V163.01z"/><path fill="#709d53" d="M249.998 167.51l6.567 12.165 6.099 23.835-46.166 15 22.216-42.776zM189.248 162.837l-12.251 12.897-8.999 15.942 29.072 24.337-3.614-43.334z"/><path opacity=".2" fill="#2b2b2b" d="M233.998 184.816l22.567-5.14-17.851-3.942zM176.998 175.734l17.25 6.442-.746-9.5z"/><path fill="#fff" d="M238.714 175.734l17.851 3.942-5.092-27.1zM193.502 172.676l-16.504 3.058 15.019-24.379z"/><path fill="#35785d" d="M155.73 311.962l-3.394 41.715 24.979 14.667 16.885-33.695zM240.002 362.667l28.942 2.667-1.643-42.78-45.58 8.515z"/><path fill="#446125" d="M278.498 163.01l31.165 74.335-20.332-.335-17.999-9z"/><path fill="#709d53" d="M271.332 228.01l-14.665 25.866 2.901 5.793 13.182 11.337 36.913-33.661z"/><path fill="#efd0cb" d="M256.667 253.876l-4.335 7.703 13.335 27.181 7.083-17.754z"/><path fill="#4c4c4c" d="M77.5519692 114.8639956l-9.7812-6.9516 8.2787763-11.6485941 9.7812 6.9516z"/><path fill="#6d6d6d" d="M68.8491461 86.2414673l11.4114 8.1102-12.9131763 18.1693941-11.4114-8.1102z"/><path fill="#878787" d="M116.766 154.022l-47.565-33.744 18.995-26.729 61.678 43.832-17.502 14.514z"/><path fill="#5b5b5b" d="M124.07 142.619l-32.605-23.172 11.168-15.715 18.294 8.784 14.311 14.387z"/><path fill="#939393" d="M132.324 113.727l-16.289-11.577-13.402 1.582 32.605 23.171z"/><path fill="#6d6d6d" d="M149.874 137.381l-33.108 16.641 14.143 10.033z"/><path fill="#a0cf7e" d="M117.7178592 133.7682934l1.6505364-2.3551564 4.50395 3.15645-1.6505364 2.3551564z"/><path fill="#c4c4c4" d="M210.901 199.493l-2.903 43.267L203 275.674l.748-33.914z"/></svg>