<svg xmlns="http://www.w3.org/2000/svg" viewBox="0 0 400 400"><path opacity=".1" fill-rule="evenodd" clip-rule="evenodd" fill="#2b2b2b" d="M99.56 386.097l89.477-14.215 88.965 13.851L194.532 400z"/><path fill-rule="evenodd" clip-rule="evenodd" fill="#a09160" d="M268.552 118.569l-15.109 7.409-5.571-17.142 5.571-18.247z"/><path fill-rule="evenodd" clip-rule="evenodd" fill="#efd0cb" d="M174.414 212.849l7.671 25.376-15.711 16.323-5.433-3.289-3.074-8.058z"/><path fill-rule="evenodd" clip-rule="evenodd" fill="#cea39f" d="M166.374 254.548l-6.931 15.525-9.929-16.311 8.027-8.388 4.965 4.015z"/><path fill-rule="evenodd" clip-rule="evenodd" fill="#3f8f6f" d="M130.233 249.32l14.768 3.972 9.966 4.431 9.618.836 12.407 3.337-3.133 12.163-26.914 12.207-20.438-23.479z"/><path fill-rule="evenodd" clip-rule="evenodd" fill="#ffeee9" d="M162.51 249.393l-9.166 6.143-4.568.387-3.777-2.632 12.868-10.09z"/><path fill-rule="evenodd" clip-rule="evenodd" fill="#35785d" d="M149.787 263.616l14.796-5.057-11.239-3.023-2.822 1.435z"/><path fill-rule="evenodd" clip-rule="evenodd" fill="#efd0cb" d="M153.344 255.536l-3.557 8.08-4.091 1.202-.697-11.527z"/><path fill-rule="evenodd" clip-rule="evenodd" fill="#35785d" d="M126.507 262.787l22.665 13.016 24.687-1.744-4.971 19.3-47.454-12.24z"/><path fill-rule="evenodd" clip-rule="evenodd" fill="#efd0cb" d="M236.665 237.178l-15.487-1.396 1.97 16.131 10.123.802zM282.529 210.763l-35.846 35.24-10.018-8.825 16.409-26.415z"/><path fill-rule="evenodd" clip-rule="evenodd" fill="#3f8f6f" d="M162.031 383.036l5.321-.08.784-14.537-2.497-11.188-9.799 6.622zM225.403 368.014l6.43 14.009-4.75 10.75z"/><path fill-rule="evenodd" clip-rule="evenodd" fill="#efd0cb" d="M215.392 333.166l-6.401 13.067 5.878 17.62.864 11.773 9.67-7.612 3.966-26.648z"/><path fill-rule="evenodd" clip-rule="evenodd" fill="#ffeee9" d="M214.869 363.853l-6.977 10.879 5.948 7.761 12.983 2.549-1.42-17.028z"/><path fill-rule="evenodd" clip-rule="evenodd" fill="#3f8f6f" d="M226.823 385.042l-18.931-10.31-2.643 3.969 3.918 6.341 17.916 4.271z"/><path fill-rule="evenodd" clip-rule="evenodd" fill="#efd0cb" d="M227.083 389.313l-21.834-10.612-6.944 10.612 10.724 2.094zM161.417 317.297l-7.957 36.442 2.642 6.844 9.537-3.352 12.718-20.136 1.768-16.441z"/><path fill-rule="evenodd" clip-rule="evenodd" fill="#ffeee9" d="M153.46 353.739l-13.215 12.689 5.745 6.318 8.767 3.123 10.882-18.638z"/><path fill-rule="evenodd" clip-rule="evenodd" fill="#3f8f6f" d="M154.757 375.869l-14.512-9.441-3.5 3.361 5.232 5.837 10.463 3.165z"/><path fill-rule="evenodd" clip-rule="evenodd" fill="#efd0cb" d="M152.44 379.839l-15.695-10.05-10.465 10.05 13.865 2.094z"/><path fill-rule="evenodd" clip-rule="evenodd" fill="#cea39f" d="M161.417 317.297l16.94 19.798 10.702-15.789zM229.369 341.366l-20.378 4.867-6.158-17.953z"/><path fill-rule="evenodd" clip-rule="evenodd" fill="#ffeee9" d="M250.121 185.652l16.623 6.275 15.785 18.836-48.77 4.534z"/><path fill-rule="evenodd" clip-rule="evenodd" fill="#5a753d" d="M233.759 215.297l32.985-23.37-18.046-23.191-11.173 23.281z"/><path fill-rule="evenodd" clip-rule="evenodd" fill="#ffeee9" d="M222.889 158.855l25.809 9.881-51.269 31.39-20.137-37.308 15.259-5.482z"/><path fill-rule="evenodd" clip-rule="evenodd" fill="#c1b274" d="M112.905 53.738l27.509 30.709 1.665-34.903z"/><path fill-rule="evenodd" clip-rule="evenodd" fill="#f7f1a4" d="M139.797 51.885l-22.331 34.609h21.095l3.706-20.473z"/><path fill-rule="evenodd" clip-rule="evenodd" fill="#c1b274" d="M117.466 86.494l18.53 28.294 4.698-35.021zM165.509 19.075l-20.173 7.802-20.173 13.699 25.278-.425z"/><path fill-rule="evenodd" clip-rule="evenodd" fill="#fff7ae" d="M165.509 19.075h-23.384l-16.962 21.501zM229.982 15.223l26.597 5.173-5.129 18.136-18.247-11.702z"/><path fill-rule="evenodd" clip-rule="evenodd" fill="#c1b274" d="M256.579 20.396l19.955 26.32-4.846 11.799-18.245-11.212-4.276-12.284z"/><path fill-rule="evenodd" clip-rule="evenodd" fill="#e2d086" d="M200.136 3.14L216.004.8l33.163 34.219 22.521 23.496-5.132 11.309h-15.108l-9.978-25.445-25.466-9.067z"/><path fill-rule="evenodd" clip-rule="evenodd" fill="#c1b274" d="M249.167 35.019l4.276 31.002 13.113 3.803 12.258 28.662-43.831-25.738-3.965-31.002zM247.872 108.836l11.843 31.181-27.687 9.896 4.311-23.935z"/><path fill-rule="evenodd" clip-rule="evenodd" fill="#a09160" d="M239.67 127.386l6.884 17.335-17.667 6.239 6.312-14.161z"/><path fill-rule="evenodd" clip-rule="evenodd" fill="#ffeee9" d="M139.797 51.885l-4.144 62.881 8.248 19.936 34.665 4.145 22.71 33.926 20.24-9.651 31.927-68.731-26.226-30.748-12.923-6.298-39.909-28.077z"/><path fill-rule="evenodd" clip-rule="evenodd" fill="#efd0cb" d="M214.294 57.345l-12.64 65.674-15.114 17.714 4.189 17.258 8.36 13.735 27.29-11.535 13.291-32.805 4.366-11.88 3.836-6.67 5.571-14.445-24.325-35.096zM193.009 74.649l-24.896 22.813-25.656-29.54 11.118-3.217 28.507 3.217z"/><path fill-rule="evenodd" clip-rule="evenodd" fill="#fff5f3" d="M172.835 66.878l-4.579 14.625-.143 15.959-9.55-1.317 3.706-15.061-1.263-15.541z"/><path fill-rule="evenodd" clip-rule="evenodd" fill="#cea39f" d="M139.797 51.885l15.583 4.135 18.815-11.641 18.846 12.966 19.78 7.503 7.554 16.089 10.166 12.001 22.902 1.453-37.344-44.847-29.934-7.439-13.33-12.837-14.272 13.123z"/><ellipse cx="180.656" cy="81.083" rx="3.991" ry="4.095" fill-rule="evenodd" clip-rule="evenodd" fill="#2b2b2b"/><ellipse cx="152.34" cy="77.993" rx="3.991" ry="4.095" fill-rule="evenodd" clip-rule="evenodd" fill="#2b2b2b"/><path fill-rule="evenodd" clip-rule="evenodd" fill="#cea39f" d="M247.872 108.836l-13.211-5.209.646 9.706 4.363 14.053zM178.566 138.847l38.862 3.697-26.699 15.447zM168.113 97.462l-5.511 4.484-4.039-5.801z"/><path fill-rule="evenodd" clip-rule="evenodd" fill="#efd0cb" d="M190.919 81.083l6.841-.585v2.34zM145.878 76.988l-5.274-1.754v2.759z"/><path fill-rule="evenodd" clip-rule="evenodd" fill="#a09160" d="M172.835 66.878V63.34l11.432 1.286 8.742 10.023-10.927-6.727zM161.006 65.543v-3.178l-9.274-.59-9.275 6.147 11.118-3.217z"/><path fill-rule="evenodd" clip-rule="evenodd" fill="#fff7ae" d="M171.344 35.019l-16.819 16.086-41.62 2.633 12.258-13.162 22.995-2.767 12.658-3.959z"/><path fill-rule="evenodd" clip-rule="evenodd" fill="#e2d086" d="M148.159 37.809l28.316-30.574 29.362 27.784 31.072 9.36 1.014 27.619-8.71-2.174-14.919-12.479h-21.253l-21.697-22.326z"/><path fill-rule="evenodd" clip-rule="evenodd" fill="#fff7ae" d="M176.475 7.235l23.661-4.095 23.375 29.832 25.656 2.047-12.258 9.36-32.497-4.972z"/><path fill-rule="evenodd" clip-rule="evenodd" fill="#c1b274" d="M243.28 90.256l-12.262 11.934-1.036-20.085z"/><path fill-rule="evenodd" clip-rule="evenodd" fill="#fff7ae" d="M214.294 57.345l64.52 41.141-10.262 11.162-15.109-15.257-33.068-13.454z"/><path fill-rule="evenodd" clip-rule="evenodd" fill="#3f8f6f" d="M231.018 102.19l12.828-4.777 4.026 11.423-12.563 4.501zM182.257 112.772l-12.701-.872-7.144-3.552-6.443 2.023-9.141-.723 15.394 7.117z"/><path fill-rule="evenodd" clip-rule="evenodd" fill="#72c9a6" d="M146.828 109.648l14.919 11.431 20.51-8.307-19.94 3.115z"/><path fill-rule="evenodd" clip-rule="evenodd" fill="#709d53" d="M177.292 162.818l-16.877 36.26 37.014 16.219h36.33l14.939-46.561-57.292 26.332z"/><path fill-rule="evenodd" clip-rule="evenodd" fill="#446125" d="M233.759 215.297l-9.564 28.238-25.537 15.702-24.244-5.228-13.999-54.931z"/><path fill-rule="evenodd" clip-rule="evenodd" fill="#5a753d" d="M224.195 243.535l8.463 19.252 8.045 8.478-11.334 70.101-67.952-24.069 20.492-52.744z"/><path fill-rule="evenodd" clip-rule="evenodd" fill="#709d53" d="M224.195 243.535l1.746 16.041 14.762 11.689-79.286 46.032 12.997-63.288z"/><path fill-rule="evenodd" clip-rule="evenodd" fill="#5a753d" d="M212.055 260.195l16.267 9.878 12.381 1.192-8.045-13.513z"/><path fill-rule="evenodd" clip-rule="evenodd" fill="#ffeee9" d="M236.665 237.178l-12.47 6.357-.531 14.861 8.994-.644 14.025-11.749z"/><path fill-rule="evenodd" clip-rule="evenodd" fill="#efd0cb" d="M232.658 257.752l-3.403 6.801-17.2-4.358 12.14-16.66z"/><path fill-rule="evenodd" clip-rule="evenodd" fill="#72c9a6" d="M144.999 273.407l5.422-2.574 3.835 4.611-5.668 3.411z"/><path fill-rule="evenodd" clip-rule="evenodd" fill="#e2d086" d="M253.443 94.391l25.371 4.095-10.262 20.083z"/><path fill-rule="evenodd" clip-rule="evenodd" fill="#3f8f6f" d="M198.305 389.313h28.778v3.46h-28.778zM157.952 370.397l1.307 4.051-10.307 8.588H126.28v-3.197h18.833z"/></svg>