<svg xmlns="http://www.w3.org/2000/svg" viewBox="-152 -152 400 400"><path fill="#2b2c2b" fill-opacity=".102" d="M-44.3 231.127l113.56-16.378 91.77 13.666-70.21 18.492z"/><path fill="#a0cf7e" d="M30.389-3.892L8.712 12.836.82 63.846l15.785 29.451 34.164 21.909 35.339-21.085L102.6 68.083l8.954-25.56-8.013-35.343L89.879.231z"/><path d="M90.35 87.289l3.061-4.716-79.985.471 1.53 4.717 74.924.349.47-.821zM7.651 65.847l94.949.353-3.414 5.894-89.885-.828-1.885-5.419h.235z" fill="#90ba71"/><path d="M78.101 19.196l-.122 74.685h-4.124l-.349-77.276 4.595 2.591zm-38.878-4.594l-.824 78.93h-5.301l2.003-87.293 4.122 8.481v-.118zm15.669-8.716l2.001 87.76h-4.947l-1.06-85.639 3.889-2.239.117.118zm-33.457 4.712l-4.948 82.577-3.77-11.072 3.064-69.622 5.418-1.883h.236z" fill="#90ba71"/><path fill="#90ba71" d="M3.059 49.472l-.827 5.538 5.419 1.295 94.949-.354 4.715-1.412 2.355-6.716-6.948 2.474-94.953.353zM6.003 30.742l-.943 5.183 3.064.942 94.946-.824v-5.772L8.359 31.448z"/><path fill="#709d53" d="M16.017 12.599l7.539-11.308 6.833-5.183 2.709 4.83 2.238 5.183zM78.101 19.196L54.892 6.003 82.225-9.075 89.879.231z"/><path fill="#bfdb8e" d="M115.441 21.082l-11.9-13.902-1.177 59.256 34.873 3.887z"/><path fill="#acc580" d="M114.853 67.848l5.066.47-12.132-56.19-4.246-4.948z"/><path fill="#acc580" d="M103.07 30.153v5.89l14.848-9.895-2.477-5.066zM102.722 50.297l-.122 5.654 24.742-8.01-2.476-5.656z"/><path fill="#99c26d" d="M92.939 82.103l9.425-15.667 34.873 3.887-16.966 20.027-21.56-.353z"/><path fill="#8aaf62" d="M114.853 67.848l5.066.47-10.014 18.971-4.595-1.299z"/><path fill="#efd0cb" d="M80.454 102.835l5.301-8.714 12.956-4.124 10.605 13.431-13.195 16.019z"/><path fill="#709d53" d="M120.271 90.35l-27.332-8.247-7.184 12.018 23.561 9.307z"/><path fill="#bfdb8e" d="M-21.21 71.148L3.412 24.615l5.3-11.779-1.179 53.246-10.601 6.953z"/><path fill="#acc580" d="M-.83 34.04l1.65-4.477 7.539 1.885-.235 5.419zM-10.843 51.475l2.356-4.595 16.256 3.77-.118 5.655z"/><path fill="#efd0cb" d="M7.533 120.625L-3.539 101.54l-.471-5.419 2.945-11.896 15.902 3.771 1.768 5.301 2.709 8.953z"/><path fill="#99c26d" d="M-12.022 87.168l-9.188-16.02 28.743-5.066 2.947 9.071-9.778 8.248z"/><path fill="#709d53" d="M-3.539 101.54l-8.483-14.372L10.48 75.153l4.357 12.843z"/><path fill="#448e71" d="M80.454 102.835l-29.685 12.371-31.455-12.956-2.709-8.953 12.134.113 57.369.711z"/><path fill="#54b08b" d="M57.011 102.486H38.517l-.118-8.84 18.494.122z"/><path fill="#35785d" d="M51.945 148.311l-22.264-4.124-22.148-23.562 11.781-18.375 61.14.585 15.667 16.612-11.072 29.216z"/><path fill="#54b08b" d="M16.84 172.104l-9.307-51.479 44.412 27.686-.47 33.809-14.255 6.242zM63.724 181.527l-11.779-33.216 44.176-28.864 1.535 58.428-10.723 13.905z"/><path fill="#3f8f6f" d="M24.144 213.69l-7.304-41.586 34.635 10.016.828 37.342-16.143 3.888zM75.036 222.173l-11.312-40.646 33.932-3.652 2.589 42.293-9.895 8.13z"/><path fill="#738d56" d="M6.239 229.475l17.905-15.785 28.159 5.772.47 10.483-22.737 3.771z"/><path fill="#446125" d="M6.239 235.6v-6.125l46.534.47-.122 5.777z"/><path fill="#738d56" d="M70.677 234.894l4.359-12.721 25.209-2.005 6.949 14.372-18.021 4.477z"/><path fill="#446125" d="M70.677 241.136v-6.242l36.517-.354v6.125z"/><path fill="#738d57" d="M-46.539 150.547l-9.54 1.295-8.601 20.262 10.485 10.13 4.594-1.177-2.356-6.831-5.654-4.242 4.477-13.191 5.301-.706 6.951.235z"/><path fill="#b8c745" d="M-40.059 123.454l-24.974 104.02 20.733 3.653 18.849-58.432-5.772-49.241z"/><path fill="#d9e354" d="M-10.725 232.182l-33.575-1.055 13.077-107.673 8.835 1.766.47 4.595 16.494 76.926z"/><path fill="#e8f078" d="M-21.918 129.815l28.157 99.66-16.964 2.707z"/><path fill="#99c26d" d="M-46.183 118.977l-.118 7.184 4.712 3.065 9.541 1.295 5.773-5.184-5.183-5.418z"/><path fill="#bfdb8e" d="M-17.676 119.095l-13.782.824-.59 10.602 10.13-.706 4.948-4.243z"/><path fill="#709d53" d="M-32.048 117.918l-14.135 1.059 14.607 1.765 13.9-1.647z"/><path fill="#738d57" d="M-38.409 144.187l2.357 17.549 2.826-.235-.353-8.482 5.536-.706 3.416-5.651-4.357-4.124zM-40.412 166.453l-1.532 13.309 3.771.235.471-4.358 5.654-.354.59 4.595 5.183-1.06-3.417-14.842-3.298.587v6.125l-4.006-.47-.471-4.238zM-37.231 182.234l3.064-.114-.12 12.838-4.592-.823zM-37.231 200.97l-3.298-.358-.706 18.496 16.255 1.181-.118-6.835-12.369 2.241z"/><path fill="none" d="M25.441 9.537l.706 83.873M16.017 12.599l-1.18 75.397M39.223 14.602l1.414 79.044M78.101 19.196l-.707 74.807M1.056 29.918l6.595 2.236"/><path fill="#acc580" d="M-6.484 70.206l-2.709-1.182 7.892-35.573L.82 29.563l1.412 1.179-6.595 37.341z"/><path fill="#8cb362" d="M-3.186 82.225l-6.007-13.201 4.83-.941L.702 80.219z"/><path d="M44.17 18.373c1.693 0 3.063 1.37 3.063 3.063 0 1.692-1.37 3.062-3.063 3.062-1.69 0-3.063-1.37-3.063-3.062.001-1.694 1.373-3.063 3.063-3.063zM44.17 36.514c1.693 0 3.063 1.372 3.063 3.062 0 1.693-1.37 3.064-3.063 3.064-1.69 0-3.063-1.372-3.063-3.064.001-1.691 1.373-3.062 3.063-3.062zM44.17 54.892c1.693 0 3.063 1.372 3.063 3.061 0 1.692-1.37 3.064-3.063 3.064-1.69 0-3.063-1.372-3.063-3.064.001-1.689 1.373-3.061 3.063-3.061zM44.17 71.854c1.693 0 3.063 1.372 3.063 3.064 0 1.688-1.37 3.061-3.063 3.061-1.69 0-3.063-1.372-3.063-3.061.001-1.692 1.373-3.064 3.063-3.064z" fill="#709d53"/><path fill="#cea39f" d="M47.233-35.817L27.206-10.725l12.017 25.327 11.074-6.125L67.142-.83l13.43-9.895-2.594-5.301z"/><path fill="#ffeee9" d="M-14.259-120.046l1.83 85.406L.702-10.49l55.132-.445 24.738-20.523-6.953-92.241-30.626-10.837-43.823 4.122z"/><path fill="#efd0cb" d="M-9.784-83.409L5.06-73.514l9.542 24.974 6.715-1.649 8.364 1.179 11.663-24.504 19.673-9.895-14.844-2.238-13.901 4.592-5.536 4.948-4.36 7.306-3.18-6.716-7.186-4.123-9.66-4.359z"/><path fill="#474747" d="M-19.679-116.513l6.127 31.69-.707-30.511-1.414-7.186z"/><path fill="#737373" d="M-7.781-136.539l-11.898 20.026 5.42 1.179 14.608-8.365v-10.484z"/><path fill="#4f5253" d="M18.843-151.029l-26.624 14.49 8.13 12.84 11.897-6.478z"/><path fill="#474747" d="M16.017-111.212L.349-123.699l18.494-27.33 54.776 3.182-2.472 10.484-16.726 12.722-22.737 12.723z"/><path fill="#4f5253" d="M86.344-137.128l-12.725-10.719-19.198 23.206 28.623-1.179z"/><path fill="#474747" d="M77.035-103.672l-6.358-11.662-16.256-9.307 31.923-12.487 14.255 12.84-1.414 8.954z"/><path fill="#efd0cb" d="M82.225-9.075l11.072-41.114-1.413-29.922-10.135-28.272-3.3-2.358-9.27-5.478-2.617 82.876-10.728 22.408 13.312-.026L67.142-.83z"/><path fill="#4f5253" d="M81.749-66.447l-9.071-15.432 5.771-28.862 11.43 11.31 4.595 13.784z"/><path fill="#4f5253" d="M101.779-101.081l-1.18-23.207-22.15 13.547 6.129 23.326 17.08-4.359z"/><path fill="#474747" d="M86.933-86.944l8.129 7.892 7.188-5.418-.471-16.611z"/><path fill="#ffeee9" d="M81.043-59.85l3.535-27.565 17.672 2.945-6.6 25.564z"/><path fill="#cea39f" d="M86.344-70.569l2.001-10.839 9.547 1.532zM81.043-59.85l12.254 9.661 2.353-8.717z"/><path fill="#474747" d="M32.272-85.059l23.797-5.536 4.948 7.186-28.745 2.354zM14.602-83.644L12.01-79.64l-21.794-3.769 5.539-5.774z"/><path fill="#cea39f" d="M7.298-38.879l8.719 4.947 14.842-.353 14.844-8.718-.118 1.412-13.313 9.425-17.08.708-7.894-6.009z"/><path fill="#efd0cb" d="M12.599-22.741l10.957-4.36 10.248 3.889z"/><path d="M40.755-79.287c2.212 0 4.006 1.794 4.006 4.006s-1.794 4.004-4.006 4.004-4.006-1.792-4.006-4.004c0-2.212 1.794-4.006 4.006-4.006zM6.356-78.934c2.212 0 4.006 1.794 4.006 4.006s-1.794 4.006-4.006 4.006-4.006-1.794-4.006-4.006 1.794-4.006 4.006-4.006z" fill="#2b2c2b"/><path fill="#efd0cb" d="M62.434-51.131l-5.541 2.945-1.059 14.843zM38.634-49.719l11.31 1.533 1.177 12.369-4.595-9.425zM7.889-49.954l-6.363 3.535L5.297-34.64l.471-11.19zM-7.31-47.598l4.359 2.592 1.886 11.545z"/><path fill="#cea39f" d="M14.602-48.54L22.141-41l7.54-8.01z"/><path fill="#fff5f3" d="M19.196-75.517l-.941 13.429-3.653 13.548 7.304 1.413 7.775-1.883-2.592-13.431-.353-13.666z"/><path fill="#d9e354" d="M-33.579 146.305v3.888l4.477-.941v-2.947z"/><path fill="none" d="M-151.5-151.5h399v399h-399z"/></svg>