<svg xmlns="http://www.w3.org/2000/svg" viewBox="0 0 400 400"><g fill-rule="evenodd" clip-rule="evenodd"><path opacity=".1" fill="#33302d" d="M106.27 387.758L197.044 400l96.685-12.242L200.571 378z"/><path fill="#357256" d="M218.478 379.652l-6.385 7.367.394 4.615h33.282l-.179-4.635zM157.543 373.957l-24.24 6.909.276 4.703 52.734.739.361-5.541z"/><path fill="#405b25" d="M149.37 247.169l-3.372 10.025-2.838 6.476-15.081-3.904.709-11.001z"/><path fill="#f2d6d2" d="M128.788 248.765l-7.275-.354-7.098 13.306 17.567 17.922 11.178-15.969-11.178-9.758z"/><path fill="#fef2f0" d="M143.87 238.83l-11.003 3.814-11.354 5.767 3.372 16.68 5.145-1.421 1.952-9.758 10.157-4.615z"/><path fill="#405b25" d="M156.821 210.351l-7.275 4.613-13.154 21.833 2.711 5.757 11.384 9.954 7.754-8.091 14.017-20.582z"/><path fill="#607030" d="M136.392 236.797l-3.525 5.847 4.026 6.952 9.105 7.598 4.489-4.686-3.016-5.191 11.708-24.884-5.195-4.028-11.952 24.212z"/><path fill="#e1e048" d="M176.694 180.189l-13.484-19.52-7.609 30.236-.732 7.867-2.497 4.966-2.826 11.226 4.438 3.441 5.195 4.028 6.159 4.775z"/><path fill="#2d8862" d="M227.31 356.203l-9.486 8.315-5.731 22.501 33.497-.02-4.308-22.291zM170.388 355.137l-8.918 4.828-28.167 20.901 53.371-.099-1.293-18.22z"/><path fill="#47aa7e" d="M172.827 324.176l-11.375 13.111.018 22.678 23.911 2.582 2.742-22.719zM216.086 314.948l-5.079 26.379 6.817 23.191 23.458.19-2.092-27.334z"/><path fill="#5e7736" d="M176.34 257.993l-17.594-3.06 2.706 82.354 6.372.55 4.549-4.781 1.878 5.338 13.872 1.434 6.315-56.818z"/><path fill="#748535" d="M170.841 257.037l-7.203-1.253 4.186 82.053 3.651.316 2.776.241z"/><path fill="#405b25" d="M199.229 258.879l-4.791 24.131 16.569 58.317 14.833-2.081 2.648-9.96 3.611 9.084 7.091-.996-7.091-81.152z"/><path fill="#607030" d="M225.84 339.246l6.259-.876-12.121-82.547-7.236 1.066z"/><path fill="#446629" d="M171.904 240.426l-13.663 4.436.505 10.071 5.023 3.41 4.161.861 3.214 5.081 23.294 18.725 20.159-14.457.542-9.701 6.045 5.173 10.915-7.803-.754-11.538-6.087-6.221z"/><path fill="#667a34" d="M170.116 241.008l-7.071 2.295.035 1.547.689 13.493 7.375 5.942-.816-19.452zM214.597 268.553l6.587-4.528-2.835-19.309.04-.96-7.504-.537-.078 1.516z"/><path fill="#f2d6d2" d="M258.313 262.96l-6.033 9.226-3.549 7.63 19.697 3.194 9.404-9.76zM254.678 246.769l-3.816 5.279-5.678 9.848 8.872 5.322 3.903-12.597z"/><path fill="#405b25" d="M258.491 241.492l-7.629 10.556 1.418 20.138 25.552 1.064-8.163-22.088zM222.117 224.812l9.228 11.621v8.251l-12.996.032-4.709-4.022-2.833 4.041-40.479.098-.085-.045h18.43l-1.419-4.306 1.419-9.4 33.444-6.27zm-58.97 19.976l-.067.063-4.839.012v-.074h4.906z"/><path fill="#5e7736" d="M170.244 244.788l-4.48-2.369-2.617 2.369h-4.906v-8l30.433-5.706v13.706z"/><path fill="#748535" d="M170.328 244.833l-7.248.017-.203-8.931 6.885-1.291z"/><path fill="#405b25" d="M249.975 205.029l15.435 1.774 3.086 32.137-.109 8.979-11.85 1.726-6.768-3.771-4.586-25.942z"/><path fill="#607030" d="M268.487 238.844l1.182 12.318-18.807.886-1.093-6.174 14.311.452-18.897-26.394 7.834-5.084z"/><path fill="#e1e048" d="M230.81 167.412l11.179-6.21 12.739 24.804.845 7.674 3.053-.087 6.784 13.21-12.393 8.045-2.849.489-4.985 4.595-17.567-19.517z"/><path fill="#405b25" d="M215.907 147.894l.842.225-3.85 8.054 15.608-3.298 4.434 2.738 2.301 53.273-4.647 7.556 3.278 2.119-2.528 17.872-12.643.063-5.196-3.384-2.467 3.42-22.321.109-4.431-44.688 8.554-22.589-.152-20.074z"/><path fill="#377759" d="M215.93 148.677l-.193.132 8.155 1.214 4.615 2.852-21.385 13.88-14.309-1.084-.124-16.381 14.339-.862z"/><path fill="#5e7736" d="M188.718 236.641l-18.84.091-5.156-1.159-1.825 1.192-4.656.023.916-14.874 2.675-2.359-2.092-5.738.844-13.777 5.637-32.13 5.046-10.309 4.028-1.535 15.681 4.05 1.713-10.826.152 20.074z"/><path fill="#3d8d69" d="M175.379 156.034l3.945-1.503 8.549-4.951 4.816-.29.124 16.381-9.11-.689z"/><path fill="#748535" d="M169.878 236.732l-3.836.019-3.145.014-.265-11.656-3.453-2.676.561-8.616 9.265 7.178z"/><path fill="#607030" d="M235.242 208.886l-1.369 9.675-14.902 11.658-.269 6.277-7.663.036.701-9.774z"/><path fill="#c0c72b" d="M160.605 200.557l2.605-39.888 8.057-3.068.493 26.298zM232.941 155.613l9.048 5.589-6.747 47.684-17.247-22.138z"/><path d="M189.572 222.701l7.671-11.46 14.782-22.081-.974-11.766-.817-9.872-.715-8.627-1.306-8.242-6.352 1.373-15.017 34.605c-.473-.178 3.129 29.54 2.728 36.07z" fill="#377759"/><path d="M176.494 187.077l8.629 23.507 4.449 12.117.633-10.327s-3.835-25.921-3.36-25.741l15.017-34.605-14.42 3.118-3.369 4.597-7.579 27.334z" fill="#3d8d69"/><path fill="#3d8d69" d="M190.205 212.374l16.409-25.289-1.42-29.543-13.305-.404-2.565 8.366z"/><path fill="#56ad86" d="M189.315 156.299l-7.897 29.278 8.787 26.797 2.636-43.01-.076-10.037-.876-2.189z"/><path d="M233.386 105.884l-9.494 44.139-31.05 19.34-9.48-28.127 8.417-112.223s25.257-3.902 26.97-1.774c1.711 2.128 14.637 78.645 14.637 78.645z" fill="#f2d6d2"/><path fill="#d4a8a2" d="M189.47 129.796l-6.109 11.44 32.369.27-10.343 20.043-12.546 7.815-32.825-36.02zM231.521 94.486l-8.087 1.485 9.952 9.913 1.777-7.9z"/><path fill="#a6914f" d="M227.662 44.094l18.765 7.985-7.098 26.615-12.774 6.21-6.21-.71 1.064-22.179z"/><path fill="#c9b66a" d="M224.425 26.173l9.225 7.098 12.777 18.808-25.018 9.936-12.624-20.203z"/><path fill="#e7d37d" d="M171.372 33.271L153.539 0l72.66 12.512 7.451 20.759-24.865 8.541z"/><path d="M143.604 19.163L125.683 35.31l11.178 14.549s26.108-11.038 25.905-9.936c-.203 1.101-19.162-20.76-19.162-20.76z" fill="#a6914f"/><path fill="#c9b66a" d="M149.281 44.713l-5.946-4.426-9.668-25.206L153.539 0l55.246 41.812-38.567 10.53z"/><path fill="#fef2f0" d="M136.86 49.858v70.697l18.202 20.428 30.994.253 19.609-13.411 3.12-86.013-43.535-.293-21.915-1.232z"/><path d="M147.05 69.243l-7.794 3.063 12.865 9.226s12.055 12.824 11.268 12.687c-.787-.137 8.961 4.294 8.961 4.294l14.139-17.404 15.375-8.74-12.625-2.125-15.915 3.48-3.282 6.655-1.686 4.614-3.372-4.614-2.787-6.3-15.147-4.836z" fill="#f2d6d2"/><path fill="#d4a8a2" d="M166.049 93.032l-4.26 7.81 5.767 5.042 4.793-5.042z"/><path fill="#a6914f" d="M160.458 70.146l-14.471-1.966-6.732 4.125 7.758-.3 15.184 2.073zM174.987 69.805l18.688-1.5 8.187 4.063-10.702-.287-17.837 1.642z"/><path fill="#fef8f8" d="M164.984 80.378l-3.195 20.464h10.56l-2.308-20.464z"/><path fill="#d4a8a2" d="M155.624 114.663l26.216.267-1.064 2.616-24.308-.266z"/><path fill="#fef2f0" d="M225.312 76.919l14.017 1.775-4.166 19.29-11.729-2.013z"/><path fill="#d4a8a2" d="M235.612 82.055l-6.763-.947-1.243 9.502z"/><path fill="#607030" d="M211.039 236.532l-.232 8.203 7.542-.019.353-8.22-4.183-2.724z"/><path fill="#ece877" d="M254.728 186.006l-9.545 33.926 7.834-5.084 5.609-21.255zM152.372 203.738l1.612 14.667 5.195 4.028.561-8.616-4.089-23.109z"/><path fill="#405b25" d="M132.867 242.644l-.885 11.268 14.016 3.282-8.773-9.722z"/><path d="M157.656 81.108c0 2.032-1.646 3.678-3.678 3.678-2.031 0-3.678-1.646-3.678-3.678 0-2.031 1.647-3.678 3.678-3.678 2.031 0 3.678 1.647 3.678 3.678zM190.165 81.108c0 2.032-1.646 3.678-3.678 3.678-2.031 0-3.678-1.646-3.678-3.678 0-2.031 1.647-3.678 3.678-3.678 2.032 0 3.678 1.647 3.678 3.678z" fill="#33302d"/></g></svg>