<svg xmlns="http://www.w3.org/2000/svg" viewBox="0 0 400 400"><path opacity=".1" fill="#34302d" d="M123.933 387.596L243.223 400l102.827-13.107-102.203-8.658z"/><path d="M188.531 377.532c0-.311-13.029 3.822-13.029 3.822l-.078 5.773 46.421.859-.077-7.178-9.831-7.022-23.406 3.746zM249.542 378.704l-8.582 3.9.469 8.113 34.952.233v-7.957z" fill="#386f56"/><path fill="#34785a" d="M262.415 354.284l8.972 10.687 4.994 18.022-35.421-.389 9.596-16.072zM204.76 358.965l-7.569 7.176-21.689 15.213 46.266-.545-.937-14.199z"/><path fill="#5e7736" d="M232.847 289.45l-5.93.467-.547 12.64-3.043 30.897-13.419 18.566-20.518-22.859-10.22-52.741 10.845-27.462 32.611-1.873z"/><path fill="#496427" d="M223.327 333.454l-2.496 33.156-23.64-.469-7.801-36.98z"/><path d="M219.349 260.504l.078 6.867 6.943 34.326 12.405 32.144 25.824 21.377 9.986-33.236 2.964-38.463s-4.602-11.625-11.624-19.504c-8.114-9.049-18.803-14.512-18.88-15.838-.156-2.417-27.696 12.327-27.696 12.327z" fill="#5e7736"/><path fill="#496427" d="M238.775 333.842l11.781 32.69 20.831-1.561 3.199-42.988zM181.588 260.895c-1.794-.547 18.101 19.973 18.101 19.973l26.681 20.83 22.859-20.285 5.149-26.057s-66.627 1.326-67.876 1.014c-1.169-.389-4.914 4.525-4.914 4.525z"/><path fill="#504b4a" d="M190.248 267.135l63.975.547.936-22.39-65.144 3.666z"/><path fill="#798e4d" d="M203.978 251.063l15.449 16.309 18.569-17.086z"/><path fill="#a5c260" d="M196.802 255.122l54.066-.391 7.256-31.441-70.529.156z"/><path fill="#3d8e6a" d="M257.5 206.128l-8.738 23.248 1.481 25.355 14.122 10.377 11.392 6.008 11.858-56.485-10.142-34.328z"/><path fill="#34785a" d="M250.243 254.731l-1.014 26.682 15.371-13.028 15.525 1.873 3.589-30.507-6.164-5.071z"/><path fill="#82c6a5" d="M253.833 237.489l.78 6.865 6.554 10.768 5.929-3.744z"/><path fill="#34785a" d="M259.684 205.971l-10.922 23.405 5.851 14.978.859-27.226z"/><path fill="#aace76" d="M191.574 208.311l4.682 23.094 52.506-2.029 17.71-59.138-73.572 1.405z"/><path fill="#cbdc89" d="M214.434 179.6l6.71 10.142 32.298-14.354 8.661-5.072-7.022-8.66-38.385 8.192z"/><path fill="#dae6b0" d="M192.745 170.784l28.399 18.958-.546-12.482-14.121-14.512-5.775-.468z"/><path fill="#386f56" d="M178.545 183.189l-11.702-2.651-19.116 47.355 19.662 24.498 9.908-13.576z"/><path fill="#50ad83" d="M118.003 233.356l49.386 19.035-15.839-33.859-26.915-6.24-5.463 9.281z"/><path d="M179.872 180.381l-5.929 12.483 3.354 45.951 3.979 27.932 15.526-11.625-.546-23.717s-16.697-50.322-16.384-51.024z" fill="#3d8e6a"/><path fill="#358161" d="M177.297 238.815l1.873 37.605 20.519 4.448-2.887-25.746z"/><path fill="#82c6a5" d="M192.199 238.114l-12.172 12.092 5.695 4.603 4.526-8.504z"/><path fill="#34785a" d="M191.964 218.454l-1.716 27.851 6.008-14.433z"/><path fill="#fef3f2" d="M281.685 253.795l-3.121 7.256-12.014 1.403-2.418 6.32 13.418 14.746 6.164-16.07z"/><path fill="#50ad83" d="M281.452 218.532l-3.902 16.148-11 27.774 16.384 6.476 23.327-35.263z"/><path fill="#34785a" d="M275.834 179.835l13.342-4.916 17.085 58.748-28.711 1.013 1.639-53.831z"/><path fill="#d5aca6" d="M263.429 99.553l4.916 6.398-1.873 11.859-13.107-9.674 1.326-3.902z"/><path fill="#f2d8d4" d="M208.349 158.223l38.462 7.178 8.27-3.745 11.391-43.846-11.781-13.576 6.787-7.957 2.185-42.833-26.214-25.511z"/><path d="M257.968 86.446l-15.604-4.603.311-6.086s18.959 6.632 19.193 6.632c.313.001-3.9 4.057-3.9 4.057z" fill="#ab8982"/><path fill="#4d6439" d="M259.372 82.155l-1.093-5.929-14.277-5.383-1.014 7.723 15.761 4.915z"/><path d="M269.592 44.238l8.504 2.497-5.773 33.548s-9.284-1.093-9.986-.468c-.78.546-4.058-3.589-4.058-3.589l-3.198-20.909 14.511-11.079z" fill="#55463d"/><path d="M258.358 30.195l-1.482-7.646-5.93-11.391s-13.497 8.27-13.263 9.128c.233.858 4.992 16.072 4.992 16.072l15.683-6.163z" fill="#6f5f51"/><path fill="#5e4e42" d="M255.081 55.317l-12.405-18.958 14.2-13.81 21.22 24.186z"/><path fill="#d5aca6" d="M232.612 137.626l-3.668 9.285 24.109-1.327-6.242 19.817-26.213 11.859-19.896-14.98-14.823-21.377z"/><path fill="#5e4e42" d="M166.53 18.649L173.786.002l77.16 11.157-8.27 25.2-54.534 15.603z"/><path fill="#55463d" d="M156.856 23.485l-18.802 30.661 14.745 19.272 22.625-34.797z"/><path fill="#6f5f51" d="M164.657 51.65l-6.865-10.22-8.036-20.441L173.786.002l18.491 42.754z"/><path fill="#fef3f2" d="M157.792 41.43l-5.071 31.129 3.51 12.015-2.262 5.305 9.285 44.627 15.681 15.135 11.937-3.745 31.598 1.405 6.474-.39 14.357-11.703 1.092-53.053-1.717-6.397 1.326-4.681-1.326-34.718-50.399 6.397z"/><path d="M162.083 64.835l-3.277 2.419 13.732 22.313-14.355 10.767 31.207 3.589 8.347-4.057 3.59 3.589 35.966-4.057-6.241-25.668 6.241-8.504s-9.753-3.979-10.064-5.227c-.39-1.326-17.71 8.582-17.71 8.582l-6.008 7.178-16.228-1.717-3.121-5.148s-14.667-5.93-14.356-7.412c.391-1.406-7.723 3.353-7.723 3.353z" fill="#f2d8d4"/><path fill="#5e4e42" d="M178.935 149.641l43.535-2.34 4.524-17.321-9.751 11.157-15.058.858-2.81-7.256h-2.73l-3.354 8.427h-9.285l-10.453-7.802z"/><path fill="#d5aca6" d="M197.503 124.441l-11.312-.078-.234 1.795 12.327 2.028 19.348-6.865-1.56-1.717z"/><path fill="#55463d" d="M216.931 115.157l3.978-1.872 7.022 11.859-10.454-6.632zM183.149 116.483l-6.555.391-4.29 11.624 8.582-7.1z"/><path fill="#d5aca6" d="M193.447 101.66l-4.057 2.262 6.163 4.603 5.774-5.07z"/><path d="M152.721 72.559l1.249 17.32c1.56 3.121 4.214 10.455 4.214 10.455l79.11-.936 7.1-17.242-.391-11.079-91.282 1.482z" fill="#739d46"/><path d="M157.792 76.928l26.136.937 1.169 16.774-23.639.546-3.59-8.972-.076-9.285zm50.4 1.014l29.725-2.34-.156 4.993-4.681 12.951-25.902.625 1.014-16.229z" fill="#cbdc89"/><path d="M221.299 79.581c2.069 0 3.745 1.676 3.745 3.745s-1.676 3.745-3.745 3.745c-2.067 0-3.744-1.677-3.744-3.745s1.676-3.745 3.744-3.745z" fill="#322f2c"/><path d="M157.792 76.928l27.229-.468.077 18.179-4.056-15.058-23.25-2.653zm49.386 17.242l4.759-15.526 25.98-3.043-30.973.546.234 18.023z" fill="#aace76"/><path fill="#fef8f8" d="M189.624 76.46l-.234 27.462 11.937-.467-1.014-27.073z"/><path fill="#5e4e42" d="M193.525 111.88l-16.931 4.994 4.292 4.524 12.405-2.808zM199.766 111.256l21.143 2.029-3.432 5.227-17.086-.234zM206.319 64.445l21.69-6.085 10.22 4.837-.936 2.028-10.221-2.965-17.553 6.32zM184.708 63.743l-15.837-3.979-11.234 5.539 1.169 1.951 10.299-3.042 15.058 4.681z"/><path d="M258.279 76.226l14.044 4.057-3.978 25.668s-14.044-1.249-13.653-1.717c.389-.468 3.587-28.008 3.587-28.008z" fill="#fef3f2"/><path fill="#d5aca6" d="M268.5 84.106l-6.476-2.107-1.325 10.923z"/><path fill="#82c6a5" d="M248.762 229.376l4.68-53.988 7.958-9.285 27.776 8.816z"/><path fill="#69ba96" d="M253.442 175.388l1.639-13.732 34.095 13.263z"/><path fill="#82c6a5" d="M196.256 231.405l4.836-55.004-10.142-4.368-24.107 8.505z"/><path fill="#69ba96" d="M201.092 176.401l-.39-14.121-33.859 18.258z"/><path d="M177.297 80.595c2.068 0 3.745 1.677 3.745 3.745s-1.677 3.745-3.745 3.745-3.744-1.677-3.744-3.745c0-2.069 1.676-3.745 3.744-3.745z" fill="#322f2c"/><g><path fill="#d46654" d="M143.373 226.161l11.323-1.386-11.323 35.066-17.215-15.223z"/><path fill="#af443c" d="M74.05 223.908l-4.16 11.728 17.158 20.952 22.183 9.781 8.607-14.559-34.409-32.08z"/><path fill="#c65b4d" d="M135.92 233.787l5.605 15.481 1.848 10.573-34.142 6.528-.288-10.862v-16.174z"/><path fill="#af443c" d="M135.92 233.787l5.605 15.481-32.582 6.239v-16.174z"/><path fill="#c65b4d" d="M77.747 170.108l-16.175-2.896-6.47 46.591 14.788 21.833 14.327-7.857 13.171-26.355z"/><path fill="#d46654" d="M140.427 181.843l-9.07-15.74-30.041-9.083-39.744 10.192 11.553 14.043 60.08 5.512z"/><path fill="#e8c900" d="M122.113 197.584l32.583-11.168-23.339-20.313v11.157l-31.427 3.995-4.852-11.147-21.953 11.147 7.857 13.48z"/><path fill="#d2b000" d="M80.982 194.735l73.714-8.319v38.359l-13.171 24.493-5.316-6.699-21.027 2.773-6.239 10.165-24.726-27.728z"/><path fill="#fff" d="M131.357 207.907l14.557-5.316v5.316l-14.557 7.626zM115.182 211.14v7.166l-20.104-5.085v-5.083z"/></g></svg>