<svg xmlns="http://www.w3.org/2000/svg" viewBox="0 0 400 400"><path fill="#33302d" d="M1007.5 385.501l112.5 13.5 112.002-15.002L1120 376.503z" opacity=".102"/><path fill="#fef3f1" d="M1158.496 348.501l-58.996-53.5 37.502 3.998L1170 340.002z"/><path fill="#f3d8d4" d="M1074 235.499L1088.001 192l7.499 5.999 2.5 20.501-15 24.499-6.5 3z"/><path fill="#d4aba5" d="M1122 315.498l-22.5-20.497 37.502 3.998 4.496 5.5z"/><path fill="#3d8d69" d="M1154.998 353.501l-9.498-10.999 12.996-10.5 8.504 14.997z"/><path fill="#fef3f1" d="M1047.999 353.501l25.5-64.499 25-1.502 2.5 11.998-40 60.002z"/><path fill="#f3d8d4" d="M1073.498 289.002L1087 255.001l14 44.497-6 9.003z"/><path fill="#3d8d69" d="M1047.999 353.501l6.001-13.499 16.499 5.499-9.5 13.999z"/><path fill="#357759" d="M1057 381.499l4-21.999-11.502.499L1050 373l.5 8.499z"/><path fill="#fef3f1" d="M1046.5 376.503l-5.5-2.501 7-20.501 13 5.999-6.5 7.501-5.5 2.001 1 3.998z"/><path fill="#3d8d69" d="M1015.5 375.001l8-5.001 7-2.001 5.499 3.503 10.501 5.001-5.001 6.498z"/><path fill="#749c47" d="M1154.998 250.5l-1.996-14.498-9.004-4.501-21.498-17.502L1097 229l-12 30.503 1 40.998 13.5 3.499 41.998.499 6-23.501-8.5-11.998z"/><path fill="#a3c261" d="M1149 170.501L1119 166l-30.5 13-2 17.502 10.5 32.499 46.998 2.5L1162 187z"/><path fill="#abce75" d="M1097.498 186.501l42.004 44.5 5-12.5L1107 187.5z"/><path fill="#cbdc8b" d="M1128.502 230.498l7.5 3.503 3.5-3-42.004-44.501-10.998 10.001 3.5 10.001 8-14.502z"/><path fill="#abce75" d="M1128.502 230.498l1.996 6.003 6 2.5 3.004-8z"/><path fill="#fef3f1" d="M1166.5 146.501l-24.498-10.5-30.002.499-8.5-3.998-5.5 8.499 9.5 8.999 2-1.498L1107 171l42-.499z"/><path fill="#6d8147" d="M1147.498 280.499l2.5-11.499-12.498-7.001L1111 269z"/><path fill="#f3d8d4" d="M1172.5 206.502l-6-60.001-17.5 24 3.498 28.501 6.502 13.499z"/><path fill="#fef3f1" d="M1139.502 231.001l12.996-32 20.002 7.501-19.498 29.5h-9.502z"/><path fill="#7fc5a4" d="M1136.498 239.001l3.004-8 13.5 5.001-4.502 7.501-7.002 1.997z"/><path fill="#d4aba5" d="M1125.498 247.501l11-8.5 2.5 6.998-8.998 11.503z"/><path fill="#e1e046" d="M1113.498 245.999l19.502 2.5 21.998 2.001-5 18.5h-13.5l-1.996-5-8.006 5H1111l-2.5-5z"/><path fill="#c0c72d" d="M1110.499 245.5l3 .499L1111 269l-6.001-2.5z"/><path fill="#f3d8d4" d="M1130 257.502l6.498-18.501 12.002 4.502-1.498 15.496-9.502 3z"/><path fill="#fef3f1" d="M1126.496 269l3.504-11.498 17.002 1.497L1136.498 269z"/><path fill="#3d8d69" d="M1082.499 159l-9-2.498-3.499-7.501-.5-5.001 7-7.001L1095 136l3 5.001 2.999 11.499-10.5 5.5z"/><path fill="#56ad86" d="M1093.5 164l-3-6.001 7.5-16.998 15 .998 2.5 6.502 2.5 9.498-4 6.502-10 3z"/><path fill="#3d8d69" d="M1090.499 171l-3 11.501 10 4 9.501.999 10.5-7.5 1.5-10.999-5.001-4.499L1093.5 164z"/><path fill="#357759" d="M1079.5 171l-9 1.502-2.5 8.499.5 6.499 18 9.002 10.998-10.001L1090.5 171z"/><path fill="#56ad86" d="M1067.999 181.001l-7.499-3-4.501-14 9-13.5 5.001-1.5 5.499 4.5 7 5.499-3 12z"/><path fill="#7fc5a4" d="M1078 162.001l1.5 8.999h10.999l3.001-7-3.001-6.001H1081z"/><path fill="#abce75" d="M1062.998 163.499l15.5 2.001-.498-3.499zM1083 182.501l.5-11.501h3.5zM1109 175.002l-17.5-6.502 1.5-2.5zM1108.5 152l-15.5 10.001-1.5-2.5zM1083.999 142.501l4.002 15.499h-4.502z"/><path fill="#3d8d69" d="M1054.5 356.501v10.5L1050 373l-12 1.002-2-2.5-5.002-3.003v-3.998l17.002-11 6-2.001z"/><path fill="#fef3f1" d="M1023.5 370l12.499 1.502-5-7.001z"/><path fill="#357759" d="M1184.002 362.5L1167 346.999l-5.5 9.003 11 6.997 8 4.501z"/><path fill="#f3d8d4" d="M1174.002 367.5l-5.504 3.499-13.5-17.498 12.002-6.502 3.502 9.003-2.004 5.499 4.002 1.498z"/><path fill="#3d8d69" d="M1155.502 391.5v-8.998l1.996-6.503 6.502-2.5 10.002-5.999 2.994 8z"/><path fill="#3d8d69" d="M1160.998 350.502l9.504 5.5 1.998 6.997-5.5 10.5h-3l-5.504 3.004-3.498-3.004v-19.998l1.502-5.499z"/><path fill="#f3d8d4" d="M1155.502 382.502l8.498-9.003h-9.002z"/><path fill="#555554" d="M1110.499 305.002L1110 338.5l9 22.498 77.998-16.495-14.498-59.004-33.502 5.5z"/><path fill="#4f4b49" d="M1104.001 355.502l15 5.496-8.502-55.996-1.999-2.001-10.001.499z"/><path fill="#ece874" d="M1182.5 285.499l-18.5-.998-64.5 18.999 1 .5 10 1.002 2-2.001.998 1.498z"/><path fill="#357759" d="M1126.496 269l-12.998 35.499-3 .503L1123.996 269z"/><path fill="#357759" d="M1098.499 303.5l25.497-34.5 5.002-7.5-2.502 7.5-25.996 35zM1180 286.502l-34.5-26.001 1.502-1.502 35.498 26.5z"/><path fill="#357759" d="M1161.5 285.499l-16-24.998 1.502-1.502L1164 284.501z"/><path fill="#d4aba5" d="M1064.5 253.5l3.5-6.499 12-6.502 3 2.5-3 14.503-6 3.498z"/><path fill="#f3d8d4" d="M1070.499 269l-5.999-15.5 15.501 4.002 1.498 10.999z"/><path fill="#fef3f1" d="M1067.999 247.001l4.501 8 4.499-2.001-.499-7.001 3.501-5.5-6.001-5z"/><path fill="#e9d586" d="M1110 135.501l-5-17.502-6-10.999-10.5 9.001.999 10.5 13 12.499z"/><path fill="#f3d8d4" d="M1156.5 53.501l5.5 45.5-24 37-22.5 12.501 19.002-108.501z"/><path fill="#f9f0aa" d="M1139.996 71.501L1134.502 43l11.996 9.5 2.502 9.999z"/><path fill="#fef3f1" d="M1074 35.5V79l14.5 37.001 38.5.501 7.502-76.501L1109 14.5l-33.5 1.002z"/><path fill="#d4aba5" d="M1115.5 148.502l18.002-34.5-6.502 2.5-25.5-.501z"/><path fill="#fef3f1" d="M1142.002 61.001l-4.002 19L1149.998 83 1154 63.501z"/><path fill="#d4aba5" d="M1142.496 75.499l1.502-9.999 6 1.5zM1138 80.001l9.498 8.999 1.502-.999.998-5z"/><path d="M1143.998 81.5l-7.5 4.999 4.002 13 8-10.999-4.502-7zm-4.002 6.001L1143 86l1.998 2.5-3.5 5.5-1.502-6.499z" fill="#56ad86"/><path fill="#f3d8d4" d="M1075.5 55l12.5 8 9.498 17.999 4.002 1.502 3.5-1.502 12.5-18.5 15-7.499-9.502-4.499L1110 54l-5.5 5-3 2.001-3-2.001-3-3.499-12-5z"/><path fill="#fef9f9" d="M1098.499 59l-1 21.999h7.5L1104.5 59z"/><path fill="#d4aba5" d="M1101 84.5l-3.502-3.5H1105z"/><path fill="#e9d586" d="M1096.001 51.499l-.501 4.002-11.501-3.001-8.499 2.5 7.501-6.5zM1109 51l1 3 13.996-2.001L1132.5 55l-8-6.5z"/><path d="M1117 60.5c1.658 0 3 1.343 3 3.001 0 1.656-1.342 3-3 3-1.656 0-3-1.344-3-3 0-1.658 1.344-3.001 3-3.001" fill="#33302d"/><path fill="#f9f0aa" d="M1082 19.999l16 13.502L1120 35l-13-18.001-25-7.498-4 7.498z"/><path fill="#fff7b4" d="M1074 39.502l8-19.503 1.5-4.998-1.5-5.5-11.501 5.5-10.999 22.5 5.5 2.001zM1102 .999L1082 9.5l38 25.5 7.998-1.5-.498-8z"/><path fill="#e9d586" d="M1102 .999l6.5 8 19 3 12.002-3.499zM1179.002 176l12.996-23.5-2.5-24.999-10.496-11 .496 27z"/><path fill="#f9f0aa" d="M1149.502 18.501l-10-10.001-31.002.499 7.498 9.502L1132 23z"/><path fill="#fff7b4" d="M1161.5 34.501l-11.998-16h-33.504l12 15 14.498 2.999z"/><path fill="#f9f0aa" d="M1179.498 64.5L1161.5 34.501l-33.502-1.001 6 9.001L1161.5 64.5z"/><path fill="#fff7b4" d="M1165.998 75.499L1153.002 68l-19.004-25.499L1156.5 53.5z"/><path fill="#e9d586" d="M1195.498 99.499L1191 98.5l-14.498-7.5-10.504-15.501L1156.5 53.5l22.998 11z"/><path fill="#f9f0aa" d="M1207.5 102l-28.002-37.5L1191 98.501l10.002 5z"/><path fill="#fff7b4" d="M1201.002 112.5l7.5-.499L1207.5 102l-16.5-3.499z"/><path fill="#f9f0aa" d="M1229.502 124.502l-28.5-12.002 6.498-10.5zM1191 98.501l6.502 34.5-1.502 16.5-4.002 2.999-2.5-24.999-4.496-15.5z"/><path fill="#e9d586" d="M1210 164l-12.498-30.999-5.504 19.499z"/><path fill="#fff7b4" d="M1191 98.501l-11.998 18.001 10.496 10.999 1.502-17z"/><path fill="#f9f0aa" d="M1153.002 68.001l5 33.5 21 15.001L1191 98.501 1165.998 75.5z"/><path fill="#fff7b4" d="M1144.998 104.999l5 12.501 4.002-.499 8-30.502L1153.002 68z"/><path fill="#e9d586" d="M1165.502 119l-3.502 4.499-8-6.498 8-30.502 8 14.001z"/><path fill="#fff7b4" d="M1179.002 116.502l-4.506 6.499-8.994-4L1170 100.5z"/><path fill="#fff7b4" d="M1164.5 149.5l-11-16.499.5-16 11.502 1.999 11 19.5-15.504 45.999z"/><path fill="#f9f0aa" d="M1142.496 116.001l2.006 15.499 5.496 9.501 14.502 8.5-10.5-32.5-9.002-12.001z"/><path fill="#fff7b4" d="M1138 136l11.998 5.001-7.502-25.001z"/><path fill="#f9f0aa" d="M1160.998 184.499l10-40-5.496-25.499 13.5-2.499.496 27zM1059.5 37.501l9-28h13.5z"/><path fill="#f9f0aa" d="M1062 61.5l-2.5-24 14.5 2.001V79z"/><path fill="#3d8d69" d="M1088.5 90.501h28l-15 12.5z"/><path fill="#fff" d="M1093 92.001h19.5l-8 6.001h-5.5z"/><path d="M1089 60.5c1.655 0 3 1.343 3 3.001 0 1.656-1.345 3-3 3-1.656 0-3-1.344-3-3 0-1.658 1.344-3.001 3-3.001" fill="#33302d"/><path d="M1091 105.5c.553 0 1 .449 1 1 0 .553-.447.999-1 .999-.551 0-1-.446-1-.999 0-.551.449-1 1-1" fill="#d4aba5"/><path fill="#fff7b4" d="M1088.5 116.001l-12-4.5-2.5-32.5z"/><path fill="#f9f0aa" d="M1098 141.001l-21.5-29.5 12 4.5 5.999 9.499 8 13.5zM1138 136l3 35 8.502-16.5.496-13.499z"/><path fill="#fff7b4" d="M1151.5 191.002l-2.5-20.501.998-29.499 14.502 8.499z"/><path fill="#cbdc8b" d="M1149.502 206.502l-37.5-23.001-5.002 3.998 37.502 31.001z"/><path fill="#abce75" d="M1093.5 217.502l5-18.001 22 30.498 7.498 6.502.504-6.003L1098 192l-8 14.502z"/><path fill="#a3c261" d="M1120.5 229.999l4.998 17.502 11-8.5-7.996-8.503z"/><g><path fill="#33302d" d="M88.001 389.215l116.26 12.795 115.744-14.219-115.744-7.103z" opacity=".102"/><path fill="#fef3f1" d="M238.555 359.56l-69.978-52.982 44.483 3.959 39.139 40.606z"/><path fill="#f3d8d4" d="M137.145 246.891l17.793-42.315 8.895 5.94 2.965 20.302-16.938 24.139-8.563 3.094z"/><path fill="#d4aba5" d="M195.265 326.877l-26.688-20.299 44.483 3.959 5.333 5.447z"/><path fill="#3d8d69" d="M234.405 364.512l-11.265-10.893 15.415-10.398 10.087 14.851z"/><path fill="#fef3f1" d="M119.175 339.258l18.563-38.621 29.652-1.489 2.965 11.885-31.471 35.639z"/><path fill="#f3d8d4" d="M137.737 300.637l16.015-33.67 16.604 44.066-7.569 8.57z"/><path fill="#3d8d69" d="M112.828 352.627l6.347-13.369 20.97 6.002-11.898 13.308z"/><path fill="#357759" d="M123.504 380.353l4.744-21.785-13.642.495.595 12.872.593 8.418z"/><path fill="#fef3f1" d="M111.049 375.406l-6.523-2.476 8.303-20.303 15.419 5.941-7.71 7.428-6.523 1.981 1.186 3.958z"/><path fill="#3d8d69" d="M74.28 373.918l9.489-4.953 8.303-1.981 6.522 3.469 12.456 4.953-5.932 6.434z"/><path fill="#749c47" d="M234.405 262.508l-2.369-14.356-10.679-4.459-25.5-17.332-30.246 14.856-14.216 30.706 1.29 39.995 15.892 3.57 49.816.496 7.116-23.273-10.081-11.881z"/><path fill="#a3c261" d="M227.29 183.284l-35.582-4.457L155.53 191.7l-2.373 17.333 6.555 7.895 1.594 13.164 4.305 11.127 55.746 2.474 21.352-44.07z"/><path fill="#abce75" d="M166.203 199.128l49.821 44.071 5.93-12.379-44.48-30.701z"/><path fill="#cbdc8b" d="M202.979 242.699l8.895 3.471 4.15-2.971-49.821-44.072L153.078 209l4.005 10.178 9.716-14.602z"/><path fill="#abce75" d="M202.979 242.699l2.367 5.947 7.115 2.475 3.563-7.922z"/><path fill="#fef3f1" d="M248.048 159.517l-29.059-10.398-35.585.494-10.083-3.96-6.522 8.417 2.841 10.646 7.834 19.062 49.816-.494z"/><path fill="#6d8147" d="M225.509 292.217l2.965-11.387-14.824-6.933-31.433 6.933z"/><path fill="#f3d8d4" d="M255.164 218.938l-7.116-59.42-20.758 23.767 4.148 28.225 7.714 13.369z"/><path fill="#fef3f1" d="M216.024 243.199l15.414-31.691 23.726 7.43-23.128 29.214h-11.269z"/><path fill="#7fc5a4" d="M212.461 251.121l3.563-7.922 16.012 4.953-5.34 7.426-8.303 1.981z"/><path fill="#d4aba5" d="M199.414 259.537l13.047-8.416 2.967 6.93-10.675 11.392z"/><path fill="#e1e046" d="M185.182 258.051l23.129 2.476 26.094 1.981-5.931 18.322h-16.013l-2.368-4.953-9.494 4.953h-18.382l-2.965-4.953z"/><path fill="#c0c72d" d="M181.624 257.559l3.559.492-2.966 22.779-7.116-2.476z"/><path fill="#f3d8d4" d="M204.753 269.443l7.708-18.322 14.235 4.457-1.776 15.348-11.27 2.971z"/><path fill="#fef3f1" d="M200.599 280.83l4.154-11.387 20.167 1.483-12.459 9.904z"/><path fill="#3d8d69" d="M120.538 355.598v10.398l-5.337 5.939-14.234.995-2.372-2.477-5.932-2.973v-3.958l20.166-10.895 7.116-1.98z"/><path fill="#fef3f1" d="M83.769 368.965l14.825 1.488-5.93-6.931z"/><path fill="#357759" d="M253.091 365.252l-20.166-15.35-6.524 8.914 13.046 6.93 9.491 4.459z"/><path fill="#f3d8d4" d="M241.229 370.205l-6.529 3.465-16.01-17.328 14.235-6.44 4.154 8.914-2.379 5.448 4.747 1.482z"/><path fill="#3d8d69" d="M219.287 393.971v-8.911l2.368-6.439 7.712-2.476 11.862-5.94 3.552 7.92z"/><path fill="#3d8d69" d="M225.806 353.371l11.273 5.445 2.368 6.93-6.522 10.399h-3.558l-6.528 2.976-4.149-2.976v-19.803l1.78-5.447z"/><path fill="#f3d8d4" d="M219.287 385.06l10.08-8.915H218.69z"/><path fill="#555554" d="M181.624 316.482l-.593 33.174 10.677 22.279 92.514-16.335-17.198-58.43-39.735 5.445z"/><path fill="#4f4b49" d="M173.916 366.494l17.793 5.441-10.085-55.453-2.371-1.982-12.414.65z"/><path fill="#ece874" d="M267.025 297.17l-21.942-.988-76.506 18.814 1.187.492 11.861.994 2.373-1.982 1.184 1.484z"/><path fill="#357759" d="M200.599 280.83l-15.417 35.154-3.558.498 16.01-35.652z"/><path fill="#357759" d="M166.839 315.15l30.795-34.32 5.676-7.428-2.711 7.428-31.066 34.658zM264.06 298.162l-40.92-25.75 1.78-1.486 42.105 26.244z"/><path fill="#357759" d="M242.117 297.17l-18.977-24.758 1.78-1.486 20.163 25.256z"/><path fill="#d4aba5" d="M125.685 265.158l4.769-7.599 13.422-6.399 5.984 3.797-4.411 14.486-7.117 3.465z"/><path fill="#f3d8d4" d="M134.179 280.83l-8.494-15.672 19.765 4.285 1.777 10.893z"/><path fill="#fef3f1" d="M130.454 257.559l6.1 9.966 5.335-2.541-2.143-6.933 4.13-6.891-6.731-4.269z"/><path fill="#e9d586" d="M184.536 160.135l-11.252-20.361-7.346-13.045-12.856 10.676 1.223 12.454 17.83 14.826z"/><path fill="#f3d8d4" d="M236.338 63.272l6.733 53.968-26.7 32.323-31.835 10.572-2.069-22.475 26.936-90.4z"/><path fill="#f9f0aa" d="M216.134 84.623l-6.731-33.806 14.69 11.268 3.062 11.86z"/><path fill="#fef3f1" d="M135.329 41.92v51.597l17.753 43.887 31.481-.001 19.345-19.571 5.495-70.572-31.222-30.248-41.016 1.189z"/><path fill="#d4aba5" d="M184.536 160.135l20.49-22.732-36.026.001z"/><path fill="#fef3f1" d="M219.809 67.719l-4.899 22.537 14.689 3.557 4.9-23.128z"/><path fill="#d4aba5" d="M220.417 84.916l1.837-11.86 7.345 1.779zM214.91 90.255l11.628 10.674 1.84-1.185 1.221-5.931z"/><path d="M222.254 92.034l-9.184 5.929 4.9 15.419 9.793-13.045-5.509-8.303zm-4.898 7.118l3.677-1.781 2.445 2.966-4.284 6.523-1.838-7.708z" fill="#56ad86"/><path fill="#f3d8d4" d="M137.165 61.753l15.001 10.718 11.933 23.417L169 97.67l4.283-1.782 14.081-22.378 17.662-12.183-10.373-2.956-17.525 4.368-4.457 7.056L169 72.169l-2.968-2.374-4.023-7.056-16.203-3.941z"/><path fill="#fef9f9" d="M166.032 69.795l-2.44 26.095 10.395-.002-1.316-26.093z"/><path fill="#d4aba5" d="M168.386 100.041l-4.794-4.151 10.395-.002z"/><path fill="#e9d586" d="M160.989 58.114l1.02 4.625-16.203-3.941-8.641 2.955 8.302-5.538zM178.28 58.273l-1.152 4.466 17.525-4.368 10.373 2.956-10.143-5.112z"/><path d="M184.535 68.609c2.203 0 3.987 1.729 3.987 3.862 0 2.131-1.784 3.86-3.987 3.86-2.199 0-3.985-1.729-3.985-3.86 0-2.134 1.786-3.862 3.985-3.862M156.15 68.609c2.204 0 3.987 1.729 3.987 3.862 0 2.131-1.783 3.86-3.987 3.86-2.199 0-3.984-1.729-3.984-3.86 0-2.134 1.785-3.862 3.984-3.862" fill="#33302d"/><path fill="#f9f0aa" d="M145.124 23.535l19.589 16.015 26.936 1.778-15.918-21.351-30.607-8.894-4.897 8.894z"/><path fill="#fff7b4" d="M135.329 46.668l9.795-23.133 1.836-5.929-1.836-6.523-14.08 6.523-13.468 26.688 6.734 2.374zM169.611.999l-24.487 10.084 46.525 30.246 9.793-1.78-.607-9.488z"/><path fill="#e9d586" d="M169.611.999l7.958 9.489 23.266 3.559 14.692-4.151zM263.889 208.57l15.912-27.873-3.061-29.652-12.851-13.046-3.062 19.57 3.668 12.454z"/><path fill="#f9f0aa" d="M227.77 21.759L215.527 9.896l-37.958.592 9.181 11.271 19.591 5.336z"/><path fill="#fff7b4" d="M242.46 40.736l-14.69-18.977h-41.02l14.692 17.791 17.752 3.557z"/><path fill="#f9f0aa" d="M264.495 76.319L242.46 40.736l-41.018-1.187 7.346 10.676 33.672 26.094z"/><path fill="#fff7b4" d="M247.966 89.365l-15.911-8.895-23.267-30.245 27.55 13.047z"/><path fill="#e9d586" d="M284.085 117.832l-5.509-1.185-17.749-8.896-12.861-18.386-11.628-26.093 28.157 13.047z"/><path fill="#f9f0aa" d="M298.779 120.797l-34.284-44.479 14.081 40.33 12.246 5.93z"/><path fill="#fff7b4" d="M290.822 133.252l9.185-.592-1.228-11.863-20.203-4.149z"/><path fill="#f9f0aa" d="M325.72 147.487l-34.898-14.235 7.957-12.455zM278.576 116.648l7.964 40.921-1.838 19.571-4.901 3.556-3.061-29.652-5.506-18.384z"/><path fill="#e9d586" d="M301.842 194.337l-15.302-36.768-6.739 23.128z"/><path fill="#fff7b4" d="M278.576 116.648l-14.687 21.351 12.851 13.045 1.836-20.164z"/><path fill="#f9f0aa" d="M232.055 80.471l6.122 39.735 25.712 17.793 14.687-21.351-30.61-27.283z"/><path fill="#fff7b4" d="M222.255 124.355l6.122 14.828 4.9-.592 9.794-36.179-11.016-21.942z"/><path fill="#e9d586" d="M247.359 140.962l-4.288 5.336-9.794-7.707 9.794-36.179 9.797 16.607z"/><path fill="#fff7b4" d="M263.889 137.999l-5.517 7.708-11.013-4.744 5.509-21.944z"/><path fill="#fff7b4" d="M246.133 177.139l-13.466-19.57.61-18.978 14.082 2.371 13.468 23.129-4.899 54.847z"/><path fill="#f9f0aa" d="M219.194 137.404l2.453 18.384 3.062 11.271 21.424 10.081-12.856-38.55-11.022-14.235z"/><path fill="#fff7b4" d="M213.688 156.417l11.021 10.642-5.515-29.656z"/><path fill="#f9f0aa" d="M255.928 218.938l-1.838-47.731-6.731-30.245 16.53-2.963.606 32.024zM117.576 44.294l11.02-33.211h16.527zM120.637 72.76l-3.061-28.466 17.753 2.373v46.85z"/><path fill="#3d8d69" d="M153.082 107.158l4.687-.014 6.229-2.545 4.249 2.559 4.474-2.559 9.957 2.845 4.686-.286-14.19 13.116-8.317.175z"/><path fill="#fff" d="M158.591 108.938h23.876l-9.796 7.117h-6.733z"/><path d="M159.816 122.577c.676 0 1.223.534 1.223 1.187 0 .657-.546 1.185-1.223 1.185-.676 0-1.225-.528-1.225-1.185 0-.653.55-1.187 1.225-1.187" fill="#d4aba5"/><path fill="#fff7b4" d="M153.082 137.404l-14.692-5.338-3.061-38.548z"/><path fill="#f9f0aa" d="M164.713 167.058l-26.323-34.991 14.692 5.338 7.346 11.267 9.794 16.013zM213.688 156.417l3.135 26.916 8.909-9.509-1.023-6.765z"/><path fill="#fff7b4" d="M231.438 211.51l-6.729-44.451 21.424 10.081z"/><path fill="#cbdc8b" d="M227.887 218.938l-44.481-22.779-5.932 3.96 44.48 30.699z"/><path fill="#abce75" d="M161.306 230.092l6.085-18.088 26.179 30.455 18.891 8.662-45.662-46.545-9.716 14.602z"/><path fill="#a3c261" d="M193.57 242.459l5.844 17.078 13.047-8.416-8.214-8.373z"/><g><path fill="#3d8d69" d="M152.499 186.523l-10.674-2.759-4.151-8.282-.593-5.523 8.35-9.824 20.772-2.021 5.932 6.571 2.307 14.66-12.454 6.074z"/><path fill="#56ad86" d="M165.548 188.457l-3.559-5.943 10.146-17.829 16.541 1.984 2.966 6.439 2.964 10.5-4.744 5.345-11.859 2.971z"/><path fill="#3d8d69" d="M161.988 195.388l-3.558 11.39 11.86 3.96 11.27.991 12.454-7.428 1.781-10.892-5.934-4.455-24.313-.498z"/><path fill="#357759" d="M148.942 195.388l-10.675 1.488-2.966 8.416.594 6.437 21.27 8.88 13.125-9.871-8.301-15.35z"/><path fill="#56ad86" d="M135.3 205.292l-8.894-2.971-5.338-13.864 10.675-13.369 5.931-1.485 6.522 4.456 8.303 5.445-3.558 11.884z"/><path fill="#abce75" d="M129.37 187.961l18.384 1.981-.591-3.465zM153.094 206.778l.592-11.39h4.153zM183.275 199.352l-20.757-6.439 1.78-2.476zM182.153 176.648l-18.385 11.043-1.779-2.759zM154.278 168.305l4.747 17.114h-5.339z"/><path fill="#7fc5a4" d="M147.164 186.477l1.778 8.912h13.046l3.56-6.932-3.56-5.943h-11.266z"/></g><path fill="#f3d8d4" d="M192.318 97.964l12.708-9.873-3.882 8.647zM137.829 90.551l9.762 8.005-9.13-2.666z"/></g></svg>