<svg xmlns="http://www.w3.org/2000/svg" width="150" height="150" viewBox="0 0 150 150"><g fill-rule="evenodd" clip-rule="evenodd"><path fill="#3F8E6F" d="M29.579.904l18.472 5.702L70.508 9.02l-2.47 4.037.511 6.401-9.169 23.338 2.837 10.405-6.705-3.461-3.808 1.12-4.924 1.307-3.97 4.663 5.556 13.167 7.146 5.357 5.757 7.144 6.769.794 14.071-1.944 5.574-4.446 10.676-6.905 7.678-13.167-1.183-3.545-6.187-1.403-4.354-2.142-7.682 3.461V31.153l-6.333-11.695 1.811-4.67-3.77-5.768 29.574-3.344L119.268.904l.883 4.772 6.771 4.771-3.343 14.726 4.605 18.777 9.608 16.942 12.104 12.521-7.277 11.347-4.827 23.633-2.726 8.944 2.726 14.294-2.568 7.057 2.568 10.408-24.44-2.448-18.253 2.448 9.127-5.204 2.34-5.204-2.656-7.057-8.811-4.94 8.162-11.115 5.775-16.054-2.47-5.272-4.498-2.108-12.331-2.587-7.628 1.851-2.746 1.585-1.025 4.589-4.009 2.492.236 3.685-7.317-6.177-6.86-2.885-6.64-2.553-9.581.675-2.727.489-1.628 6.216 6.405 17.815 7.531 9.354-8.162 5.795-3.305 6.202 4.499 6.859 6.968 3.549-17.118-2.448-25.575 2.448 2.536-7.483-2.536-9.982 3.166-15.194-3.166-16.915-2.923-17.545L.104 65.474l10.951-8.5 9.609-13.024 3.158-19.092-1.897-14.411 5.985-4.771z"/><path fill="#EBBEA7" d="M87.683 76.902L68.445 83.16l4.743 3.735 8.921 4.511 19.959.736-6.969-9.644z"/><path fill="#C2927D" d="M51.704 50.86l-8.894 5.97-3.649-3.545-2.531-5.781 7.537.642z"/><path fill="#FCDAC7" d="M68.549 19.458l-6.332 33.743-16.631-11.073-7.362-6.116-.136-3.679 1.675-4.099 4.404-.622 2.701 1.718 1.144-5.705 3.604-7.485 8.772.851z"/><path fill="#EBBEA7" d="M38.224 36.012l23.993 17.189-41.553-9.251zM.104 65.474l10.951 34.048 4.503-17.024.602-12.501-6.266-2.734z"/><path fill="#C2927D" d="M98.667 51.882l7.37 4.948 5.584-1.957 6.608-5.133h-10.316z"/><path fill="#FCDAC7" d="M55.512 75.354l26.597 16.052-3.771 6.174-7.078-3.29-6.927-4.735-1.195 2.965-2.75 2.175-16.221-1.878 4.317-9.424zM80.298 19.458l6.333 33.743 15.436-9.251 8.557-7.938v-4.269l-1.54-3.509-3.047-.268-4.058 1.364-.979-5.705-3.769-7.485-8.741.497z"/><path fill="#EBBEA7" d="M110.624 36.012L86.631 53.201l31.598-3.461 9.955-5.79z"/><path fill="#FCDAC7" d="M149.896 73.413l-12.104 34.98-5.283-3.364-4.325-5.507.903-13.055 2.783-11.113 7.72-1.941z"/><path fill="#E0B69E" d="M60.388 94.695l3.945-5.14 14.005 8.025-3.773 6.177z"/><path fill="#35785E" d="M42.281 138.688l11.467 10.408H11.055l19.609-8.074z"/><path fill="#3F8E6F" d="M39.812 99.522l13.936 27.169-11.467 11.997-2.885-19.583zM68.549 19.458L51.616 16.14l-4.748 13.19-7.105-1.096-1.539 7.778-17.56 7.938 1.261-33.503 10.476-7.145L70.508 9.02z"/><path fill="#53AF8A" d="M70.508 9.02l-48.583 1.427L29.579.904z"/><path fill="#98C16D" d="M20.664 43.95l4.77 19.892 6.05 11.512 2.13 10.084 6.198 14.084 15.7-24.168-18.882-27.85z"/><path fill="#709D53" d="M20.664 43.95L16.16 61.6v8.397l6.243 3.416 9.081 1.941z"/><path fill="#98C16D" d="M20.664 43.95L.104 65.474l16.056 4.523z"/><path fill="#738D56" d="M16.16 69.997l15.324 5.357 8.328 24.168-14.378 2.203-14.379-2.203z"/><path fill="#73C6A4" d="M11.055 99.522v32.109l15.613-5.596 14.267-8.698-1.123-17.815z"/><path fill="#53AF8A" d="M11.055 131.631l29.88-14.294 1.346 21.351-31.226 10.408z"/><path fill="#4D6F36" d="M106.566 138.688l-11.467 10.408h42.693l-19.563-8.192z"/><path fill="#709D53" d="M80.298 19.458l16.933-3.318 4.748 13.19 7.105-1.096 1.54 7.778 17.56 7.938-1.262-33.503-9.164-6.044L78.339 9.02z"/><path fill="#738D56" d="M109.036 99.522l-13.937 27.169 11.467 11.997 3.14-20.494z"/><path fill="#98C16D" d="M78.339 9.02l48.583 1.427-7.654-9.543z"/><path fill="#73C6A4" d="M128.184 43.95l-3.582 14.936-4.451 8.376-3.041 12.158-8.074 20.102-3.552-27.301.553-15.391z"/><path fill="#53AF8A" d="M128.184 43.95l3.686 18.83v12.574l-11.719-8.091z"/><path fill="#73C6A4" d="M128.184 43.95l21.712 29.463-18.026 1.941z"/><path fill="#98C16D" d="M137.792 108.393v23.238l-17.641-7.13-12.238-7.164 1.123-17.815 10.138-1.942 9.01 1.942z"/><path fill="#709D53" d="M137.792 131.631l-29.879-14.294-1.347 21.351 31.226 10.408z"/><path fill="#3F8E6F" d="M131.87 75.354l-11.719-8.091-11.115 32.259h19.148zM106.037 56.83L87.683 76.902l21.353 22.62z"/></g></svg>