<svg xmlns="http://www.w3.org/2000/svg" viewBox="0 0 150 150"><path fill-rule="evenodd" clip-rule="evenodd" fill="#54B08B" d="M126.967 31.063L150 55.167l-11.784 59.992-16.069-16.605z"/><path fill-rule="evenodd" clip-rule="evenodd" fill="#35785D" d="M126.432 94.269l-65.884 32.557L69.922 150l68.294-34.841z"/><path fill-rule="evenodd" clip-rule="evenodd" fill="#54B08B" d="M64.833 131.111L.02 89.882l12.214 33.634L69.922 150z"/><path fill-rule="evenodd" clip-rule="evenodd" fill="#99C26D" d="M126.432 94.269L83.045 65.345.02 89.882l64.813 41.229z"/><path fill-rule="evenodd" clip-rule="evenodd" fill="#BFDB8E" d="M87.554 72.191l13.907-22.756 25.506-18.372-.535 63.206zM83.045 69.63L49.462 46.836l-30.159-12.14L.02 89.882z"/><path fill-rule="evenodd" clip-rule="evenodd" fill="#99C26D" d="M19.303 34.696L69.654 0l57.313 31.063-39.413 41.128z"/><path fill-rule="evenodd" clip-rule="evenodd" fill="#3F8F6F" d="M79.295 18.208l9.106 7.397-5.356 21.528-5.892-11.04zM76.617 56.05l10.937 16.141-14.419 42.968-5.624-11.784z"/><path fill-rule="evenodd" clip-rule="evenodd" fill="#35785D" d="M83.045 47.133l-19.819 3.214-2.678-6.56 10.815-6.581 7.932-1.113zM69.654 104.446l3.481 10.713-22.229-5.356-4.82-15.534 13.931 3.873z"/><path fill-rule="evenodd" clip-rule="evenodd" fill="#54B08B" d="M58.267 56.05h18.35l-6.963 48.396-23.568-10.177zM61.351 21.422l17.944-3.214v17.885l-18.747 7.694z"/></svg>