<svg xmlns="http://www.w3.org/2000/svg" width="150" height="150" viewBox="0 0 150 150"><g fill-rule="evenodd" clip-rule="evenodd"><path fill="#98C16D" d="M66.729 138.102v9.369h14.459l-11.971-13.266-1.612.609z"/><path fill="#709D53" d="M66.729 138.102l-1.102-3.897-1.518-.178-12.464 13.444h15.084z"/><path fill="#EBBEA7" d="M43.734 29.862l1.915 7.449 3.884 1.533 2.766-6.531-.597-6.532-4.97 1.673zM100.646 47.052h4.518l4.149-7.933-2.536-3.32-4.093-2.169-2.038 5.79z"/><path fill="#FCDAC7" d="M51.702 25.781l-4.97 29.931 26.439 5.517 24.793 3.502 4.72-31.101-10.321-12.306-12.8-8.547-13.936 4.398zM33.066 53.458l-18.723-3.93 15.852 15.203 2.871-6.218zM114.735 67.462l16.787 2.745-17.133 9.2-.778-5.972z"/><path fill="#EBBEA7" d="M131.522 70.207l18.434-10.75-5.26 13.055zM14.343 49.528L.044 33.232v13.82zM66.729 116.116l-1.102 6.984 1.102 15.002 13.765-21.549-7.323-.892z"/><path fill="#DAB099" d="M66.729 116.116l-6.728-1.206-7.702.751 14.43 22.441z"/><path fill="#3F8E6F" d="M62.644 58.513l-29.578-5.055-4.495 17.648 21.45 8.301 8.797-10.368zM83.698 62.22l31.037 5.242-.547 18.87-21.637 1.551-5.787-11.766z"/><path fill="#EBBEA7" d="M65.553 26.698l6.766 8.247 7.003 1.209 9.093-5.686-7.921-1.49-6.989-1.115z"/><path fill="#709D53" d="M52.299 22.183L31.94 15.998l1.126 19.328 18.636-9.545 1.625-2.256z"/><path fill="#98C16D" d="M103.138 30.636h19.72l-3.968 16.416-16.206-13.422-.543-2.204z"/><path fill="#A0CF7E" d="M81.755 2.529v5.982l-2.192 4.266-27.861 13.004 2.967-17.873z"/><path fill="#709D53" d="M79.563 12.777l23.121 20.853 2.48-16.344L81.755 2.529zM65.362 26.669l8.84-3.144-.697 4.338zM88.415 30.468l-7.187-6.029-.734 4.539z"/><path fill="#FDE9E0" d="M73.505 27.863L71.057 42.48l7.027 1.255 2.41-14.757z"/><circle cx="84.455" cy="36.154" r="3.266"/><circle cx="67.791" cy="33.232" r="3.266"/><path fill="#C2927D" d="M71.057 42.48l3.145 3.033 3.882-1.778zM60.001 44.35l29.076 4.942-11.867 5.414-8.255-1.376z"/><path fill="#FFF" d="M65.362 46.53l4.338 5.481 7.284 1.207 6.714-3.635z"/><path fill="#73C6A4" d="M50.021 79.407l19.761 6.717 24.035 5.432L83.698 62.22l-7.923 4.213-4.718 6.079-3.266-7.781-5.147-6.218z"/><path fill="#C2927D" d="M62.644 58.513l8.413 13.999L83.698 62.22z"/><path fill="#53AF8A" d="M50.021 79.407l29.965 8.313-15.461 9.439-35.954 17.751z"/><path fill="#35785E" d="M95.751 97.159l-23.265 7.88-43.915 9.871 51.415-27.19 13.831 3.836z"/><path fill="#3F8E6F" d="M28.571 114.91l74.113 2.343-6.933-20.094z"/></g></svg>