<svg xmlns="http://www.w3.org/2000/svg" viewBox="0 0 150 150"><path fill="#A0CF7E" d="M148.167 79.958l-22.655-37.067-23.429 36.234-1.833-1.287 25.238-38.729L150 78.75zM52.212 80.828L24.473 60.622 1.708 75.375 0 74l22.5-14.595 2.027-1.217L54.534 79.75z"/><path fill-rule="evenodd" clip-rule="evenodd" fill="#BFDB8E" d="M90.75 33.25L125.5 39l-25.218 4.344L88 42.486z"/><path fill-rule="evenodd" clip-rule="evenodd" fill="#709D53" d="M95 52.891L125.5 39 88 42.486z"/><path fill-rule="evenodd" clip-rule="evenodd" fill="#72C9A6" d="M103.25 130.405L72.84 118.25 46.5 126.5l17 14.25z"/><path fill-rule="evenodd" clip-rule="evenodd" fill="#54B08B" d="M46.5 126.5l-3.5 8L62.25 150l3.818-9.314-2.568-2.936z"/><path fill-rule="evenodd" clip-rule="evenodd" fill="#3F8F6F" d="M63.5 137.75L62.25 150l45.5-8-4.5-11.595z"/><path fill-rule="evenodd" clip-rule="evenodd" fill="#99C26D" d="M65.409 70.838l.454 56.224L71.84 130l5.7-43.234-3.79-23.516z"/><path fill-rule="evenodd" clip-rule="evenodd" fill="#709D53" d="M73.75 63.25L88 62l-10.487 66.717L71.84 130z"/><path fill-rule="evenodd" clip-rule="evenodd" fill="#3F8F6F" d="M48 59.405l17.409 11.433L71.75 28l-20.25.891z"/><path fill-rule="evenodd" clip-rule="evenodd" fill="#35785D" d="M69.75 30l7.5-3.5 15-1 8 37.75-34.841 7.588z"/><path fill-rule="evenodd" clip-rule="evenodd" fill="#72C9A6" d="M51.5 28.891L75 0l-1.455 24.187L69.75 30z"/><path fill-rule="evenodd" clip-rule="evenodd" fill="#54B08B" d="M75 0l17.25 25.5-22.5 4.5z"/><path fill-rule="evenodd" clip-rule="evenodd" fill="#BFDB8E" d="M50.115 42.486L61 46.376l-12.827 6.341L22.5 59.405z"/><path fill-rule="evenodd" clip-rule="evenodd" fill="#709D53" d="M61 46.376l1.25 13.029H22.5z"/><path fill-rule="evenodd" clip-rule="evenodd" fill="#35785D" d="M0 74l25-4.25L29.5 100z"/><path fill-rule="evenodd" clip-rule="evenodd" fill="#54B08B" d="M25 69.75l29.534 10-19.425 11.126L27.5 103z"/><path fill-rule="evenodd" clip-rule="evenodd" fill="#35785D" d="M100.25 77.838l27.25-7.588 1.276 25.25z"/><path fill-rule="evenodd" clip-rule="evenodd" fill="#54B08B" d="M127.5 70.25l22.5 8.5-15.59 11.406-5.634 5.344z"/><path fill="#A0CF7E" d="M25.5710397 59.8191104l1.2744205 21.166831-1.9964.1202-1.2744205-21.166831z"/><path fill-rule="evenodd" clip-rule="evenodd" fill="#72C9A6" d="M0 74l25.85 7.049 3.775 10.317L27.5 103z"/><path fill-rule="evenodd" clip-rule="evenodd" fill="#3F8F6F" d="M54.534 79.75L27.5 103l-1.65-21.951z"/><path fill="#A0CF7E" d="M127.78 85.674l-3.07-44.341 2.054.491 3.008 43.666z"/><path fill-rule="evenodd" clip-rule="evenodd" fill="#72C9A6" d="M100.25 77.838l28.526 6.744-.436 9.376-4.84 10.933z"/><path fill-rule="evenodd" clip-rule="evenodd" fill="#3F8F6F" d="M128.776 84.582L150 78.75l-26.5 26.141z"/></svg>