<svg xmlns="http://www.w3.org/2000/svg" viewBox="0 0 150 150"><path fill-rule="evenodd" clip-rule="evenodd" fill="none" stroke="#709D53" stroke-width="3" stroke-miterlimit="10" d="M16 92.855L46.548 81M68.224 135L76 110.667M133.333 107.217l-24.182-18.812M117.472 15.833L91 40.891M30.439 23.202l32.894 17.689"/><path fill-rule="evenodd" clip-rule="evenodd" fill="#A0CF7E" d="M53.475 47.667L77 57.5l19.5-20.095L71 29z"/><path fill-rule="evenodd" clip-rule="evenodd" fill="#5A8240" d="M96.5 37.405L96 72.891 77 86l-3-20 3-12.5z"/><path fill-rule="evenodd" clip-rule="evenodd" fill="#709D53" d="M53.475 47.667l5.192 31L77 86V53.5z"/><path fill-rule="evenodd" clip-rule="evenodd" fill="#54B08B" d="M45.333 43.333l20.667 11-20.667 15L27.667 49z"/><path fill-rule="evenodd" clip-rule="evenodd" fill="#3F8F6F" d="M27.667 49v24.667l17.333 19 2.211-16.668-1.878-9.666z"/><path fill-rule="evenodd" clip-rule="evenodd" fill="#35785D" d="M66 54.333l2.034 28.081L45 92.667l.333-26.334z"/><path fill-rule="evenodd" clip-rule="evenodd" fill="#72C9A6" d="M87 57.5l16.667-9.833 20 16.738-15 16.595z"/><path fill-rule="evenodd" clip-rule="evenodd" fill="#54B08B" d="M87 57.5l-5.452 25.362 23.785 17.805 3.818-12.36L108.667 78z"/><path fill-rule="evenodd" clip-rule="evenodd" fill="#3F8F6F" d="M123.667 64.405L126 85l-20.667 15.667L108.667 78z"/><path fill-rule="evenodd" clip-rule="evenodd" fill="#BFDB8E" d="M56.517 87.54L77 73.667 96.5 83 77 103.667z"/><path fill-rule="evenodd" clip-rule="evenodd" fill="#99C26D" d="M56.517 87.54L55 102.891l20 15.776 4.224-11.013L77 100.667z"/><path fill-rule="evenodd" clip-rule="evenodd" fill="#709D53" d="M96.5 83v23.667l-21.5 12 2-18z"/><path fill-rule="evenodd" clip-rule="evenodd" fill="#72C9A6" d="M58.034 128.667L73 124.405l3.667 14.262-7.334 2-12.666-2z"/><path fill-rule="evenodd" clip-rule="evenodd" fill="#3F8F6F" d="M76.667 138.667l-2.334 9L56.667 150v-11.333z"/><path fill-rule="evenodd" clip-rule="evenodd" fill="#A0CF7E" d="M127.333 104L139 97l11 5.667-11.333 9.709z"/><path fill-rule="evenodd" clip-rule="evenodd" fill="#749D4F" d="M127.333 104L126 115.333l12.667 8.072 2-7.072-2-5.957z"/><path fill-rule="evenodd" clip-rule="evenodd" fill="#5A8240" d="M138.667 110.376v13.029l8-5.738 3.333-15z"/><path fill-rule="evenodd" clip-rule="evenodd" fill="#61B08A" d="M103.167 9.667L113.833 0l14.334 4.833L117.833 16z"/><path fill-rule="evenodd" clip-rule="evenodd" fill="#3F8F6F" d="M103.167 9.667l-1.834 11 16 7.333 2.278-8.335L117.833 13z"/><path fill-rule="evenodd" clip-rule="evenodd" fill="#35785D" d="M128.167 4.833l2.166 11.543-13 11.624.5-15z"/><path fill-rule="evenodd" clip-rule="evenodd" fill="#BFDB8E" d="M3 86l12-5 11 9.333-17 11.334z"/><path fill-rule="evenodd" clip-rule="evenodd" fill="#99C26D" d="M3 86L0 99.855l9 9.521 2-7.709-2-3z"/><path fill-rule="evenodd" clip-rule="evenodd" fill="#709D53" d="M26 90.333v13.334l-17 5.709V98.667z"/><path fill-rule="evenodd" clip-rule="evenodd" fill="#72C9A6" d="M17.5 14l14.167-6.167 11 8.167L26 23.833z"/><path fill-rule="evenodd" clip-rule="evenodd" fill="#54B08B" d="M17.5 14L16 25l12 9.405.835-7.326L26 21.833z"/><path fill-rule="evenodd" clip-rule="evenodd" fill="#3F8F6F" d="M42.667 16L40 27l-12 7.405-2-12.572z"/></svg>