<?xml version="1.0" standalone="no"?>
<!DOCTYPE svg PUBLIC "-//W3C//DTD SVG 20010904//EN"
 "http://www.w3.org/TR/2001/REC-SVG-20010904/DTD/svg10.dtd">
<svg version="1.0" xmlns="http://www.w3.org/2000/svg"
 width="1049.000000pt" height="302.000000pt" viewBox="0 0 1049.000000 302.000000"
 preserveAspectRatio="xMidYMid meet">

<g transform="translate(0.000000,302.000000) scale(0.100000,-0.100000)"
fill="#000000" stroke="none">
<path d="M1297 2853 c-4 -3 -7 -42 -7 -85 l0 -78 30 0 30 0 0 85 c0 82 -1 85
-23 85 -13 0 -27 -3 -30 -7z"/>
<path d="M901 2771 c-15 -10 -11 -25 25 -107 23 -52 25 -53 49 -42 28 13 28
16 -11 104 -23 53 -36 62 -63 45z"/>
<path d="M1693 2763 c-3 -10 -17 -42 -30 -72 -13 -30 -22 -55 -21 -56 2 -1 13
-8 26 -14 21 -11 24 -9 52 54 34 76 36 90 14 99 -25 10 -34 7 -41 -11z"/>
<path d="M1160 2565 c-291 -62 -534 -294 -612 -582 -29 -112 -29 -280 1 -387
37 -134 93 -229 190 -326 47 -47 101 -92 119 -99 l32 -13 0 -249 0 -249 375 0
375 0 0 159 0 159 118 4 c126 5 172 20 220 70 35 38 42 80 42 255 l0 163 50 0
50 0 0 208 c0 225 -13 310 -63 424 -103 232 -324 410 -576 464 -83 17 -236 17
-321 -1z m323 -61 c269 -60 489 -272 557 -538 16 -65 20 -111 20 -258 l0 -178
-50 0 -50 0 0 -195 c0 -281 -4 -286 -235 -295 l-140 -5 -3 -157 -3 -158 -314
0 -315 0 0 234 0 233 -66 39 c-125 73 -225 209 -275 374 -32 103 -32 262 -1
373 76 270 290 474 557 532 84 19 233 18 318 -1z"/>
<path d="M1238 2418 c-141 -16 -272 -83 -376 -193 -55 -57 -142 -192 -142
-219 0 -3 209 -6 465 -6 303 0 465 3 465 10 0 6 48 10 125 10 l125 0 -29 58
c-35 68 -93 139 -153 187 -24 19 -55 46 -69 59 -75 70 -255 111 -411 94z"/>
<path d="M1808 1841 c-49 -26 -90 -50 -94 -53 -3 -3 38 -29 91 -58 53 -29 98
-50 99 -49 2 2 8 14 15 26 10 20 7 24 -39 49 l-51 28 50 28 c47 27 49 31 39
54 -6 13 -14 24 -17 24 -3 -1 -45 -22 -93 -49z"/>
<path d="M565 2540 c-19 -21 -18 -22 38 -78 57 -56 57 -57 76 -37 20 20 20 20
-35 78 -31 31 -57 57 -58 57 -2 0 -11 -9 -21 -20z"/>
<path d="M1997 2502 l-58 -58 21 -19 c21 -19 21 -18 78 38 l57 57 -20 20 -21
20 -57 -58z"/>
<path d="M336 2204 c-12 -32 -4 -41 59 -67 79 -33 79 -33 93 -3 10 23 8 25
-63 55 -87 36 -81 35 -89 15z"/>
<path d="M2225 2193 c-73 -30 -79 -35 -70 -63 8 -25 25 -23 110 15 53 23 55
25 43 49 -13 31 -8 31 -83 -1z"/>
<path d="M6198 1959 c-17 -9 -18 -50 -18 -619 0 -592 1 -610 19 -620 27 -14
94 -13 114 3 15 10 17 39 19 231 l3 220 173 -226 c106 -138 182 -228 195 -232
28 -7 86 -7 115 0 39 11 25 45 -64 159 -47 61 -124 161 -172 223 l-86 113 157
157 c86 87 157 165 157 175 0 32 -77 47 -137 27 -19 -7 -86 -73 -184 -181
l-154 -170 -3 366 -2 366 -26 9 c-33 13 -84 12 -106 -1z"/>
<path d="M7453 1960 l-23 -9 0 -611 0 -610 26 -10 c33 -13 80 -13 105 0 18 10
19 28 19 620 0 592 -1 610 -19 620 -24 12 -78 12 -108 0z"/>
<path d="M7873 1960 l-23 -9 0 -611 0 -610 26 -10 c33 -13 80 -13 105 0 18 10
19 28 19 620 0 592 -1 610 -19 620 -24 12 -78 12 -108 0z"/>
<path d="M7031 1898 c-43 -23 -52 -116 -15 -153 24 -23 119 -20 144 5 26 26
27 99 2 130 -22 27 -95 37 -131 18z"/>
<path d="M8291 1898 c-42 -22 -50 -117 -14 -153 23 -23 118 -20 143 5 26 26
27 99 2 130 -22 27 -95 37 -131 18z"/>
<path d="M3060 1860 c-20 -20 -20 -31 -18 -578 l3 -557 38 -9 c23 -6 51 -6 75
0 l37 9 3 253 2 252 80 0 c92 0 115 -7 165 -51 45 -39 75 -99 151 -298 63
-164 69 -171 139 -171 42 0 85 16 85 32 0 19 -129 337 -162 401 -17 31 -51 75
-75 98 -25 22 -43 42 -41 43 2 2 27 16 57 32 29 15 68 45 86 66 86 101 85 282
-2 379 -85 94 -175 119 -430 119 -160 0 -175 -2 -193 -20z m427 -141 c62 -31
93 -83 93 -156 0 -88 -29 -136 -105 -176 -32 -16 -64 -21 -157 -25 l-118 -4 0
197 0 198 119 -5 c99 -4 127 -9 168 -29z"/>
<path d="M250 1785 c0 -25 1 -25 85 -25 84 0 85 0 85 25 0 25 -1 25 -85 25
-84 0 -85 0 -85 -25z"/>
<path d="M2220 1785 c0 -25 1 -25 85 -25 84 0 85 0 85 25 0 25 -1 25 -85 25
-84 0 -85 0 -85 -25z"/>
<path d="M4232 1580 c-104 -22 -201 -98 -245 -193 -36 -77 -50 -149 -49 -258
1 -245 104 -384 307 -420 139 -24 374 21 391 75 10 31 6 88 -7 96 -6 4 -47 -6
-92 -21 -103 -36 -246 -41 -313 -10 -73 33 -113 99 -129 213 l-7 47 282 3
c323 3 310 0 310 94 0 224 -126 370 -328 380 -42 1 -96 -1 -120 -6z m150 -120
c76 -22 131 -92 140 -182 l6 -48 -219 0 -218 0 5 33 c28 154 147 235 286 197z"/>
<path d="M5608 1577 c-110 -32 -179 -108 -186 -208 -9 -120 51 -200 193 -258
164 -68 205 -101 205 -166 0 -77 -59 -119 -166 -119 -61 1 -83 6 -152 39 -44
20 -85 34 -91 31 -6 -4 -11 -30 -11 -57 0 -62 25 -91 101 -114 178 -54 352
-13 432 102 57 80 46 222 -21 286 -28 27 -141 86 -203 106 -68 22 -127 67
-137 105 -36 128 110 186 277 111 33 -15 64 -24 70 -20 16 9 13 87 -4 112 -33
48 -212 77 -307 50z"/>
<path d="M9035 1581 c-54 -14 -105 -43 -155 -88 l-49 -44 -3 58 c-3 53 -5 58
-30 67 -17 6 -42 6 -65 0 l-38 -9 -3 -418 -2 -417 26 -10 c33 -13 80 -13 105
0 18 10 19 24 19 299 l0 288 58 55 c73 70 115 92 174 91 64 -1 107 -28 138
-88 25 -49 25 -51 28 -340 3 -254 5 -292 20 -302 19 -16 71 -17 107 -3 l27 10
-4 318 c-4 269 -7 324 -22 363 -23 62 -76 122 -130 148 -47 23 -153 35 -201
22z"/>
<path d="M9854 1580 c-152 -31 -238 -136 -237 -287 0 -56 5 -83 25 -123 l26
-51 -34 -57 c-28 -46 -34 -66 -34 -114 0 -53 3 -62 37 -98 l36 -41 -35 -37
c-51 -53 -68 -93 -68 -157 0 -104 47 -160 162 -197 174 -54 398 -24 507 67 73
63 103 193 62 273 -49 96 -113 122 -335 134 -111 7 -180 15 -198 24 -36 19
-45 57 -25 99 l16 33 51 -19 c61 -23 166 -25 236 -4 69 20 125 65 160 127 26
47 29 63 29 138 0 70 -4 92 -22 123 l-22 37 57 0 c32 0 63 5 70 12 13 13 16
76 4 94 -4 7 -66 14 -167 18 -88 3 -182 8 -210 10 -27 3 -68 1 -91 -4z m153
-129 c68 -31 99 -104 83 -192 -15 -83 -75 -130 -165 -130 -119 0 -185 88 -161
215 19 102 138 154 243 107z m59 -691 c87 -18 119 -68 93 -144 -24 -70 -100
-106 -225 -106 -86 0 -162 21 -193 54 -43 46 -21 143 43 193 19 15 39 18 127
15 57 -1 127 -7 155 -12z"/>
<path d="M7033 1570 l-23 -9 0 -415 c0 -400 1 -416 19 -426 25 -13 87 -13 112
0 18 10 19 26 19 426 l0 414 -26 10 c-31 12 -71 12 -101 0z"/>
<path d="M8293 1570 l-23 -9 0 -416 0 -415 26 -10 c33 -13 80 -13 105 0 18 10
19 26 19 426 l0 414 -26 10 c-31 12 -71 12 -101 0z"/>
<path d="M393 1432 c-62 -25 -74 -40 -54 -70 7 -11 23 -7 84 18 73 30 76 32
65 56 -13 29 -16 29 -95 -4z"/>
<path d="M4834 1216 c-3 -7 -4 -33 -2 -57 l3 -44 208 -3 207 -2 11 24 c7 14 9
40 5 60 l-7 36 -210 0 c-169 0 -211 -3 -215 -14z"/>
<path d="M600 1105 l-54 -55 22 -23 23 -22 56 58 c54 56 55 58 38 77 -10 11
-21 20 -24 20 -4 0 -31 -25 -61 -55z"/>
<path d="M950 530 l0 -30 320 0 320 0 0 30 0 30 -320 0 -320 0 0 -30z"/>
<path d="M950 370 l0 -29 76 -3 77 -3 1 -75 1 -75 163 -3 162 -2 0 80 0 80 80
0 80 0 0 30 0 30 -320 0 -320 0 0 -30z m420 -80 l0 -50 -105 0 -105 0 0 50 0
50 105 0 105 0 0 -50z"/>
</g>
</svg>
